<svg xmlns="http://www.w3.org/2000/svg" xmlns:xlink="http://www.w3.org/1999/xlink" width="242.413" height="200.765" x="0" y="0" enable-background="new 37.203 115.991 242.413 200.765" version="1.1" viewBox="37.203 115.991 242.413 200.765" xml:space="preserve"><g><path d="M-71.309,127.502c19.84-10.928,41.986-20.048,62.679-29.216C26.969,83.27,62.709,68.515,98.81,54.778 c7.023-2.341,19.645-4.629,20.882,5.78c-0.677,14.734-3.465,29.382-5.377,44.029c-4.852,32.212-10.462,64.313-15.932,96.419 c-1.885,10.694-15.281,16.23-23.853,9.387c-20.6-13.915-41.359-27.695-61.696-41.932c-6.663-6.77-0.484-16.491,5.464-21.324 c16.967-16.723,34.962-30.928,51.041-48.513c4.338-10.475-8.478-1.648-12.705,1.058c-23.228,16.007-45.888,32.991-70.378,47.059 c-12.509,6.886-27.089,1.001-39.593-2.841c-11.211-4.641-27.639-9.319-17.973-16.396L-71.309,127.502z" transform="matrix(1.25 0 0 1.25 130 50)"/></g></svg>