<svg xmlns="http://www.w3.org/2000/svg" xmlns:xlink="http://www.w3.org/1999/xlink" width="165" height="197" version="1.1" viewBox="0 0 165 197"><title>Group 24</title><g id="Page-1" fill="none" fill-rule="evenodd" stroke="none" stroke-width="1"><g id="orange" transform="translate(-712.000000, -6559.000000)"><g id="Group-24" transform="translate(714.000000, 6562.617460)"><g id="Group-7" stroke="#F59332" stroke-width="3" transform="translate(40.625000, 54.655978)"><circle id="Oval" cx="40" cy="40" r="40"/><ellipse id="Oval" cx="40" cy="40" rx="16" ry="40"/><line id="Path-15" x1="40" x2="40" y1="80" y2="0"/><line id="Path-15" x1="0" x2="80" y1="40" y2="40"/><line id="Path-15-Copy" x1="4.667" x2="75.333" y1="20.932" y2="20.932"/><line id="Path-15-Copy-2" x1="4.667" x2="75.333" y1="59.599" y2="59.599"/></g><path id="Oval" stroke="#F19031" stroke-dasharray="7" stroke-width="4" d="M123.23394,18.0462982 C117.947863,16.7099614 112.412379,16 106.711075,16 C78.9470449,16 55.1153858,32.836481 44.8690029,56.8565377 C41.4179082,64.9467574 39.5079498,73.8518939 39.5079498,83.203125 C39.5079498,91.5028222 41.0125143,99.4511095 43.7637755,106.790119" transform="translate(81.370945, 61.395060) rotate(49.000000) translate(-81.370945, -61.395060)"/><path id="Oval" stroke="#F19031" stroke-dasharray="7" stroke-width="4" d="M124.40129,84.9237447 C119.115213,83.5874078 113.579729,82.8774465 107.878425,82.8774465 C80.1143951,82.8774465 56.282736,99.7139275 46.036353,123.733984 C42.5852584,131.824204 40.6753,140.72934 40.6753,150.080571 C40.6753,158.380269 42.1798645,166.328556 44.9311256,173.667566" transform="translate(82.538295, 128.272506) scale(1, -1) rotate(51.000000) translate(-82.538295, -128.272506)"/><circle id="Oval" cx="13.5" cy="85.526" r="7.144" stroke="#F59332" stroke-width="3"/><circle id="Oval-Copy" cx="147.828" cy="85.526" r="7.144" stroke="#F59332" stroke-width="3"/><path id="Rectangle" stroke="#F59332" stroke-width="3" d="M13.5,93.8825401 C20.9558441,93.8825401 27,99.926696 27,107.38254 L27,108.38254 L27,108.38254 L0,108.38254 L0,107.38254 C-9.13077564e-16,99.926696 6.04415588,93.8825401 13.5,93.8825401 Z"/><path id="Rectangle-Copy-16" stroke="#F59332" stroke-width="3" d="M147.828125,93.8825401 C155.283969,93.8825401 161.328125,99.926696 161.328125,107.38254 L161.328125,108.38254 L161.328125,108.38254 L134.328125,108.38254 L134.328125,107.38254 C134.328125,99.926696 140.372281,93.8825401 147.828125,93.8825401 Z"/></g></g></g></svg>