<?xml version="1.0" encoding="UTF-8"?>
<svg width="165px" height="197px" viewBox="0 0 165 197" version="1.1" xmlns="http://www.w3.org/2000/svg" xmlns:xlink="http://www.w3.org/1999/xlink">
    <title>Group 24</title>
    <g id="Page-1" stroke="none" stroke-width="1" fill="none" fill-rule="evenodd">
        <g id="orange" transform="translate(-712.000000, -6559.000000)">
            <g id="Group-24" transform="translate(714.000000, 6562.617460)">
                <g id="Group-7" transform="translate(40.625000, 54.655978)" stroke="#F59332" stroke-width="3">
                    <circle id="Oval" cx="40" cy="40" r="40"></circle>
                    <ellipse id="Oval" cx="40" cy="40" rx="16" ry="40"></ellipse>
                    <line x1="40" y1="80" x2="40" y2="0" id="Path-15"></line>
                    <line x1="0" y1="40" x2="80" y2="40" id="Path-15"></line>
                    <line x1="4.66666667" y1="20.9322917" x2="75.3333333" y2="20.9322917" id="Path-15-Copy"></line>
                    <line x1="4.66666667" y1="59.5989583" x2="75.3333333" y2="59.5989583" id="Path-15-Copy-2"></line>
                </g>
                <path d="M123.23394,18.0462982 C117.947863,16.7099614 112.412379,16 106.711075,16 C78.9470449,16 55.1153858,32.836481 44.8690029,56.8565377 C41.4179082,64.9467574 39.5079498,73.8518939 39.5079498,83.203125 C39.5079498,91.5028222 41.0125143,99.4511095 43.7637755,106.790119" id="Oval" stroke="#F19031" stroke-width="4" stroke-dasharray="7" transform="translate(81.370945, 61.395060) rotate(49.000000) translate(-81.370945, -61.395060) "></path>
                <path d="M124.40129,84.9237447 C119.115213,83.5874078 113.579729,82.8774465 107.878425,82.8774465 C80.1143951,82.8774465 56.282736,99.7139275 46.036353,123.733984 C42.5852584,131.824204 40.6753,140.72934 40.6753,150.080571 C40.6753,158.380269 42.1798645,166.328556 44.9311256,173.667566" id="Oval" stroke="#F19031" stroke-width="4" stroke-dasharray="7" transform="translate(82.538295, 128.272506) scale(1, -1) rotate(51.000000) translate(-82.538295, -128.272506) "></path>
                <circle id="Oval" stroke="#F59332" stroke-width="3" cx="13.5" cy="85.5260948" r="7.14355469"></circle>
                <circle id="Oval-Copy" stroke="#F59332" stroke-width="3" cx="147.828125" cy="85.5260948" r="7.14355469"></circle>
                <path d="M13.5,93.8825401 C20.9558441,93.8825401 27,99.926696 27,107.38254 L27,108.38254 L27,108.38254 L0,108.38254 L0,107.38254 C-9.13077564e-16,99.926696 6.04415588,93.8825401 13.5,93.8825401 Z" id="Rectangle" stroke="#F59332" stroke-width="3"></path>
                <path d="M147.828125,93.8825401 C155.283969,93.8825401 161.328125,99.926696 161.328125,107.38254 L161.328125,108.38254 L161.328125,108.38254 L134.328125,108.38254 L134.328125,107.38254 C134.328125,99.926696 140.372281,93.8825401 147.828125,93.8825401 Z" id="Rectangle-Copy-16" stroke="#F59332" stroke-width="3"></path>
            </g>
        </g>
    </g>
</svg>