<?xml version="1.0" encoding="UTF-8"?>
<svg width="81px" height="47px" viewBox="0 0 81 47" version="1.1" xmlns="http://www.w3.org/2000/svg" xmlns:xlink="http://www.w3.org/1999/xlink">
    <title>bitcoin(6)</title>
    <g id="Page-1" stroke="none" stroke-width="1" fill="none" fill-rule="evenodd">
        <g id="desktop-copy" transform="translate(-113.000000, -5715.000000)">
            <g id="bitcoin(6)" transform="translate(115.000000, 5717.000000)">
                <g id="Group-40" transform="translate(0.000000, 0.000000)">
                    <path d="M24.4029844,21.65625 C26.4052852,19.8911152 27.671875,17.3101113 27.671875,14.4375 C27.671875,10.4064297 25.179752,6.94834766 21.65625,5.51738086 L21.65625,2.40625 C21.65625,1.07739844 20.579002,3.55271368e-15 19.25,3.55271368e-15 C17.920998,3.55271368e-15 16.84375,1.07739844 16.84375,2.40625 L16.84375,4.8125 L12.03125,4.8125 L12.03125,2.40625 C12.03125,1.07739844 10.954002,3.55271368e-15 9.625,3.55271368e-15 C8.29599805,3.55271368e-15 7.21875,1.07739844 7.21875,2.40625 L7.21875,4.8125 L2.40625,4.8125 C1.07724805,4.8125 3.55271368e-15,5.88989844 3.55271368e-15,7.21875 C3.55271368e-15,8.54760156 1.07724805,9.625 2.40625,9.625 L4.8125,9.625 L4.8125,21.65625 L4.8125,33.6875 L2.40625,33.6875 C1.07724805,33.6875 3.55271368e-15,34.7648984 3.55271368e-15,36.09375 C3.55271368e-15,37.4226016 1.07724805,38.5 2.40625,38.5 L7.21875,38.5 L7.21875,40.90625 C7.21875,42.2351016 8.29599805,43.3125 9.625,43.3125 C10.954002,43.3125 12.03125,42.2351016 12.03125,40.90625 L12.03125,38.5 L16.84375,38.5 L16.84375,40.90625 C16.84375,42.2351016 17.920998,43.3125 19.25,43.3125 C20.579002,43.3125 21.65625,42.2351016 21.65625,40.90625 L21.65625,37.7951191 C25.179752,36.3641523 27.671875,32.9060703 27.671875,28.875 C27.671875,26.0023887 26.4052852,23.4213848 24.4029844,21.65625 Z M9.625,9.625 L18.046875,9.625 C20.7005176,9.625 22.859375,11.7838574 22.859375,14.4375 C22.859375,17.0911426 20.7005176,19.25 18.046875,19.25 L9.625,19.25 L9.625,9.625 Z M18.046875,33.6875 L9.625,33.6875 L9.625,24.0625 L18.046875,24.0625 C20.7005176,24.0625 22.859375,26.2213574 22.859375,28.875 C22.859375,31.5286426 20.7005176,33.6875 18.046875,33.6875 Z" id="Shape" stroke="#F59332" stroke-width="2.25"></path>
                    <line x1="42.0195312" y1="24.0625" x2="72.59375" y2="24.0625" id="Path-24" stroke="#F59332" stroke-width="2.25"></line>
                    <rect id="Rectangle" fill="#F59332" x="66.40625" y="17.875" width="12.375" height="12.375"></rect>
                </g>
            </g>
        </g>
    </g>
</svg>