<svg xmlns="http://www.w3.org/2000/svg" xmlns:xlink="http://www.w3.org/1999/xlink" width="80" height="61" version="1.1" viewBox="0 0 80 61"><title>visibility 2</title><g id="Page-1" fill="none" fill-rule="evenodd" stroke="none" stroke-width="1"><g id="orange" stroke="#F59332" stroke-width="2.25" transform="translate(-812.000000, -4992.000000)"><g id="visibility-2" transform="translate(812.000000, 4992.257812)"><g id="visibility"><path id="Path" d="M39.9237427,7.77965887 C19.8413253,7.77965887 2.00484237,28.706183 1.25349698,30.2909319 C1.69296379,30.8099617 7.97058877,38.0952412 17.0973295,44.1216608 L26.357542,34.8614482 C25.7987844,33.3256162 25.4914522,31.6703674 25.4914522,29.9424561 C25.4914522,25.9627647 27.1092623,22.3544453 29.7224971,19.7412105 C32.3357318,17.1279758 35.9440512,15.5101657 39.9237427,15.5101657 C41.6517979,15.5101657 43.3069382,15.8174971 44.8427369,16.3762533 L51.6100226,9.60896767 C48.0115295,8.48366374 44.1170173,7.77965887 39.9237427,7.77965887 Z"/><path id="Shape" d="M68.7126165,1.83617033 C68.6870616,1.91184647 68.6442392,1.98293819 68.583998,2.04317934 L68.583998,2.04317934 L58.306502,12.3206754 C70.748352,18.5440902 78.1913786,29.0084609 78.6252005,29.6354443 C78.6942716,29.7350352 78.7250984,29.851509 78.7196355,29.9661692 C78.7140313,30.0837933 78.6705401,30.1995646 78.5944458,30.290391 C77.842643,31.1788852 60.0061601,52.1054094 39.9237427,52.1054094 C33.9595763,52.1054094 28.2051421,50.2228641 23.0295556,47.6012074 L23.0295556,47.6012074 L12.0319215,58.5988629 C11.9249822,58.7047282 11.7856068,58.7591326 11.645692,58.7591326 C11.5099867,58.7591326 11.3739091,58.7078564 11.2667622,58.5995926 C11.161799,58.4946294 11.1097173,58.3567249 11.1097173,58.2190253 C36.0095713,33.0955141 50.2439819,19.0582545 58.4840063,11.1471994 C63.0997925,6.71569078 65.82347,4.21640967 67.4586385,2.83692376 C67.9937847,2.38545549 68.3998757,2.06205314 68.7126165,1.83617033 Z M50.4632089,20.1642803 L30.1454058,40.4820835 C32.7403983,42.8558314 36.1375057,44.3749025 39.9237427,44.3749025 C43.9034341,44.3749025 47.5117536,42.7570924 50.1249883,40.1438577 C52.7382231,37.530623 54.3560331,33.9223035 54.3560331,29.9426121 C54.3560331,26.1565647 52.8369598,22.7592101 50.4632089,20.1642803 Z"/></g></g></g></g></svg>