<svg xmlns="http://www.w3.org/2000/svg" xmlns:cc="http://web.resource.org/cc/" xmlns:svg="http://www.w3.org/2000/svg" xmlns:xlink="http://www.w3.org/1999/xlink" id="svg2" width="111.161" height="112.39" x="0" y="0" enable-background="new 17.874 1.315 111.161 112.39" version="1.1" viewBox="17.874 1.315 111.161 112.39" xml:space="preserve"><linearGradient id="path1948_1_" x1="200.005" x2="309.021" y1="-107.904" y2="-201.698" gradientTransform="matrix(0.5625 0 0 -0.568 -97.3642 -56.7712)" gradientUnits="userSpaceOnUse"><stop offset="0" style="stop-color:#5a9fd4"/><stop offset="1" style="stop-color:#306998"/></linearGradient><path id="path1948" fill="url(#path1948_1_)" d="M72.793,1.316c-4.584,0.021-8.961,0.412-12.812,1.094	c-11.346,2.005-13.406,6.2-13.406,13.938v10.219h26.812v3.406H46.574H36.512c-7.792,0-14.616,4.684-16.75,13.594	c-2.462,10.213-2.571,16.587,0,27.251c1.906,7.938,6.458,13.594,14.25,13.594h9.219V72.16c0-8.85,7.657-16.657,16.75-16.657h26.781	c7.455,0,13.406-6.138,13.406-13.625V16.347c0-7.266-6.13-12.725-13.406-13.938C82.156,1.643,77.376,1.294,72.793,1.316z M58.293,9.534c2.77,0,5.031,2.299,5.031,5.125c0,2.816-2.262,5.094-5.031,5.094c-2.78,0-5.031-2.277-5.031-5.094	C53.262,11.833,55.513,9.534,58.293,9.534z"/><linearGradient id="path1950_1_" x1="351.168" x2="312.239" y1="-258.466" y2="-203.389" gradientTransform="matrix(0.5625 0 0 -0.568 -97.3642 -56.7712)" gradientUnits="userSpaceOnUse"><stop offset="0" style="stop-color:#ffd43b"/><stop offset="1" style="stop-color:#ffe873"/></linearGradient><path id="path1950" fill="url(#path1950_1_)" d="M103.511,29.972v11.906c0,9.231-7.826,17.001-16.75,17.001H59.98	c-7.336,0-13.406,6.277-13.406,13.625v25.531c0,7.266,6.318,11.541,13.406,13.625c8.487,2.496,16.626,2.947,26.781,0	c6.75-1.955,13.406-5.889,13.406-13.625V87.817H73.387V84.41h26.781h13.406c7.793,0,10.696-5.436,13.406-13.594	c2.799-8.398,2.68-16.477,0-27.251c-1.926-7.757-5.604-13.594-13.406-13.594H103.511z M88.449,94.629	c2.779,0,5.031,2.277,5.031,5.094c0,2.826-2.252,5.125-5.031,5.125c-2.77,0-5.031-2.299-5.031-5.125	C83.418,96.906,85.679,94.629,88.449,94.629z"/></svg>