<?xml version="1.0" encoding="UTF-8"?>
<svg width="64px" height="62px" viewBox="0 0 64 62" version="1.1" xmlns="http://www.w3.org/2000/svg" xmlns:xlink="http://www.w3.org/1999/xlink">
    <title>Group 30</title>
    <g id="Page-1" stroke="none" stroke-width="1" fill="none" fill-rule="evenodd">
        <g id="orange" transform="translate(-141.000000, -1967.000000)" stroke="#F59332" stroke-width="2.25">
            <g id="paper-plane" transform="translate(143.000000, 1969.941406)">
                <g id="Group-30" transform="translate(-0.000111, -0.000222)">
                    <path d="M21.8751112,44.0302215 L21.8751112,55.6252215 C21.8751112,56.4352215 22.3951112,57.1527215 23.1651112,57.4077215 C23.3576112,57.4702215 23.5551112,57.5002215 23.7501112,57.5002215 C24.3351112,57.5002215 24.9001112,57.2252215 25.2601112,56.7352215 L32.0426112,47.5052215 L21.8751112,44.0302215 Z" id="Path"></path>
                    <path d="M59.2126112,0.347721526 C58.6376112,-0.0597784736 57.8826112,-0.114778474 57.2576112,0.212721526 L1.00761119,29.5877215 C0.342611195,29.9352215 -0.0498888053,30.6452215 0.00511119473,31.3927215 C0.0626111947,32.1427215 0.560111195,32.7827215 1.26761119,33.0252215 L16.9051112,38.3702215 L50.2076112,9.89522153 L24.4376112,40.9427215 L50.6451112,49.9002215 C50.8401112,49.9652215 51.0451112,50.0002215 51.2501112,50.0002215 C51.5901112,50.0002215 51.9276112,49.9077215 52.2251112,49.7277215 C52.7001112,49.4377215 53.0226112,48.9502215 53.1051112,48.4027215 L59.9801112,2.15272153 C60.0826112,1.45272153 59.7876112,0.757721526 59.2126112,0.347721526 Z" id="Path"></path>
                </g>
            </g>
        </g>
    </g>
</svg>