<svg xmlns="http://www.w3.org/2000/svg" xmlns:xlink="http://www.w3.org/1999/xlink" width="118" height="66" version="1.1" viewBox="0 0 118 66"><title>Group 25</title><g id="Page-1" fill="none" fill-rule="evenodd" stroke="none" stroke-width="1"><g id="orange" transform="translate(-1171.000000, -6193.000000)"><g id="Group-10-Copy" transform="translate(1069.000000, 6194.703125)"><g id="Group-9" transform="translate(102.000000, 0.000000)"><g id="Group-11" transform="translate(0.742188, 0.000000)"><g id="Group-12" transform="translate(0.757812, 0.000000)"><g id="Group-25"><rect id="Rectangle-Copy-19" width="54" height="54" x="60.5" y="8" stroke="#F59332" stroke-width="2.162" rx="27"/><rect id="Rectangle-Copy-19" width="6" height="6" x="84.5" y="32" stroke="#F59332" stroke-width="2.162" rx="3"/><line id="Path-12" x1="49.43" x2="0" y1="35" y2="35" stroke="#F19031" stroke-dasharray="7" stroke-width="4"/><line id="Path-12-Copy" x1="49.43" x2="24.715" y1="53.297" y2="53.297" stroke="#F19031" stroke-dasharray="7" stroke-width="4"/><line id="Path-12-Copy-2" x1="49.43" x2="24.715" y1="16.703" y2="16.703" stroke="#F19031" stroke-dasharray="7" stroke-width="4"/><line id="Path-18" x1="85.5" x2="72" y1="33.797" y2="20.797" stroke="#F59332" stroke-width="2.162"/><line id="Path-19" x1="87.5" x2="87.5" y1="8" y2=".687" stroke="#F59332" stroke-width="2.162"/><line id="Path-20" x1="93.958" x2="81.042" y1=".687" y2=".687" stroke="#F59332" stroke-width="2.162"/><line id="Path-21" x1="87.5" x2="87.5" y1="14.703" y2="20.797" stroke="#F59332" stroke-width="2.162"/><line id="Path-21-Copy" x1="87.5" x2="87.5" y1="50.797" y2="56.891" stroke="#F59332" stroke-width="2.162"/><line id="Path-21" x1="106.453" x2="106.453" y1="33.656" y2="39.75" stroke="#F59332" stroke-width="2.162" transform="translate(106.453125, 36.703125) rotate(-270.000000) translate(-106.453125, -36.703125)"/><line id="Path-21-Copy" x1="70.359" x2="70.359" y1="33.656" y2="39.75" stroke="#F59332" stroke-width="2.162" transform="translate(70.359375, 36.703125) rotate(-270.000000) translate(-70.359375, -36.703125)"/></g></g></g></g></g></g></g></svg>