<svg xmlns="http://www.w3.org/2000/svg" xmlns:xlink="http://www.w3.org/1999/xlink" width="84" height="85" version="1.1" viewBox="0 0 84 85"><title>piggy-bank 2</title><g id="Page-1" fill="none" fill-rule="evenodd" stroke="none" stroke-width="1"><g id="orange" stroke="#F59332" stroke-width="2.162" transform="translate(-749.000000, -6188.000000)"><g id="piggy-bank-2" transform="translate(751.000000, 6190.906250)"><g id="piggy-bank" transform="translate(40.000000, 40.000000) scale(-1, 1) translate(-40.000000, -40.000000)"><path id="Path" d="M37.65625,0 C32.4857813,0 28.28125,4.36078125 28.28125,9.53125 C28.28125,14.7017188 32.4857813,18.90625 37.65625,18.90625 C42.8267187,18.90625 47.03125,14.7017188 47.03125,9.53125 C47.03125,4.36078125 42.8267187,0 37.65625,0 Z"/><path id="Shape" d="M75.3125,40 C75.3125,43.1579688 73.0503125,45.8046875 70.1789062,46.6896875 C68.7467187,35.7210938 58.8095312,26.6634375 44.870625,24.2164063 L44.8545312,24.1935938 C37.2145312,22.925625 29.4896875,23.6992188 22.7720312,26.3840625 C21.0692187,21.9640625 16.8120313,18.90625 11.875,18.90625 L9.53125,18.90625 L9.53125,36.0632813 C8.020625,38.0339063 6.8625,40.1373437 6.07515625,42.34375 L0,42.34375 L0,61.09375 L8.42125,61.09375 C9.93421875,63.430625 11.8773437,65.5523438 14.21875,67.4292188 L14.21875,80 L28.28125,80 L28.28125,74.091875 C34.3396875,75.5064062 40.981875,75.5040625 47.03125,74.0942187 L47.03125,80 L61.09375,80 L61.09375,67.440625 C66.4390625,63.15625 69.70375,57.4789063 70.3357812,51.495 C75.741875,50.4564063 80,45.704375 80,40 L75.3125,40 Z M18.90625,47.03125 L14.21875,47.03125 L14.21875,42.34375 L18.90625,42.34375 L18.90625,47.03125 Z M48.4021875,39.8946875 C41.9340625,36.9398437 33.145,36.9970312 26.9239062,39.8785937 L24.9509375,35.6259375 C32.3942187,32.1721875 42.6526562,32.1195312 50.3476562,35.6282812 L48.4021875,39.8946875 Z"/></g></g></g></g></svg>