<svg width="919" height="325" xmlns="http://www.w3.org/2000/svg"><g fill-rule="nonzero" fill="none"><path d="M675.372 238h136.256c3.78 0 6.872-3.093 6.872-6.872V94.872c0-3.78-3.093-6.872-6.872-6.872H675.372c-3.78 0-6.872 3.093-6.872 6.872v136.256c0 3.78 3.093 6.872 6.872 6.872z" fill="#A31C37"/><path d="M658.31 215.5h95.38a4.825 4.825 0 0 0 4.81-4.81v-95.38a4.825 4.825 0 0 0-4.81-4.81h-95.38a4.825 4.825 0 0 0-4.81 4.81v95.38a4.825 4.825 0 0 0 4.81 4.81z" fill="#F15A24"/><path d="M641.249 193h54.502a2.757 2.757 0 0 0 2.749-2.749V135.75a2.757 2.757 0 0 0-2.749-2.75h-54.502a2.757 2.757 0 0 0-2.749 2.749v54.502a2.757 2.757 0 0 0 2.749 2.749z" fill="#FBB03B"/><g fill="#333"><path d="M213.735 152.019v82.648a3.333 3.333 0 0 1-3.333 3.333h-13.97a3.333 3.333 0 0 1-3.333-3.333v-82.648a4.218 4.218 0 0 0-4.206-4.206h-63.051a4.218 4.218 0 0 0-4.206 4.206v82.648a3.333 3.333 0 0 1-3.333 3.333h-13.97a3.333 3.333 0 0 1-3.333-3.333V130.51a3.333 3.333 0 0 1 3.333-3.333h84.56c13.72 0 24.842 11.122 24.842 24.842zm105.654-24.842c13.756 0 24.838 11.082 24.838 24.842v61.143A24.79 24.79 0 0 1 319.389 238h-63.056a24.79 24.79 0 0 1-24.838-24.838v-61.143c0-13.76 11.082-24.842 24.838-24.842h63.056zm-63.056 20.636c-2.293 0-4.202 1.913-4.202 4.206v61.143c0 2.293 1.909 4.202 4.202 4.202h63.056c2.293 0 4.202-1.909 4.202-4.202v-61.143c0-2.293-1.909-4.206-4.202-4.206h-63.056zm214.751-56.48v143.334A3.333 3.333 0 0 1 467.75 238h-84.56c-13.718 0-24.839-11.12-24.839-24.838v-61.143c0-13.72 11.122-24.842 24.842-24.842h67.254V91.333A3.333 3.333 0 0 1 453.78 88h13.97a3.334 3.334 0 0 1 3.334 3.333zm-24.838 126.03a4.214 4.214 0 0 0 4.202-4.201v-61.143a4.218 4.218 0 0 0-4.206-4.206H383.19a4.218 4.218 0 0 0-4.205 4.206v61.143a4.214 4.214 0 0 0 4.202 4.202h63.059v-.001zM601 152.015v37.558a3.334 3.334 0 0 1-3.333 3.334h-88.762v20.255a4.214 4.214 0 0 0 4.202 4.202h84.56a3.333 3.333 0 0 1 3.333 3.333v13.97a3.333 3.333 0 0 1-3.333 3.333h-84.56c-13.718 0-24.839-11.12-24.839-24.838v-61.143c0-13.72 11.123-24.842 24.842-24.842h63.052c13.718 0 24.838 11.12 24.838 24.838zm-20.636 20.255v-20.25a4.218 4.218 0 0 0-4.206-4.206h-63.051a4.214 4.214 0 0 0-4.202 4.202v20.254h71.459z"/><path d="M124.994 97.723c0 .66-.104 1.248-.347 1.77.798.833 1.353 2.048 1.353 3.298v5.383c0 2.673-2.187 4.826-4.861 4.826H101V88h19.167c2.639 0 4.827 2.153 4.827 4.826v4.897zm-19.168-5.14a.238.238 0 0 0-.243.243v4.897c0 .138.104.243.243.243h14.34c.105 0 .21-.105.21-.243v-4.897c0-.138-.105-.243-.21-.243h-14.34zm15.556 10.207c0-.138-.103-.207-.243-.207h-15.313c-.139 0-.243.069-.243.207v5.383c0 .139.104.243.243.243h15.313c.14 0 .243-.104.243-.243v-5.383zM133.29 88h4.583v25h-4.583V88zm34.824 0v4.583h-10.175V113h-4.616V92.583h-10.209V88h25zm10.901 4.583a.237.237 0 0 0-.243.243v15.348c0 .139.103.243.243.243h20.103V113h-20.103a4.817 4.817 0 0 1-4.828-4.826V92.826A4.817 4.817 0 0 1 179.015 88h20.103v4.583h-20.103zM226.302 88c2.64 0 4.826 2.153 4.826 4.826v15.348c0 2.673-2.187 4.826-4.826 4.826h-15.346a4.817 4.817 0 0 1-4.828-4.826V92.826A4.817 4.817 0 0 1 210.956 88h15.346zm0 20.417c.105 0 .21-.105.21-.243V92.826c0-.139-.105-.243-.21-.243h-15.346a.237.237 0 0 0-.243.243v15.348c0 .139.103.243.243.243h15.346zM238.453 88h4.583v25h-4.583V88zm31.458 0h4.618v25h-5l-15.418-18.333V113h-4.584V88h5.001l15.382 18.333V88h.001zm16.802 4.583a.237.237 0 0 0-.243.243v15.348c0 .139.103.243.243.243h20.103V113h-20.103a4.817 4.817 0 0 1-4.828-4.826V92.826A4.817 4.817 0 0 1 286.713 88h20.103v4.583h-20.103zM334.106 88c2.673 0 4.862 2.153 4.862 4.826V113h-4.619v-8.403h-15.798V113h-4.583V92.826A4.815 4.815 0 0 1 318.794 88h15.312zm.243 12.014v-7.188a.238.238 0 0 0-.243-.243h-15.312a.238.238 0 0 0-.243.243v7.188h15.798zm36.873-5.278h-4.618v-1.91c0-.139-.105-.243-.21-.243h-15.346a.238.238 0 0 0-.243.243v5.14c0 .138.105.243.243.243h15.347c2.639 0 4.827 2.153 4.827 4.825v5.14c0 2.673-2.188 4.826-4.827 4.826h-15.347a4.817 4.817 0 0 1-4.827-4.826v-1.91h4.584v1.91c0 .139.105.243.243.243h15.347c.104 0 .209-.104.209-.243v-5.14c0-.138-.105-.243-.21-.243h-15.346a4.817 4.817 0 0 1-4.827-4.825v-5.14A4.817 4.817 0 0 1 351.048 88h15.347c2.639 0 4.827 2.153 4.827 4.826v1.91zM403.996 88v25h-4.582v-10.209h-16.39V113h-4.583V88h4.583v10.209h16.39V88h4.582z"/></g></g></svg>