<svg viewBox="0 0 691.5 258" xmlns="http://www.w3.org/2000/svg" xmlns:xlink="http://www.w3.org/1999/xlink"><clipPath id="a"><path d="m631.3 256.3h-571.1a58.64 58.64 0 0 1 -58.5-58.5v-137.6a58.7 58.7 0 0 1 58.5-58.5h571.1a58.64 58.64 0 0 1 58.5 58.5v137.6a58.64 58.64 0 0 1 -58.5 58.5z"/></clipPath><g clip-path="url(#a)"><path d="m1.7 1.7h688v6.5h-688z" fill="#fff"/></g><g clip-path="url(#a)"><path d="m1.7 8.2h688v6.5h-688z" fill="#fff"/></g><g clip-path="url(#a)"><path d="m1.7 14.8h688v6.5h-688z" fill="#fff"/></g><g clip-path="url(#a)"><path d="m1.7 21.3h688v6.5h-688z" fill="#fefefe"/></g><g clip-path="url(#a)"><path d="m1.7 27.8h688v6.5h-688z" fill="#fefefe"/></g><g clip-path="url(#a)"><path d="m1.7 34.4h688v6.5h-688z" fill="#fdfdfe"/></g><g clip-path="url(#a)"><path d="m1.7 40.9h688v6.5h-688z" fill="#fdfdfd"/></g><g clip-path="url(#a)"><path d="m1.7 47.4h688v6.5h-688z" fill="#fcfcfc"/></g><g clip-path="url(#a)"><path d="m1.7 53.9h688v6.5h-688z" fill="#fcfcfc"/></g><g clip-path="url(#a)"><path d="m1.7 60.5h688v6.5h-688z" fill="#fbfbfb"/></g><g clip-path="url(#a)"><path d="m1.7 67h688v6.5h-688z" fill="#fafafb"/></g><g clip-path="url(#a)"><path d="m1.7 73.5h688v6.5h-688z" fill="#fafafa"/></g><g clip-path="url(#a)"><path d="m1.7 80h688v6.5h-688z" fill="#f9f9f9"/></g><g clip-path="url(#a)"><path d="m1.7 86.6h688v6.5h-688z" fill="#f8f8f8"/></g><g clip-path="url(#a)"><path d="m1.7 93.1h688v6.5h-688z" fill="#f7f7f7"/></g><g clip-path="url(#a)"><path d="m1.7 99.6h688v6.5h-688z" fill="#f6f6f7"/></g><g clip-path="url(#a)"><path d="m1.7 106.2h688v6.5h-688z" fill="#f5f5f6"/></g><g clip-path="url(#a)"><path d="m1.7 112.7h688v6.5h-688z" fill="#f4f4f5"/></g><g clip-path="url(#a)"><path d="m1.7 119.2h688v6.5h-688z" fill="#f3f3f4"/></g><g clip-path="url(#a)"><path d="m1.7 125.7h688v6.5h-688z" fill="#f2f2f3"/></g><g clip-path="url(#a)"><path d="m1.7 132.3h688v6.5h-688z" fill="#f1f1f2"/></g><g clip-path="url(#a)"><path d="m1.7 138.8h688v6.5h-688z" fill="#f0f0f1"/></g><g clip-path="url(#a)"><path d="m1.7 145.3h688v6.5h-688z" fill="#efefef"/></g><g clip-path="url(#a)"><path d="m1.7 151.8h688v6.5h-688z" fill="#edeeee"/></g><g clip-path="url(#a)"><path d="m1.7 158.4h688v6.5h-688z" fill="#eceded"/></g><g clip-path="url(#a)"><path d="m1.7 164.9h688v6.5h-688z" fill="#ebebec"/></g><g clip-path="url(#a)"><path d="m1.7 171.4h688v6.5h-688z" fill="#eaeaeb"/></g><g clip-path="url(#a)"><path d="m1.7 178h688v6.5h-688z" fill="#e8e9e9"/></g><g clip-path="url(#a)"><path d="m1.7 184.5h688v6.5h-688z" fill="#e7e8e8"/></g><g clip-path="url(#a)"><path d="m1.7 191h688v6.5h-688z" fill="#e6e6e7"/></g><g clip-path="url(#a)"><path d="m1.7 197.5h688v6.5h-688z" fill="#e4e5e6"/></g><g clip-path="url(#a)"><path d="m1.7 204.1h688v6.5h-688z" fill="#e3e3e4"/></g><g clip-path="url(#a)"><path d="m1.7 210.6h688v6.5h-688z" fill="#e1e2e3"/></g><g clip-path="url(#a)"><path d="m1.7 217.1h688v6.5h-688z" fill="#e0e1e1"/></g><g clip-path="url(#a)"><path d="m1.7 223.6h688v6.5h-688z" fill="#dedfe0"/></g><g clip-path="url(#a)"><path d="m1.7 230.2h688v6.5h-688z" fill="#dddedf"/></g><g clip-path="url(#a)"><path d="m1.7 236.7h688v6.5h-688z" fill="#dbdcdd"/></g><g clip-path="url(#a)"><path d="m1.7 243.2h688v6.5h-688z" fill="#dadbdc"/></g><g clip-path="url(#a)"><path d="m1.7 249.8h688v6.5h-688z" fill="#d8d9da"/></g><path d="m631.3 258h-571.1a60.261 60.261 0 0 1 -60.2-60.2v-137.6a60.261 60.261 0 0 1 60.2-60.2h571.1a60.261 60.261 0 0 1 60.2 60.2v137.6a60.261 60.261 0 0 1 -60.2 60.2zm-571.1-254.6a56.8 56.8 0 0 0 -56.7 56.8v137.6a56.891 56.891 0 0 0 56.8 56.8h571.1a56.891 56.891 0 0 0 56.8-56.8v-137.6a56.891 56.891 0 0 0 -56.8-56.8z" fill="#aaa"/><g fill="#4d4d4d"><path d="m198.7 179.4a20.032 20.032 0 0 1 -1.5 8 16.245 16.245 0 0 1 -4.2 6 19.378 19.378 0 0 1 -6.6 3.8 26.706 26.706 0 0 1 -8.8 1.3c-1.2 0-2.7-.1-4.3-.2a35.472 35.472 0 0 1 -4.7-.7l7.1-29.6a46.249 46.249 0 0 1 4.8-.7c1.5-.1 2.9-.2 4.2-.2a18.29 18.29 0 0 1 5.9.9 12.644 12.644 0 0 1 4.4 2.5 10.538 10.538 0 0 1 2.7 3.9 11.763 11.763 0 0 1 1 5zm-22 13.2c.3 0 .7.1 1 .1h1.4a14.178 14.178 0 0 0 5.2-.9 10.478 10.478 0 0 0 3.9-2.5 11.309 11.309 0 0 0 2.5-4.1 15.307 15.307 0 0 0 .9-5.4 8.235 8.235 0 0 0 -.4-2.8 6.128 6.128 0 0 0 -1.3-2.2 5.924 5.924 0 0 0 -2.3-1.4 11.786 11.786 0 0 0 -3.5-.5 24.333 24.333 0 0 0 -2.7.1z"/><path d="m214.2 198.7a13.477 13.477 0 0 1 -5-.9 10.5 10.5 0 0 1 -6.4-6.6 15.307 15.307 0 0 1 -.9-5.4 20.905 20.905 0 0 1 1.2-6.9 19.173 19.173 0 0 1 3.4-6.1 16.979 16.979 0 0 1 5.5-4.4 16.013 16.013 0 0 1 7.3-1.7 13.477 13.477 0 0 1 5 .9 10.5 10.5 0 0 1 6.4 6.6 15.307 15.307 0 0 1 .9 5.4 21.454 21.454 0 0 1 -4.6 13.1 16.979 16.979 0 0 1 -5.5 4.4 15.4 15.4 0 0 1 -7.3 1.6zm4.4-26a7.3 7.3 0 0 0 -3.8 1.1 11.763 11.763 0 0 0 -3.1 2.8 13.068 13.068 0 0 0 -2 4.1 14.867 14.867 0 0 0 -.7 4.7 9.822 9.822 0 0 0 1.4 5.4 4.939 4.939 0 0 0 4.5 2.1 7.3 7.3 0 0 0 3.8-1.1 11.763 11.763 0 0 0 3.1-2.8 13.068 13.068 0 0 0 2-4.1 15.083 15.083 0 0 0 .7-4.8 9.83 9.83 0 0 0 -1.4-5.4c-.9-1.4-2.4-2-4.5-2z"/><path d="m253.4 198.1c-1.2-3.5-2.6-7-4.1-10.4-1.5-3.5-3.2-6.8-4.9-9.9l-4.9 20.3h-6.8l7.3-30.7h5.3c.7 1 1.4 2.3 2.2 3.7s1.6 2.9 2.4 4.5 1.7 3.3 2.5 5.1 1.6 3.5 2.3 5.2l4.4-18.5h6.9l-7.4 30.7z"/><path d="m285 198.1c-.1-1.2-.1-2.3-.2-3.4s-.2-2.2-.2-3.3h-11.5c-.6 1.1-1.2 2.2-1.9 3.3-.6 1.1-1.3 2.2-1.9 3.4h-7.2c1.9-3.3 3.7-6.4 5.4-9.2s3.3-5.4 4.8-7.9 3.1-4.8 4.5-7.1c1.5-2.2 3-4.4 4.5-6.5h6.2c.5 2.1.9 4.5 1.4 7.1.4 2.6.8 5.2 1.2 7.9s.7 5.4 1 8.1.6 5.2.9 7.6zm-2-23.9c-1.2 2-2.5 3.9-3.7 5.9-1.2 1.9-2.4 3.9-3.5 6h8.3c-.1-1.8-.3-3.7-.5-5.8a59.971 59.971 0 0 0 -.6-6.1z"/><path d="m322.1 167.4-1.4 5.8h-9l-6 24.9h-6.9l6-24.9h-9l1.4-5.8z"/><path d="m325.6 167.4h6.9l-7.4 30.7h-6.9z"/><path d="m345.9 198.7a13.477 13.477 0 0 1 -5-.9 10.5 10.5 0 0 1 -6.4-6.6 15.307 15.307 0 0 1 -.9-5.4 20.905 20.905 0 0 1 1.2-6.9 19.173 19.173 0 0 1 3.4-6.1 16.979 16.979 0 0 1 5.5-4.4 16.013 16.013 0 0 1 7.3-1.7 13.477 13.477 0 0 1 5 .9 10.5 10.5 0 0 1 6.4 6.6 15.307 15.307 0 0 1 .9 5.4 21.454 21.454 0 0 1 -4.6 13.1 16.979 16.979 0 0 1 -5.5 4.4 15.676 15.676 0 0 1 -7.3 1.6zm4.4-26a7.3 7.3 0 0 0 -3.8 1.1 11.763 11.763 0 0 0 -3.1 2.8 13.068 13.068 0 0 0 -2 4.1 14.867 14.867 0 0 0 -.7 4.7 9.822 9.822 0 0 0 1.4 5.4 4.939 4.939 0 0 0 4.5 2.1 7.3 7.3 0 0 0 3.8-1.1 11.763 11.763 0 0 0 3.1-2.8 13.068 13.068 0 0 0 2-4.1 15.083 15.083 0 0 0 .7-4.8 9.83 9.83 0 0 0 -1.4-5.4c-.9-1.4-2.4-2-4.5-2z"/><path d="m385 198.1c-1.2-3.5-2.6-7-4.1-10.4-1.5-3.5-3.2-6.8-4.9-9.9l-4.9 20.3h-6.8l7.3-30.7h5.3c.7 1 1.4 2.3 2.2 3.7s1.6 2.9 2.4 4.5 1.7 3.3 2.5 5.1 1.6 3.5 2.3 5.2l4.4-18.5h6.9l-7.4 30.7z"/><path d="m405.1 193a12.313 12.313 0 0 0 2-.2 5.463 5.463 0 0 0 1.8-.6 3.475 3.475 0 0 0 1.3-1.1 3.555 3.555 0 0 0 .5-1.9 2.461 2.461 0 0 0 -.5-1.5 6.748 6.748 0 0 0 -1.2-1.2 9.477 9.477 0 0 0 -1.7-1c-.6-.3-1.2-.6-1.9-1-.8-.5-1.5-1-2.3-1.5a6.152 6.152 0 0 1 -1.8-1.8 9.416 9.416 0 0 1 -1.2-2.2 7.875 7.875 0 0 1 -.4-2.8 9.561 9.561 0 0 1 .8-3.8 7.558 7.558 0 0 1 2.3-3 10.552 10.552 0 0 1 3.8-2 17.244 17.244 0 0 1 5.4-.7 22.791 22.791 0 0 1 2.7.2c.9.2 1.7.4 2.5.6a10.26 10.26 0 0 1 2.1.8 11.469 11.469 0 0 1 1.6.9l-2.9 5.1a8.568 8.568 0 0 0 -2.7-1.4 9.9 9.9 0 0 0 -3.5-.6 11.116 11.116 0 0 0 -1.9.2 3.827 3.827 0 0 0 -1.6.6 2.905 2.905 0 0 0 -1.1 1.1 2.728 2.728 0 0 0 -.4 1.6 3.342 3.342 0 0 0 .3 1.5 2.825 2.825 0 0 0 .9 1 8.376 8.376 0 0 0 1.2.8 10.949 10.949 0 0 1 1.5.8l2.7 1.5a10.184 10.184 0 0 1 2.3 1.8 6.075 6.075 0 0 1 1.5 2.4 7.452 7.452 0 0 1 .6 3.1 10.167 10.167 0 0 1 -.9 4.4 8.642 8.642 0 0 1 -2.6 3.1 12.211 12.211 0 0 1 -4 1.8 20.611 20.611 0 0 1 -5.2.6 19.835 19.835 0 0 1 -3.5-.3 17.606 17.606 0 0 1 -2.9-.7c-.9-.3-1.6-.6-2.3-.9a9.818 9.818 0 0 1 -1.5-.9l2.9-5.3c.4.2.8.5 1.3.8s1.1.5 1.7.8c.6.2 1.3.4 2 .6a9.068 9.068 0 0 0 2.3.3z"/><path d="m450.8 198.1c-.1-1.2-.1-2.3-.2-3.4s-.2-2.2-.2-3.3h-11.5c-.6 1.1-1.2 2.2-1.9 3.3a37.053 37.053 0 0 0 -1.9 3.4h-7.2c1.9-3.3 3.7-6.4 5.4-9.2s3.3-5.4 4.8-7.9 3.1-4.8 4.5-7.1 3-4.4 4.5-6.5h6.2c.5 2.1.9 4.5 1.4 7.1.4 2.6.8 5.2 1.2 7.9s.7 5.4 1 8.1.6 5.2.9 7.6zm-2.1-23.9c-1.2 2-2.5 3.9-3.7 5.9-1.2 1.9-2.4 3.9-3.5 6h8.3c-.1-1.8-.3-3.7-.5-5.8a59.971 59.971 0 0 0 -.6-6.1z"/><path d="m483.3 196.8a17.2 17.2 0 0 1 -4 1.4 21.587 21.587 0 0 1 -5.4.5 13.477 13.477 0 0 1 -5-.9 11.6 11.6 0 0 1 -3.9-2.6 11.309 11.309 0 0 1 -2.5-4.1 15.307 15.307 0 0 1 -.9-5.4 20.905 20.905 0 0 1 1.2-6.9 17.906 17.906 0 0 1 3.6-6.1 19.768 19.768 0 0 1 5.8-4.4 18.006 18.006 0 0 1 7.9-1.7 20.055 20.055 0 0 1 4.2.5 16.687 16.687 0 0 1 4.3 1.7l-2.5 5.4a14.039 14.039 0 0 0 -3.3-1.3 15.421 15.421 0 0 0 -3.1-.4 9.328 9.328 0 0 0 -4.5 1 11.7 11.7 0 0 0 -3.5 2.8 11.574 11.574 0 0 0 -2.2 4.1 15.756 15.756 0 0 0 -.8 4.9c0 2.6.6 4.5 1.7 5.7a6.42 6.42 0 0 0 4.9 1.8 15.1 15.1 0 0 0 7.2-1.6z"/><path d="m510 196.8a17.2 17.2 0 0 1 -4 1.4 21.587 21.587 0 0 1 -5.4.5 13.477 13.477 0 0 1 -5-.9 11.6 11.6 0 0 1 -3.9-2.6 11.309 11.309 0 0 1 -2.5-4.1 15.307 15.307 0 0 1 -.9-5.4 20.905 20.905 0 0 1 1.2-6.9 17.906 17.906 0 0 1 3.6-6.1 19.768 19.768 0 0 1 5.8-4.4 18.006 18.006 0 0 1 7.9-1.7 20.055 20.055 0 0 1 4.2.5 16.687 16.687 0 0 1 4.3 1.7l-2.5 5.4a14.022 14.022 0 0 0 -3.3-1.3 15.421 15.421 0 0 0 -3.1-.4 9.328 9.328 0 0 0 -4.5 1 11.7 11.7 0 0 0 -3.5 2.8 11.574 11.574 0 0 0 -2.2 4.1 15.756 15.756 0 0 0 -.8 4.9c0 2.6.6 4.5 1.7 5.7a6.42 6.42 0 0 0 4.9 1.8 15.1 15.1 0 0 0 7.2-1.6z"/><path d="m513.8 198.1 7.3-30.7h20.1l-1.4 5.7h-13.1l-1.4 6.2h11.6l-1.4 5.6h-11.6l-1.8 7.5h14.2l-1.4 5.7z"/><path d="m555.2 167.1a19.031 19.031 0 0 1 5 .6 12.128 12.128 0 0 1 3.8 1.7 9.174 9.174 0 0 1 2.4 2.8 7.462 7.462 0 0 1 .8 3.7 10.8 10.8 0 0 1 -1.3 5.6 10.345 10.345 0 0 1 -3.5 3.7 16.69 16.69 0 0 1 -5.3 2 33.756 33.756 0 0 1 -6.6.6h-1.7l-2.5 10.3h-6.9l7.2-30.2a40.079 40.079 0 0 1 4.5-.6c1.4-.1 2.8-.2 4.1-.2zm-.6 5.8h-1.3c-.4 0-.7.1-1.1.1l-2.1 9h1.7a17.95 17.95 0 0 0 3.4-.3 6.721 6.721 0 0 0 2.6-1 4.621 4.621 0 0 0 1.7-1.7 4.87 4.87 0 0 0 .6-2.5 3.014 3.014 0 0 0 -1.4-2.8 8.726 8.726 0 0 0 -4.1-.8z"/><path d="m596.4 167.4-1.4 5.8h-9l-6 24.9h-6.9l6-24.9h-9l1.4-5.8z"/><path d="m592.6 198.1 7.3-30.7h20.1l-1.4 5.7h-13.1l-1.4 6.2h11.6l-1.4 5.6h-11.6l-1.8 7.5h14.2l-1.4 5.7z"/><path d="m648.3 179.4a20.032 20.032 0 0 1 -1.5 8 16.245 16.245 0 0 1 -4.2 6 19.378 19.378 0 0 1 -6.6 3.8 26.706 26.706 0 0 1 -8.8 1.3c-1.2 0-2.7-.1-4.3-.2a35.472 35.472 0 0 1 -4.7-.7l7.1-29.6a46.249 46.249 0 0 1 4.8-.7c1.5-.1 2.9-.2 4.2-.2a18.29 18.29 0 0 1 5.9.9 12.644 12.644 0 0 1 4.4 2.5 10.538 10.538 0 0 1 2.7 3.9 11.763 11.763 0 0 1 1 5zm-22 13.2c.3 0 .7.1 1 .1h1.4a14.178 14.178 0 0 0 5.2-.9 10.478 10.478 0 0 0 3.9-2.5 11.309 11.309 0 0 0 2.5-4.1 15.307 15.307 0 0 0 .9-5.4 8.235 8.235 0 0 0 -.4-2.8 6.1 6.1 0 0 0 -1.3-2.2 5.924 5.924 0 0 0 -2.3-1.4 11.786 11.786 0 0 0 -3.5-.5 24.342 24.342 0 0 0 -2.7.1z"/><path d="m197.051 136.15c-3.656 0-7.326-.106-10.936-.349a80.1 80.1 0 0 1 -11.329-1.577v-64.763a96.144 96.144 0 0 1 10.146-1.29c3.656-.3 7.068-.439 10.238-.439a66.747 66.747 0 0 1 11.724.94 27.555 27.555 0 0 1 9.207 3.109 16.311 16.311 0 0 1 6.036 5.839 17.166 17.166 0 0 1 2.184 8.9q0 8.007-7.72 12.619c4.262 1.577 7.129 3.806 8.66 6.537a19 19 0 0 1 2.321 9.342c0 7.023-2.578 12.271-7.674 15.789-5.188 3.614-12.756 5.343-22.857 5.343zm-7.614-41.406h7.326c4.656 0 7.917-.591 9.949-1.774a6.206 6.206 0 0 0 2.973-5.734c0-2.715-1.031-4.595-3.064-5.687q-3.117-1.638-9.055-1.638c-1.289 0-2.669 0-4.155.045s-2.776.106-3.959.243c-.015 0-.015 14.545-.015 14.545zm0 11.482v17.26c1.092.151 2.275.242 3.564.3s2.715.106 4.262.106a26 26 0 0 0 10.89-1.926c2.776-1.289 4.156-3.655 4.156-7.129 0-3.063-1.138-5.293-3.458-6.582-2.321-1.335-5.642-1.972-9.95-1.972h-9.449v-.06z"/><path d="m249 69.961a7.85 7.85 0 0 1 -2.578 6.234 9.147 9.147 0 0 1 -12.073 0 7.981 7.981 0 0 1 -2.579-6.234 7.846 7.846 0 0 1 2.579-6.234 8.891 8.891 0 0 1 6.036-2.275 8.761 8.761 0 0 1 6.037 2.275 7.9 7.9 0 0 1 2.578 6.234zm-1.38 65.355h-14.35v-50.716h14.348z"/><path d="m255.338 71.978 14.348-2.32v14.942h17.26v11.964h-17.26v17.806a14.4 14.4 0 0 0 1.577 7.22c1.032 1.774 3.216 2.715 6.431 2.715a27.487 27.487 0 0 0 4.747-.44 30.435 30.435 0 0 0 4.505-1.183l2.032 11.178a39.424 39.424 0 0 1 -5.794 1.835 34.184 34.184 0 0 1 -7.811.789 26.448 26.448 0 0 1 -9.752-1.578 14.606 14.606 0 0 1 -6.188-4.459 16.383 16.383 0 0 1 -3.216-6.87 41.869 41.869 0 0 1 -.94-8.949v-42.65z"/><path d="m288.978 109.972a29.8 29.8 0 0 1 1.775-10.344 24.163 24.163 0 0 1 13.347-14.2 26.587 26.587 0 0 1 10.981-2.123 33.967 33.967 0 0 1 7.416.743 37.254 37.254 0 0 1 6.537 2.078l-2.972 11.482a38.269 38.269 0 0 0 -4.459-1.335 22.565 22.565 0 0 0 -5.4-.592c-4.262 0-7.417 1.335-9.494 3.959s-3.11 6.082-3.11 10.389c0 4.551.986 8.115 2.912 10.587 1.972 2.518 5.4 3.761 10.238 3.761a32.353 32.353 0 0 0 5.6-.5 23.739 23.739 0 0 0 5.49-1.532l2.033 11.77a33.577 33.577 0 0 1 -6.28 1.835 42.7 42.7 0 0 1 -8.311.789 31.237 31.237 0 0 1 -11.967-2.078 22.62 22.62 0 0 1 -8.266-5.642 21.491 21.491 0 0 1 -4.7-8.418 42.267 42.267 0 0 1 -1.37-10.629z"/><path d="m379.313 109.881a33.387 33.387 0 0 1 -1.729 10.935 23.384 23.384 0 0 1 -4.99 8.463 22.742 22.742 0 0 1 -7.871 5.445 28.042 28.042 0 0 1 -20.43 0 22.655 22.655 0 0 1 -7.872-5.445 24.323 24.323 0 0 1 -5.1-8.463 30.983 30.983 0 0 1 -1.835-10.935 30.4 30.4 0 0 1 1.88-10.89 24.228 24.228 0 0 1 5.187-8.357 23.419 23.419 0 0 1 7.918-5.4 25.46 25.46 0 0 1 10-1.926 25.887 25.887 0 0 1 10.086 1.926 22.6 22.6 0 0 1 7.871 5.4 24.131 24.131 0 0 1 5.1 8.357 32.542 32.542 0 0 1 1.785 10.89zm-14.636 0c0-4.459-.9-7.917-2.669-10.435a9.473 9.473 0 0 0 -15.183 0c-1.774 2.518-2.715 6.036-2.715 10.435 0 4.459.895 7.962 2.715 10.541a9.32 9.32 0 0 0 15.183 0q2.661-3.936 2.669-10.541z"/><path d="m400.79 69.961a7.846 7.846 0 0 1 -2.579 6.234 9.147 9.147 0 0 1 -12.073 0 7.984 7.984 0 0 1 -2.578-6.234 7.85 7.85 0 0 1 2.578-6.234 8.9 8.9 0 0 1 6.037-2.275 8.757 8.757 0 0 1 6.036 2.275 7.9 7.9 0 0 1 2.579 6.234zm-1.335 65.355h-14.348v-50.716h14.348z"/><path d="m407.615 86.326a77.851 77.851 0 0 1 9.449-1.971 79.954 79.954 0 0 1 12.118-.941 29.271 29.271 0 0 1 10.739 1.686 16.12 16.12 0 0 1 6.779 4.747 18.463 18.463 0 0 1 3.565 7.326 39.586 39.586 0 0 1 1.031 9.449v28.65h-14.348v-26.923c0-4.656-.591-7.917-1.835-9.844s-3.519-2.866-6.825-2.866c-1.032 0-2.124.045-3.261.152s-2.184.2-3.064.348v39.131h-14.348z"/></g><path d="m490.533 136.651c-10.89 0-19.141-3.019-24.828-9.055s-8.509-14.591-8.509-25.723a39.676 39.676 0 0 1 2.624-14.788 31.483 31.483 0 0 1 7.128-10.985 29.96 29.96 0 0 1 10.784-6.78 39.106 39.106 0 0 1 13.6-2.32 41.7 41.7 0 0 1 7.72.637 45.782 45.782 0 0 1 6.082 1.44 30.147 30.147 0 0 1 4.353 1.684c1.138.591 1.972 1.031 2.518 1.335l-4.353 12.118a35.54 35.54 0 0 0 -7.174-2.775 33.589 33.589 0 0 0 -9.3-1.138 20.964 20.964 0 0 0 -6.779 1.138 15.954 15.954 0 0 0 -5.885 3.715 19.056 19.056 0 0 0 -4.11 6.583 27.759 27.759 0 0 0 -1.532 9.843 37.127 37.127 0 0 0 .986 8.615 18.846 18.846 0 0 0 3.261 6.871 15.859 15.859 0 0 0 5.93 4.6 20.846 20.846 0 0 0 8.857 1.683 42.591 42.591 0 0 0 5.885-.394 34.968 34.968 0 0 0 4.656-.941 26.449 26.449 0 0 0 3.565-1.183c1.031-.439 1.971-.894 2.775-1.243l4.156 12.073a35.185 35.185 0 0 1 -8.943 3.458 53.259 53.259 0 0 1 -13.467 1.532z" fill="#f7941d"/><path d="m535.458 83.263a33.758 33.758 0 0 1 10.587 1.44 15.755 15.755 0 0 1 6.779 4.156 15.327 15.327 0 0 1 3.61 6.537 32.814 32.814 0 0 1 1.031 8.554v29.88c-2.077.439-4.9.985-8.554 1.577a84.579 84.579 0 0 1 -13.3.94 40.948 40.948 0 0 1 -8.9-.9 19.909 19.909 0 0 1 -6.871-2.821 13.278 13.278 0 0 1 -4.459-5.141 17.717 17.717 0 0 1 -1.532-7.811 14.886 14.886 0 0 1 1.775-7.523 13.251 13.251 0 0 1 4.747-4.9 20.842 20.842 0 0 1 6.825-2.67 38.621 38.621 0 0 1 8.008-.834c1.881 0 3.519.106 4.945.243a18.267 18.267 0 0 1 3.518.637v-1.327a7.977 7.977 0 0 0 -2.229-5.885c-1.486-1.486-4.05-2.229-7.72-2.229a49.567 49.567 0 0 0 -7.22.546 30.2 30.2 0 0 0 -6.188 1.486l-1.835-11.572c.834-.243 1.881-.546 3.109-.834 1.244-.3 2.624-.546 4.11-.789s3.019-.394 4.657-.592c1.74-.062 3.423-.168 5.107-.168zm1.138 42c1.44 0 2.775-.045 4.049-.106a19.558 19.558 0 0 0 3.064-.3v-10.89a26.069 26.069 0 0 0 -2.624-.395 24.17 24.17 0 0 0 -3.17-.2 33.175 33.175 0 0 0 -3.807.243 8.436 8.436 0 0 0 -3.109.94 5.311 5.311 0 0 0 -2.124 1.835 5.218 5.218 0 0 0 -.788 2.867c0 2.23.743 3.807 2.275 4.656a11.739 11.739 0 0 0 6.238 1.347z" fill="#f7941d"/><path d="m579.776 125.017a13.751 13.751 0 0 0 5.6-.788 2.98 2.98 0 0 0 1.638-2.973 3.6 3.6 0 0 0 -2.124-3.018 37.557 37.557 0 0 0 -6.476-2.912 57.238 57.238 0 0 1 -6.127-2.624 17.209 17.209 0 0 1 -4.657-3.216 12.885 12.885 0 0 1 -2.972-4.5 16.738 16.738 0 0 1 -1.032-6.279 13.622 13.622 0 0 1 5.294-11.285q5.277-4.162 14.545-4.155a47.942 47.942 0 0 1 8.857.834 40.984 40.984 0 0 1 6.734 1.774l-2.517 11.178a46.754 46.754 0 0 0 -5.445-1.531 30.108 30.108 0 0 0 -6.583-.7c-4.5 0-6.734 1.244-6.734 3.761a3.682 3.682 0 0 0 .3 1.532 3.407 3.407 0 0 0 1.138 1.289 15.27 15.27 0 0 0 2.381 1.335 33.523 33.523 0 0 0 3.807 1.577 60.377 60.377 0 0 1 7.811 3.459 19.29 19.29 0 0 1 4.854 3.655 11.747 11.747 0 0 1 2.517 4.353 18.67 18.67 0 0 1 .743 5.6c0 4.99-1.88 8.812-5.642 11.33-3.761 2.579-9.054 3.853-15.925 3.853a47.064 47.064 0 0 1 -11.224-1.138 57.111 57.111 0 0 1 -6.237-1.928l2.426-11.679a48.869 48.869 0 0 0 7.523 2.275 30.907 30.907 0 0 0 7.527.921z" fill="#f7941d"/><path d="m606.652 135.316v-72.483l14.348-2.321v24.3a33.243 33.243 0 0 1 3.716-.941 22.5 22.5 0 0 1 4.4-.44 26.634 26.634 0 0 1 10.237 1.684 16.282 16.282 0 0 1 6.537 4.747 18.711 18.711 0 0 1 3.458 7.326 39.671 39.671 0 0 1 .986 9.449v28.651h-14.349v-26.939c0-4.656-.591-7.917-1.774-9.844s-3.413-2.866-6.583-2.866a17.1 17.1 0 0 0 -3.61.349 27.453 27.453 0 0 0 -3.018.743v38.539h-14.348z" fill="#f7941d"/><path d="m127.572 138a46.76 46.76 0 0 0 0-76.583h35.141v76.583z" fill="#f7941d"/><path d="m54 99.7a46.679 46.679 0 0 0 19.922 38.286h-35.175v-76.569h35.179a46.677 46.677 0 0 0 -19.926 38.283z" fill="#f7941d"/><circle cx="100.73" cy="99.683" fill="#f7941d" r="38.259"/><path d="m118.674 101.278-.021-.04v-.007c-.012-.04-.023-.08-.037-.124v-.007a7.818 7.818 0 0 0 -2.555-3.824l-.11-.086-.05-.036-.036-.028-.015-.013-.035-.024-.015-.013-.033-.024-.016-.013-.036-.027-.015-.012-.036-.028-.019-.011-.039-.026-.019-.011-.022-.035-.022-.014-.039-.025-.02-.015-.04-.025-.02-.014-.04-.026-.02-.015-.041-.029-.045-.038-.045-.028-.02-.014-.044-.027-.021-.015-.044-.027-.021-.014-.045-.027-.023-.013-.045-.027-.024-.012-.047-.026-.024-.013-.05-.029-.023-.012-.05-.029-.024-.012-.05-.028-.025-.017-.049-.028-.026-.016-.053-.026-.025-.015-.053-.028-.036-.018c-.026-.016-.053-.027-.079-.043a10.924 10.924 0 0 0 -3.493-1.1 9.736 9.736 0 0 0 .936-1.176l.044-.066.021-.033.027-.043.015-.021.026-.045.015-.02.027-.045.014-.02.028-.044.014-.021.028-.044.014-.021.023-.043.015-.02.024-.043.011-.018.024-.043.011-.018.023-.043.012-.019.021-.04.01-.02.022-.041.01-.018.021-.041.011-.019.022-.037.011-.019.023-.038.011-.018.019-.036.011-.019.019-.035.008-.017.019-.036.007-.017.02-.036.008-.016.018-.036.009-.017.015-.034.008-.017.015-.034.008-.017.016-.034.008-.017.017-.039.024-.051c.017-.039.03-.077.048-.115a6.963 6.963 0 0 0 .35-4.084v-.007a1.016 1.016 0 0 0 -.027-.112v-.01l-.015-.029c-.012-.053-.024-.1-.04-.161s-.029-.108-.044-.16l-.019-.036v-.007l-.034-.109a6.937 6.937 0 0 0 -2.273-3.4c-.032-.025-.066-.049-.1-.075l-.043-.032-.034-.024-.015-.014-.03-.022-.015-.013-.028-.023-.017-.012-.029-.019-.016-.014-.034-.024-.016-.012-.033-.025-.016-.013-.034-.024-.019-.011-.034-.024-.019-.012-.034-.023-.019-.011-.037-.023-.019-.011-.037-.022-.02-.012-.037-.022-.019-.011-.038-.023-.018-.011-.04-.025-.018-.011-.04-.026-.018-.011-.043-.024-.047-.079-.042-.024-.02-.014-.043-.025-.021-.014-.042-.023-.021-.016-.045-.026-.023-.013-.045-.027-.023-.013-.048-.025-.024-.013-.048-.025-.033-.016-.072-.038a10.493 10.493 0 0 0 -7.415-.727l-.694.179-1.757-6.843-4.072 1.045 1.756 6.814-3.257.835-1.755-6.8-4.071 1.045 1.756 6.815-8.4 2.161 1.122 4.342 3.384-.869a2.094 2.094 0 0 1 2.55 1.506l4.691 18.278a1.4 1.4 0 0 1 -1.006 1.7l-2.965.763.174 5.165 8.388-2.156 1.775 6.8 4.069-1.047-1.755-6.815 3.258-.835 1.753 6.819 4.069-1.048-1.758-6.844c.689-.181 1.283-.334 1.693-.44a11.825 11.825 0 0 0 6.916-4.739l.05-.074.025-.033.031-.051.015-.026.033-.052.015-.025.029-.049.015-.026.029-.05.013-.023.029-.05.012-.024.028-.049.013-.024.025-.048.013-.024.026-.047.012-.024.028-.045.012-.023.026-.045.014-.024.023-.042.013-.024.024-.043.013-.023.024-.043.009-.022.024-.043.009-.022.021-.041.011-.019.02-.041.012-.018.02-.041.011-.019.021-.041.011-.018.02-.041.012-.02.02-.04.011-.019.017-.039.012-.019.016-.039.008-.017.02-.044.024-.056c.019-.044.04-.086.055-.127a7.832 7.832 0 0 0 .4-4.584l-.029-.124v-.008l-.007-.014c-.015-.06-.027-.121-.046-.179a.844.844 0 0 1 -.049-.239zm-23.924-12.23c.695-.178 3.57-.9 4.514-1.146a6.136 6.136 0 0 1 4.148.322l.039.018.017.008.024.012.012.006.024.013.012.007.023.012.013.007.023.012.012.006.025.014.011.006.024.012.013.007.023.012.012.006.024.014.012.006.024.012.012.007.02.014.012.007.021.014.012.006.02.015.012.006.019.012.012.006.019.011.012.006.018.011.012.006.02.012.011.007.019.01.009.008.019.011h.006l.019.012h.007l.019.011h.007l.018.011h.008l.015.013h.007l.018.012.026.016c.019.01.037.028.055.038a3.5 3.5 0 0 1 1.244 1.783v.01l.02.058.01.02c.007.03.016.055.024.085a.411.411 0 0 1 .016.093l.01.019a.3.3 0 0 0 .015.059l.006.01a3.53 3.53 0 0 1 -.232 2.162l-.027.06-.014.029-.011.019v.01l-.008.017v.01l-.012.019v.01l-.011.018v.011l-.011.019v.01l-.011.019v.01l-.011.018v.01l-.011.019-.007.012-.011.018-.006.012-.011.02-.006.012-.012.018-.006.013-.014.02-.007.012-.015.021-.006.011-.014.02-.007.013-.014.02-.006.012-.015.021-.006.012-.015.02-.006.012-.015.021-.006.011-.015.022-.006.011-.017.022-.007.012-.018.023-.006.012-.017.023-.007.011-.018.022-.013.017-.024.033a6.123 6.123 0 0 1 -3.481 2.282c-.949.243-3.814.994-4.508 1.173zm15.916 14.011.01.019a.385.385 0 0 0 .013.066 3.615 3.615 0 0 1 -.328 2.361l-.036.066-.017.032-.013.023-.006.012-.012.019-.006.012-.011.019-.006.011-.015.021-.006.012-.015.02-.006.013-.014.02-.007.012-.015.021-.006.012-.014.02-.007.012-.014.02-.006.012-.015.021-.007.012-.014.02-.006.013-.015.02-.007.012-.017.023-.006.011-.018.022-.007.012-.015.026-.002.014-.015.026-.008.012v.038l-.009.013-.015.025-.01.015-.02.026-.009.015-.019.027-.009.013-.02.028-.01.013-.019.028-.01.014-.019.026-.015.018-.032.038a7.718 7.718 0 0 1 -4.157 2.574c-1.122.289-4.518 1.178-5.344 1.388l-2.318-8.988c.825-.214 4.229-1.068 5.353-1.359a7.724 7.724 0 0 1 4.882.25l.045.019.022.009.032.013h.015l.029.013h.015l.03.014h.015l.029.015.012.006.029.014.012.006.028.014.013.008.028.013.012.007.025.012.011.006.025.014.012.006.023.012.013.007.023.012.012.006.024.014.012.006.023.012.013.007.023.012.012.007.025.012.011.007.025.012.012.006.02.016.011.006.021.014.012.006.02.015.013.006.02.015.012.006.021.014.012.007.018.012.013.006.02.014.027.019.065.042a3.627 3.627 0 0 1 1.428 1.911l.007.014c.007.021.012.039.02.061l.011.019c.007.03.016.06.025.093.014 0 .017.041.012.086z" fill="#fff"/></svg>