<svg viewBox="0 0 688.1 254.6" xmlns="http://www.w3.org/2000/svg" xmlns:xlink="http://www.w3.org/1999/xlink"><clipPath id="a"><path d="m629.6 254.6h-571.1a58.64 58.64 0 0 1 -58.5-58.5v-137.6a58.7 58.7 0 0 1 58.5-58.5h571.1a58.64 58.64 0 0 1 58.5 58.5v137.6a58.64 58.64 0 0 1 -58.5 58.5z"/></clipPath><path d="m629.6 254.6h-571.1a58.64 58.64 0 0 1 -58.5-58.5v-137.6a58.7 58.7 0 0 1 58.5-58.5h571.1a58.64 58.64 0 0 1 58.5 58.5v137.6a58.64 58.64 0 0 1 -58.5 58.5z" fill="#f7941d"/><g clip-path="url(#a)"><path d="m0 0h688v6.5h-688z" fill="#f7941d"/></g><g clip-path="url(#a)"><path d="m0 6.5h688v6.5h-688z" fill="#f7941d"/></g><g clip-path="url(#a)"><path d="m0 13.1h688v6.5h-688z" fill="#f7941d"/></g><g clip-path="url(#a)"><path d="m0 19.6h688v6.5h-688z" fill="#f7941d"/></g><g clip-path="url(#a)"><path d="m0 26.1h688v6.5h-688z" fill="#f7941d"/></g><g clip-path="url(#a)"><path d="m0 32.7h688v6.5h-688z" fill="#f7941d"/></g><g clip-path="url(#a)"><path d="m0 39.2h688v6.5h-688z" fill="#f7941d"/></g><g clip-path="url(#a)"><path d="m0 45.7h688v6.5h-688z" fill="#f7941d"/></g><g clip-path="url(#a)"><path d="m0 52.2h688v6.5h-688z" fill="#f7941d"/></g><g clip-path="url(#a)"><path d="m0 58.8h688v6.5h-688z" fill="#f7941d"/></g><g clip-path="url(#a)"><path d="m0 65.3h688v6.5h-688z" fill="#f7941d"/></g><g clip-path="url(#a)"><path d="m0 71.8h688v6.5h-688z" fill="#f7941d"/></g><g clip-path="url(#a)"><path d="m0 78.3h688v6.5h-688z" fill="#f7941d"/></g><g clip-path="url(#a)"><path d="m0 84.9h688v6.5h-688z" fill="#f7941d"/></g><g clip-path="url(#a)"><path d="m0 91.4h688v6.5h-688z" fill="#f7941d"/></g><g clip-path="url(#a)"><path d="m0 97.9h688v6.5h-688z" fill="#f7941d"/></g><g clip-path="url(#a)"><path d="m0 104.5h688v6.5h-688z" fill="#f7941d"/></g><g clip-path="url(#a)"><path d="m0 111h688v6.5h-688z" fill="#f7941d"/></g><g clip-path="url(#a)"><path d="m0 117.5h688v6.5h-688z" fill="#f7941d"/></g><g clip-path="url(#a)"><path d="m0 124h688v6.5h-688z" fill="#f7941d"/></g><g clip-path="url(#a)"><path d="m0 130.6h688v6.5h-688z" fill="#f7941d"/></g><g clip-path="url(#a)"><path d="m0 137.1h688v6.5h-688z" fill="#f7941d"/></g><g clip-path="url(#a)"><path d="m0 143.6h688v6.5h-688z" fill="#f7941d"/></g><g clip-path="url(#a)"><path d="m0 150.1h688v6.5h-688z" fill="#f7941d"/></g><g clip-path="url(#a)"><path d="m0 156.7h688v6.5h-688z" fill="#f7941d"/></g><g clip-path="url(#a)"><path d="m0 163.2h688v6.5h-688z" fill="#f7941d"/></g><g clip-path="url(#a)"><path d="m0 169.7h688v6.5h-688z" fill="#f7941d"/></g><g clip-path="url(#a)"><path d="m0 176.3h688v6.5h-688z" fill="#f7941d"/></g><g clip-path="url(#a)"><path d="m0 182.8h688v6.5h-688z" fill="#f7941d"/></g><g clip-path="url(#a)"><path d="m0 189.3h688v6.5h-688z" fill="#f7941d"/></g><g clip-path="url(#a)"><path d="m0 195.8h688v6.5h-688z" fill="#f7941d"/></g><g clip-path="url(#a)"><path d="m0 202.4h688v6.5h-688z" fill="#f7941d"/></g><g clip-path="url(#a)"><path d="m0 208.9h688v6.5h-688z" fill="#f7941d"/></g><g clip-path="url(#a)"><path d="m0 215.4h688v6.5h-688z" fill="#f7941d"/></g><g clip-path="url(#a)"><path d="m0 221.9h688v6.5h-688z" fill="#f7941d"/></g><g clip-path="url(#a)"><path d="m0 228.5h688v6.5h-688z" fill="#f7941d"/></g><g clip-path="url(#a)"><path d="m0 235h688v6.5h-688z" fill="#f7941d"/></g><g clip-path="url(#a)"><path d="m0 241.5h688v6.5h-688z" fill="#f7941d"/></g><g clip-path="url(#a)"><path d="m0 248.1h688v6.5h-688z" fill="#f7941d"/></g><g fill="#fff"><path d="m197 176.7a20.032 20.032 0 0 1 -1.5 8 16.245 16.245 0 0 1 -4.2 6 19.378 19.378 0 0 1 -6.6 3.8 26.706 26.706 0 0 1 -8.8 1.3c-1.2 0-2.7-.1-4.3-.2a35.472 35.472 0 0 1 -4.7-.7l7.1-29.6a46.249 46.249 0 0 1 4.8-.7c1.5-.1 2.9-.2 4.2-.2a18.29 18.29 0 0 1 5.9.9 12.644 12.644 0 0 1 4.4 2.5 10.538 10.538 0 0 1 2.7 3.9 11.763 11.763 0 0 1 1 5zm-22 13.2c.3 0 .7.1 1 .1h1.4a14.178 14.178 0 0 0 5.2-.9 10.478 10.478 0 0 0 3.9-2.5 11.309 11.309 0 0 0 2.5-4.1 15.307 15.307 0 0 0 .9-5.4 8.235 8.235 0 0 0 -.4-2.8 6.128 6.128 0 0 0 -1.3-2.2 5.924 5.924 0 0 0 -2.3-1.4 11.786 11.786 0 0 0 -3.5-.5 24.333 24.333 0 0 0 -2.7.1z"/><path d="m212.5 196a13.477 13.477 0 0 1 -5-.9 10.5 10.5 0 0 1 -6.4-6.6 15.307 15.307 0 0 1 -.9-5.4 20.905 20.905 0 0 1 1.2-6.9 19.173 19.173 0 0 1 3.4-6.1 16.979 16.979 0 0 1 5.5-4.4 16.013 16.013 0 0 1 7.3-1.7 13.477 13.477 0 0 1 5 .9 10.5 10.5 0 0 1 6.4 6.6 15.307 15.307 0 0 1 .9 5.4 21.454 21.454 0 0 1 -4.6 13.1 16.979 16.979 0 0 1 -5.5 4.4 15.4 15.4 0 0 1 -7.3 1.6zm4.4-26a7.3 7.3 0 0 0 -3.8 1.1 11.763 11.763 0 0 0 -3.1 2.8 13.068 13.068 0 0 0 -2 4.1 14.867 14.867 0 0 0 -.7 4.7 9.822 9.822 0 0 0 1.4 5.4 4.939 4.939 0 0 0 4.5 2.1 7.3 7.3 0 0 0 3.8-1.1 11.763 11.763 0 0 0 3.1-2.8 13.068 13.068 0 0 0 2-4.1 15.083 15.083 0 0 0 .7-4.8 9.83 9.83 0 0 0 -1.4-5.4c-.9-1.4-2.4-2-4.5-2z"/><path d="m251.7 195.4c-1.2-3.5-2.6-7-4.1-10.4-1.5-3.5-3.2-6.8-4.9-9.9l-4.9 20.3h-6.8l7.3-30.7h5.3c.7 1 1.4 2.3 2.2 3.7s1.6 2.9 2.4 4.5 1.7 3.3 2.5 5.1 1.6 3.5 2.3 5.2l4.4-18.5h6.9l-7.4 30.7z"/><path d="m283.3 195.4c-.1-1.2-.1-2.3-.2-3.4s-.2-2.2-.2-3.3h-11.5c-.6 1.1-1.2 2.2-1.9 3.3-.6 1.1-1.3 2.2-1.9 3.4h-7.2c1.9-3.3 3.7-6.4 5.4-9.2s3.3-5.4 4.8-7.9 3.1-4.8 4.5-7.1c1.5-2.2 3-4.4 4.5-6.5h6.2c.5 2.1.9 4.5 1.4 7.1.4 2.6.8 5.2 1.2 7.9s.7 5.4 1 8.1.6 5.2.9 7.6zm-2-23.9c-1.2 2-2.5 3.9-3.7 5.9-1.2 1.9-2.4 3.9-3.5 6h8.3c-.1-1.8-.3-3.7-.5-5.8a59.971 59.971 0 0 0 -.6-6.1z"/><path d="m320.4 164.7-1.4 5.8h-9l-6 24.9h-6.9l6-24.9h-9l1.4-5.8z"/><path d="m323.9 164.7h6.9l-7.4 30.7h-6.9z"/><path d="m344.2 196a13.477 13.477 0 0 1 -5-.9 10.5 10.5 0 0 1 -6.4-6.6 15.307 15.307 0 0 1 -.9-5.4 20.905 20.905 0 0 1 1.2-6.9 19.173 19.173 0 0 1 3.4-6.1 16.979 16.979 0 0 1 5.5-4.4 16.013 16.013 0 0 1 7.3-1.7 13.477 13.477 0 0 1 5 .9 10.5 10.5 0 0 1 6.4 6.6 15.307 15.307 0 0 1 .9 5.4 21.454 21.454 0 0 1 -4.6 13.1 16.979 16.979 0 0 1 -5.5 4.4 15.676 15.676 0 0 1 -7.3 1.6zm4.4-26a7.3 7.3 0 0 0 -3.8 1.1 11.763 11.763 0 0 0 -3.1 2.8 13.068 13.068 0 0 0 -2 4.1 14.867 14.867 0 0 0 -.7 4.7 9.83 9.83 0 0 0 1.4 5.4 4.939 4.939 0 0 0 4.5 2.1 7.3 7.3 0 0 0 3.8-1.1 11.763 11.763 0 0 0 3.1-2.8 13.068 13.068 0 0 0 2-4.1 15.083 15.083 0 0 0 .7-4.8 9.83 9.83 0 0 0 -1.4-5.4c-.9-1.4-2.4-2-4.5-2z"/><path d="m383.3 195.4c-1.2-3.5-2.6-7-4.1-10.4-1.5-3.5-3.2-6.8-4.9-9.9l-4.9 20.3h-6.8l7.3-30.7h5.3c.7 1 1.4 2.3 2.2 3.7s1.6 2.9 2.4 4.5 1.7 3.3 2.5 5.1 1.6 3.5 2.3 5.2l4.4-18.5h6.9l-7.4 30.7z"/><path d="m403.4 190.3a12.313 12.313 0 0 0 2-.2 5.463 5.463 0 0 0 1.8-.6 3.468 3.468 0 0 0 1.3-1.1 3.555 3.555 0 0 0 .5-1.9 2.461 2.461 0 0 0 -.5-1.5 6.748 6.748 0 0 0 -1.2-1.2 9.418 9.418 0 0 0 -1.7-1c-.6-.3-1.2-.6-1.9-1-.8-.5-1.5-1-2.3-1.5a6.152 6.152 0 0 1 -1.8-1.8 9.416 9.416 0 0 1 -1.2-2.2 7.875 7.875 0 0 1 -.4-2.8 9.561 9.561 0 0 1 .8-3.8 7.558 7.558 0 0 1 2.3-3 10.552 10.552 0 0 1 3.8-2 17.24 17.24 0 0 1 5.4-.7 22.791 22.791 0 0 1 2.7.2c.9.2 1.7.4 2.5.6a10.26 10.26 0 0 1 2.1.8 11.526 11.526 0 0 1 1.6.9l-2.9 5.1a8.568 8.568 0 0 0 -2.7-1.4 9.9 9.9 0 0 0 -3.5-.6 11.116 11.116 0 0 0 -1.9.2 3.827 3.827 0 0 0 -1.6.6 2.905 2.905 0 0 0 -1.1 1.1 2.728 2.728 0 0 0 -.4 1.6 3.34 3.34 0 0 0 .3 1.5 2.825 2.825 0 0 0 .9 1 8.239 8.239 0 0 0 1.2.8 10.949 10.949 0 0 1 1.5.8l2.7 1.5a10.184 10.184 0 0 1 2.3 1.8 6.075 6.075 0 0 1 1.5 2.4 7.452 7.452 0 0 1 .6 3.1 10.167 10.167 0 0 1 -.9 4.4 8.634 8.634 0 0 1 -2.6 3.1 12.211 12.211 0 0 1 -4 1.8 20.611 20.611 0 0 1 -5.2.6 19.835 19.835 0 0 1 -3.5-.3 17.606 17.606 0 0 1 -2.9-.7c-.9-.3-1.6-.6-2.3-.9a9.818 9.818 0 0 1 -1.5-.9l2.9-5.3c.4.2.8.5 1.3.8s1.1.5 1.7.8c.6.2 1.3.4 2 .6a9.068 9.068 0 0 0 2.3.3z"/><path d="m449.1 195.4c-.1-1.2-.1-2.3-.2-3.4s-.2-2.2-.2-3.3h-11.5c-.6 1.1-1.2 2.2-1.9 3.3a37.291 37.291 0 0 0 -1.9 3.4h-7.2c1.9-3.3 3.7-6.4 5.4-9.2s3.3-5.4 4.8-7.9 3.1-4.8 4.5-7.1 3-4.4 4.5-6.5h6.2c.5 2.1.9 4.5 1.4 7.1.4 2.6.8 5.2 1.2 7.9s.7 5.4 1 8.1.6 5.2.9 7.6zm-2.1-23.9c-1.2 2-2.5 3.9-3.7 5.9-1.2 1.9-2.4 3.9-3.5 6h8.3c-.1-1.8-.3-3.7-.5-5.8a59.971 59.971 0 0 0 -.6-6.1z"/><path d="m481.6 194.1a17.2 17.2 0 0 1 -4 1.4 21.587 21.587 0 0 1 -5.4.5 13.477 13.477 0 0 1 -5-.9 11.6 11.6 0 0 1 -3.9-2.6 11.309 11.309 0 0 1 -2.5-4.1 15.307 15.307 0 0 1 -.9-5.4 20.905 20.905 0 0 1 1.2-6.9 17.906 17.906 0 0 1 3.6-6.1 19.768 19.768 0 0 1 5.8-4.4 18.009 18.009 0 0 1 7.9-1.7 20.055 20.055 0 0 1 4.2.5 16.687 16.687 0 0 1 4.3 1.7l-2.5 5.4a14.039 14.039 0 0 0 -3.3-1.3 15.421 15.421 0 0 0 -3.1-.4 9.328 9.328 0 0 0 -4.5 1 11.7 11.7 0 0 0 -3.5 2.8 11.583 11.583 0 0 0 -2.2 4.1 15.756 15.756 0 0 0 -.8 4.9c0 2.6.6 4.5 1.7 5.7a6.42 6.42 0 0 0 4.9 1.8 15.1 15.1 0 0 0 7.2-1.6z"/><path d="m508.3 194.1a17.2 17.2 0 0 1 -4 1.4 21.587 21.587 0 0 1 -5.4.5 13.477 13.477 0 0 1 -5-.9 11.6 11.6 0 0 1 -3.9-2.6 11.309 11.309 0 0 1 -2.5-4.1 15.307 15.307 0 0 1 -.9-5.4 20.905 20.905 0 0 1 1.2-6.9 17.906 17.906 0 0 1 3.6-6.1 19.768 19.768 0 0 1 5.8-4.4 18.009 18.009 0 0 1 7.9-1.7 20.055 20.055 0 0 1 4.2.5 16.687 16.687 0 0 1 4.3 1.7l-2.5 5.4a14.022 14.022 0 0 0 -3.3-1.3 15.421 15.421 0 0 0 -3.1-.4 9.328 9.328 0 0 0 -4.5 1 11.7 11.7 0 0 0 -3.5 2.8 11.583 11.583 0 0 0 -2.2 4.1 15.756 15.756 0 0 0 -.8 4.9c0 2.6.6 4.5 1.7 5.7a6.421 6.421 0 0 0 4.9 1.8 15.1 15.1 0 0 0 7.2-1.6z"/><path d="m512.1 195.4 7.3-30.7h20.1l-1.4 5.7h-13.1l-1.4 6.2h11.6l-1.4 5.6h-11.6l-1.8 7.5h14.2l-1.4 5.7z"/><path d="m553.5 164.4a19.031 19.031 0 0 1 5 .6 12.128 12.128 0 0 1 3.8 1.7 9.174 9.174 0 0 1 2.4 2.8 7.462 7.462 0 0 1 .8 3.7 10.8 10.8 0 0 1 -1.3 5.6 10.337 10.337 0 0 1 -3.5 3.7 16.69 16.69 0 0 1 -5.3 2 33.756 33.756 0 0 1 -6.6.6h-1.7l-2.5 10.3h-6.9l7.2-30.2a40.11 40.11 0 0 1 4.5-.6c1.4-.1 2.8-.2 4.1-.2zm-.6 5.8h-1.3c-.4 0-.7.1-1.1.1l-2.1 9h1.7a17.95 17.95 0 0 0 3.4-.3 6.721 6.721 0 0 0 2.6-1 4.621 4.621 0 0 0 1.7-1.7 4.87 4.87 0 0 0 .6-2.5 3.013 3.013 0 0 0 -1.4-2.8 8.726 8.726 0 0 0 -4.1-.8z"/><path d="m594.7 164.7-1.4 5.8h-9l-6 24.9h-6.9l6-24.9h-9l1.4-5.8z"/><path d="m590.9 195.4 7.3-30.7h20.1l-1.4 5.7h-13.1l-1.4 6.2h11.6l-1.4 5.6h-11.6l-1.8 7.5h14.2l-1.4 5.7z"/><path d="m646.6 176.7a20.032 20.032 0 0 1 -1.5 8 16.245 16.245 0 0 1 -4.2 6 19.378 19.378 0 0 1 -6.6 3.8 26.706 26.706 0 0 1 -8.8 1.3c-1.2 0-2.7-.1-4.3-.2a35.472 35.472 0 0 1 -4.7-.7l7.1-29.6a46.249 46.249 0 0 1 4.8-.7c1.5-.1 2.9-.2 4.2-.2a18.29 18.29 0 0 1 5.9.9 12.644 12.644 0 0 1 4.4 2.5 10.538 10.538 0 0 1 2.7 3.9 11.763 11.763 0 0 1 1 5zm-22 13.2c.3 0 .7.1 1 .1h1.4a14.178 14.178 0 0 0 5.2-.9 10.478 10.478 0 0 0 3.9-2.5 11.309 11.309 0 0 0 2.5-4.1 15.307 15.307 0 0 0 .9-5.4 8.235 8.235 0 0 0 -.4-2.8 6.091 6.091 0 0 0 -1.3-2.2 5.924 5.924 0 0 0 -2.3-1.4 11.786 11.786 0 0 0 -3.5-.5 24.342 24.342 0 0 0 -2.7.1z"/><path d="m195.343 134.583c-3.673 0-7.362-.107-10.99-.351a80.611 80.611 0 0 1 -11.386-1.585v-65.086a96.649 96.649 0 0 1 10.2-1.3q5.51-.45 10.288-.442a67.123 67.123 0 0 1 11.783.945 27.72 27.72 0 0 1 9.252 3.125 16.384 16.384 0 0 1 6.067 5.869 17.253 17.253 0 0 1 2.2 8.947q0 8.047-7.759 12.682c4.283 1.585 7.164 3.826 8.7 6.569a19.109 19.109 0 0 1 2.332 9.39c0 7.057-2.592 12.331-7.713 15.867-5.217 3.632-12.817 5.37-22.974 5.37zm-7.651-41.613h7.362c4.679 0 7.956-.594 10-1.783a6.235 6.235 0 0 0 2.987-5.762c0-2.728-1.036-4.618-3.079-5.716q-3.132-1.646-9.1-1.646c-1.3 0-2.683 0-4.177.046s-2.789.107-3.978.244c-.015 0-.015 14.617-.015 14.617zm0 11.539v17.346c1.1.153 2.286.244 3.582.3s2.728.107 4.283.107a26.122 26.122 0 0 0 10.944-1.936c2.789-1.3 4.176-3.674 4.176-7.164 0-3.079-1.143-5.32-3.475-6.615-2.332-1.342-5.67-1.982-10-1.982h-9.5v-.065z"/><path d="m247.549 68.064a7.886 7.886 0 0 1 -2.591 6.265 9.193 9.193 0 0 1 -12.133 0 8.02 8.02 0 0 1 -2.591-6.265 7.886 7.886 0 0 1 2.591-6.265 8.928 8.928 0 0 1 6.066-2.286 8.8 8.8 0 0 1 6.067 2.286 7.935 7.935 0 0 1 2.591 6.265zm-1.387 65.68h-14.419v-50.971h14.419z"/><path d="m253.921 70.091 14.419-2.332v15.014h17.346v12.027h-17.346v17.894a14.478 14.478 0 0 0 1.585 7.256c1.037 1.783 3.232 2.728 6.463 2.728a27.46 27.46 0 0 0 4.771-.442 30.487 30.487 0 0 0 4.527-1.189l2.043 11.234a39.736 39.736 0 0 1 -5.823 1.844 34.469 34.469 0 0 1 -7.85.793 26.6 26.6 0 0 1 -9.8-1.585 14.691 14.691 0 0 1 -6.219-4.482 16.466 16.466 0 0 1 -3.231-6.9 42.091 42.091 0 0 1 -.945-8.994v-42.866z"/><path d="m287.729 108.274a29.968 29.968 0 0 1 1.783-10.395 24.285 24.285 0 0 1 13.413-14.268 26.706 26.706 0 0 1 11.036-2.134 34.069 34.069 0 0 1 7.454.747 37.453 37.453 0 0 1 6.569 2.089l-2.984 11.538a38.66 38.66 0 0 0 -4.482-1.341 22.674 22.674 0 0 0 -5.426-.595c-4.283 0-7.454 1.342-9.542 3.979s-3.125 6.112-3.125 10.441c0 4.573.991 8.155 2.927 10.639 1.982 2.531 5.426 3.78 10.289 3.78a32.53 32.53 0 0 0 5.624-.5 23.816 23.816 0 0 0 5.518-1.539l2.043 11.828a33.638 33.638 0 0 1 -6.311 1.844 42.812 42.812 0 0 1 -8.353.793 31.383 31.383 0 0 1 -12.026-2.088 22.723 22.723 0 0 1 -8.307-5.67 21.593 21.593 0 0 1 -4.726-8.46 42.451 42.451 0 0 1 -1.374-10.688z"/><path d="m378.513 108.182a33.588 33.588 0 0 1 -1.737 10.99 23.523 23.523 0 0 1 -5.015 8.506 22.877 22.877 0 0 1 -7.911 5.472 28.19 28.19 0 0 1 -20.532 0 22.805 22.805 0 0 1 -7.911-5.472 24.437 24.437 0 0 1 -5.121-8.506 31.157 31.157 0 0 1 -1.844-10.99 30.535 30.535 0 0 1 1.89-10.944 24.346 24.346 0 0 1 5.213-8.4 23.51 23.51 0 0 1 7.956-5.427 25.613 25.613 0 0 1 10.045-1.936 26.007 26.007 0 0 1 10.136 1.936 22.682 22.682 0 0 1 7.911 5.427 24.273 24.273 0 0 1 5.122 8.4 32.707 32.707 0 0 1 1.798 10.944zm-14.709 0c0-4.481-.9-7.956-2.682-10.486a9.519 9.519 0 0 0 -15.258 0c-1.784 2.53-2.729 6.066-2.729 10.486 0 4.482.9 8 2.729 10.594a9.366 9.366 0 0 0 15.258 0q2.677-3.956 2.678-10.594z"/><path d="m400.1 68.064a7.886 7.886 0 0 1 -2.591 6.265 9.193 9.193 0 0 1 -12.133 0 8.021 8.021 0 0 1 -2.592-6.265 7.89 7.89 0 0 1 2.592-6.265 8.928 8.928 0 0 1 6.066-2.286 8.8 8.8 0 0 1 6.067 2.286 7.939 7.939 0 0 1 2.591 6.265zm-1.341 65.68h-14.42v-50.971h14.42z"/><path d="m406.956 84.511a78.462 78.462 0 0 1 9.5-1.982 80.49 80.49 0 0 1 12.179-.945 29.43 29.43 0 0 1 10.792 1.692 16.2 16.2 0 0 1 6.813 4.771 18.562 18.562 0 0 1 3.582 7.362 39.751 39.751 0 0 1 1.037 9.5v28.791h-14.42v-27.057c0-4.679-.594-7.957-1.844-9.892s-3.536-2.881-6.859-2.881c-1.037 0-2.134.045-3.277.152s-2.195.2-3.079.351v39.327h-14.42v-49.189z"/><path d="m490.287 135.086c-10.944 0-19.236-3.034-24.952-9.1s-8.551-14.664-8.551-25.852a39.88 39.88 0 0 1 2.637-14.861 31.663 31.663 0 0 1 7.164-11.036 30.126 30.126 0 0 1 10.838-6.813 39.308 39.308 0 0 1 13.677-2.332 41.95 41.95 0 0 1 7.759.64 45.924 45.924 0 0 1 6.112 1.448 30.287 30.287 0 0 1 4.375 1.692c1.143.594 1.981 1.036 2.53 1.341l-4.376 12.179a35.7 35.7 0 0 0 -7.21-2.789 33.743 33.743 0 0 0 -9.343-1.144 21.121 21.121 0 0 0 -6.814 1.144 16.031 16.031 0 0 0 -5.914 3.734 19.155 19.155 0 0 0 -4.131 6.615 27.948 27.948 0 0 0 -1.539 9.893 37.328 37.328 0 0 0 .991 8.658 18.969 18.969 0 0 0 3.277 6.9 15.914 15.914 0 0 0 5.96 4.619 20.938 20.938 0 0 0 8.9 1.692 42.7 42.7 0 0 0 5.914-.4 35.327 35.327 0 0 0 4.68-.945 26.893 26.893 0 0 0 3.582-1.189c1.036-.442 1.981-.9 2.789-1.25l4.177 12.133a35.37 35.37 0 0 1 -8.993 3.475 53.51 53.51 0 0 1 -13.539 1.548z"/><path d="m535.436 81.432a33.881 33.881 0 0 1 10.639 1.448 15.828 15.828 0 0 1 6.814 4.176 15.434 15.434 0 0 1 3.627 6.57 32.947 32.947 0 0 1 1.037 8.6v30.028c-2.088.442-4.923.99-8.6 1.585a84.835 84.835 0 0 1 -13.368.945 41.127 41.127 0 0 1 -8.947-.9 20.053 20.053 0 0 1 -6.9-2.835 13.354 13.354 0 0 1 -4.481-5.167 17.788 17.788 0 0 1 -1.54-7.85 14.953 14.953 0 0 1 1.784-7.56 13.324 13.324 0 0 1 4.771-4.923 20.929 20.929 0 0 1 6.859-2.683 38.728 38.728 0 0 1 8.048-.839c1.89 0 3.536.107 4.969.244a18.3 18.3 0 0 1 3.536.641v-1.342a8.017 8.017 0 0 0 -2.241-5.914c-1.493-1.494-4.069-2.241-7.758-2.241a50.049 50.049 0 0 0 -7.255.549 30.278 30.278 0 0 0 -6.219 1.494l-1.845-11.63c.839-.244 1.89-.549 3.125-.838s2.637-.549 4.131-.793 3.033-.4 4.679-.595c1.751-.064 3.443-.17 5.135-.17zm1.143 42.206c1.448 0 2.789-.045 4.07-.106a19.747 19.747 0 0 0 3.079-.3v-10.949a26.094 26.094 0 0 0 -2.637-.4 24.424 24.424 0 0 0 -3.186-.2 33.521 33.521 0 0 0 -3.826.244 8.45 8.45 0 0 0 -3.124.945 5.327 5.327 0 0 0 -2.134 1.845 5.239 5.239 0 0 0 -.793 2.88c0 2.241.747 3.826 2.286 4.68a11.8 11.8 0 0 0 6.265 1.361z"/><path d="m579.975 123.4a13.818 13.818 0 0 0 5.624-.793 2.993 2.993 0 0 0 1.646-2.988 3.614 3.614 0 0 0 -2.134-3.033 37.816 37.816 0 0 0 -6.508-2.926 57.612 57.612 0 0 1 -6.158-2.637 17.318 17.318 0 0 1 -4.68-3.232 12.948 12.948 0 0 1 -2.987-4.527 16.822 16.822 0 0 1 -1.037-6.31 13.694 13.694 0 0 1 5.32-11.341q5.3-4.184 14.618-4.176a48.147 48.147 0 0 1 8.9.838 41.171 41.171 0 0 1 6.768 1.783l-2.53 11.234a46.966 46.966 0 0 0 -5.472-1.539 30.284 30.284 0 0 0 -6.616-.7c-4.527 0-6.767 1.249-6.767 3.78a3.7 3.7 0 0 0 .3 1.539 3.431 3.431 0 0 0 1.144 1.3 15.4 15.4 0 0 0 2.394 1.328 33.675 33.675 0 0 0 3.826 1.585 60.781 60.781 0 0 1 7.85 3.476 19.409 19.409 0 0 1 4.877 3.673 11.781 11.781 0 0 1 2.53 4.375 18.734 18.734 0 0 1 .747 5.624c0 5.015-1.89 8.856-5.67 11.387-3.78 2.591-9.1 3.871-16 3.871a47.317 47.317 0 0 1 -11.279-1.143 57.334 57.334 0 0 1 -6.265-1.936l2.439-11.737a49.131 49.131 0 0 0 7.56 2.287 31.129 31.129 0 0 0 7.56.938z"/><path d="m606.985 133.744v-72.844l14.415-2.332v24.419a33.79 33.79 0 0 1 3.734-.946 22.632 22.632 0 0 1 4.421-.442 26.807 26.807 0 0 1 10.289 1.692 16.357 16.357 0 0 1 6.569 4.771 18.81 18.81 0 0 1 3.475 7.362 39.835 39.835 0 0 1 .991 9.5v28.793h-14.415v-27.074c0-4.679-.6-7.957-1.784-9.892s-3.429-2.881-6.615-2.881a17.271 17.271 0 0 0 -3.628.35 27.728 27.728 0 0 0 -3.033.747v38.733h-14.419z"/><path d="m125.3 136a47.275 47.275 0 0 0 0-77.428h35.53v77.428z"/><path d="m50.925 97.279a47.2 47.2 0 0 0 20.145 38.709h-35.57v-77.416h35.57a47.194 47.194 0 0 0 -20.145 38.707z"/><path d="m102.367 91.385.024-.035.014-.015.017-.022.007-.013.017-.023.007-.011.017-.023.008-.013.017-.022.007-.012.014-.02.006-.013.015-.021.006-.012.016-.02.007-.012.014-.022.007-.011.014-.021.006-.012.016-.021.006-.012.015-.021.007-.012.015-.021.006-.012.011-.019.007-.012.012-.019.006-.012.011-.019.007-.012.011-.019v-.01l.011-.02v-.01l.011-.018v-.01l.012-.019v-.011l.011-.019v-.01l.011-.019v-.01l.008-.018v-.008l.011-.018.014-.029.028-.062a3.566 3.566 0 0 0 .233-2.185v-.009a.32.32 0 0 1 -.015-.061l-.01-.019a.514.514 0 0 0 -.018-.095c-.007-.03-.016-.054-.024-.086l-.011-.02-.019-.055v-.01a3.556 3.556 0 0 0 -1.259-1.8c-.019-.011-.036-.027-.055-.038l-.026-.015-.019-.012h-.007l-.015-.013h-.009l-.014-.028h-.007l-.019-.011h-.006l-.019-.012h-.007l-.02-.011-.008-.008-.019-.011-.012-.006-.019-.011-.011-.014-.019-.011-.011-.007-.023-.007-.013-.007-.019-.011-.012-.006-.02-.015-.012-.006-.022-.014-.012-.008-.02-.014-.012-.007-.025-.012-.012-.007-.024-.016v-.025l-.025-.012-.012-.006-.024-.013-.012-.007-.029-.016-.012-.006-.024-.014-.011-.006-.025-.013-.009-.006-.024-.013-.012-.006-.025-.013-.017-.009-.04-.016a6.2 6.2 0 0 0 -4.194-.325c-.958.249-3.862.978-4.562 1.159l2.165 8.373c.7-.181 3.6-.941 4.563-1.186a6.183 6.183 0 0 0 3.513-2.307z"/><path d="m108.245 100.772a.314.314 0 0 0 -.015-.066l-.011-.02c0-.047 0-.083-.012-.086-.009-.035-.017-.064-.024-.095l-.011-.02-.021-.061-.007-.014a3.663 3.663 0 0 0 -1.439-1.926c-.021-.014-.045-.027-.065-.042l-.028-.019-.021-.016-.012-.006-.019-.012-.012-.006-.021-.015-.012-.006-.02-.015-.013-.006-.02-.015-.012-.007-.021-.015-.013-.006-.02-.015-.012-.006-.03-.033-.013-.007-.024-.013-.012-.006-.023-.013-.013-.006-.024-.013-.012-.006-.024-.014-.013-.006-.024-.013-.012-.006-.023-.013-.013-.006-.024-.013-.012-.006-.024-.013-.013-.007-.029-.014-.012-.006-.028-.014-.013-.007-.029-.014-.012-.007-.03-.014h-.015l-.029-.014h-.015l-.03-.014h-.015l-.032-.013-.023-.009-.044-.02a7.811 7.811 0 0 0 -4.937-.252c-1.137.293-4.578 1.158-5.411 1.374l2.332 9.092c.835-.213 4.267-1.11 5.4-1.4a7.789 7.789 0 0 0 4.2-2.6l.032-.037.016-.017.019-.029.01-.013.02-.028.009-.014.02-.028.009-.013.021-.027.009-.015.02-.027.009-.014.016-.027.01-.013.016-.026.006-.012.016-.026.007-.012.015-.026.006-.011.019-.024.006-.012.018-.022.006-.012.015-.021.006-.012.015-.021.008-.012.014-.02.006-.013.015-.021.006-.011.014-.021.007-.013.015-.02.007-.012.015-.021.006-.011.016-.022.006-.012.014-.02.008-.012.011-.02.006-.012.011-.019.007-.012.012-.024.018-.031.037-.067a3.663 3.663 0 0 0 .332-2.388z"/><path d="m98.168 58.579a38.682 38.682 0 1 0 38.68 38.683 38.68 38.68 0 0 0 -38.678-38.683zm17.872 45.494c-.016.043-.036.084-.055.129l-.026.057-.019.044-.008.018-.017.039-.012.019-.017.039-.011.019-.021.042-.011.019-.021.041-.011.019-.021.042-.011.019-.021.04-.011.02-.021.041-.011.019-.02.041-.011.023-.024.043-.009.022-.024.043-.013.024-.024.044-.013.024-.024.043-.013.024-.027.045-.013.024-.027.045-.014.024-.025.049-.012.023-.027.049-.012.024-.029.05-.012.024-.03.05-.013.024-.028.05-.015.026-.03.05-.016.026-.032.052-.016.025-.032.052-.024.034-.051.074a11.954 11.954 0 0 1 -7 4.792l-1.712.444 1.778 6.921-4.114 1.058-1.774-6.894-3.293.844 1.772 6.895-4.112 1.058-1.794-6.877-8.48 2.179-.176-5.222 3-.771a1.42 1.42 0 0 0 1.014-1.724l-4.747-18.461a2.117 2.117 0 0 0 -2.578-1.52l-3.421.879-1.13-4.391 8.49-2.185-1.771-6.894 4.117-1.055 1.776 6.868 3.293-.844-1.774-6.89 4.116-1.056 1.777 6.918.7-.181a10.61 10.61 0 0 1 7.5.736l.072.038.034.015.049.026.023.013.049.025.024.013.045.028.024.012.045.027.02.015.043.024.021.014.043.024.021.016.042.023.02.011.042.024.02.012.039.026.019.011.04.025.019.012.039.023.018.011.038.022.021.012.038.023.018.012.039.022.019.011.035.025.018.011.034.024.02.011.034.025.015.013.036.024.015.013.035.025.015.013.031.019.015.013.03.024.015.013.029.022.016.013.035.025.043.032c.031.028.067.052.1.077a7.029 7.029 0 0 1 2.3 3.439l.034.111v.008l.02.036c.016.052.033.108.044.162s.028.109.04.163l.017.029v.008c.011.038.019.076.027.115v.007a7.007 7.007 0 0 1 -.357 4.12c-.018.04-.031.078-.048.117l-.025.052-.017.039-.008.018-.015.034-.008.017-.016.034-.008.017-.015.034-.008.018-.019.036-.009.017-.019.036-.008.017-.019.037-.008.017-.02.035-.011.02-.019.036-.011.018-.022.039-.012.019-.022.038-.011.019-.021.042-.011.018-.021.041-.012.02-.02.04-.011.019-.025.044-.011.018-.024.044-.011.018-.025.044-.014.02-.024.044-.014.02-.028.044-.016.022-.027.044-.015.022-.027.044-.014.021-.029.045-.014.02-.027.045-.021.033-.046.067a9.929 9.929 0 0 1 -.946 1.189 11.026 11.026 0 0 1 3.531 1.115c.027.016.054.027.081.044l.036.019.053.027.026.016.053.028.026.015.05.028.026.017.05.028.024.013.05.029.024.013.05.028.024.013.049.026.023.013.046.027.024.013.045.028.02.014.046.027.02.015.045.027.021.015.045.028.021.014.041.029.021.015.039.026.022.014.039.026.021.014.04.027.02.014.024.035.019.012.039.025.055.081.037.027.019.012.036.027.016.013.034.024.015.014.035.024.015.013.036.028.051.037c.037.028.074.059.111.086a7.914 7.914 0 0 1 2.583 3.865v.007c.015.044.025.086.038.126l.021.04c0 .071.012.135.011.171.018.058.03.121.047.182l.007.013v.009c.01.041.019.084.029.126a7.912 7.912 0 0 1 -.35 4.732z"/></g></svg>