<svg viewBox="0 0 962.02 594.313" xmlns="http://www.w3.org/2000/svg"><g fill="#f7941d"><path d="m689.315 594.313c93.5-65.6 154.6-174.2 154.6-297.106s-61.098-231.607-154.6-297.207h272.7v594.313z"/><path d="m118.4 297.107c0 122.9 61.1 231.5 154.6 297.106h-273v-594.213h273.006c-93.506 65.6-154.606 174.2-154.606 297.107z"/><circle cx="481.01" cy="296.963" r="296.905"/></g><path d="m620.266 309.3-.165-.307-.028-.051c-.1-.309-.175-.632-.289-.966l-.014-.026-.014-.026-.014-.026-.014-.026-.014-.026-.014-.026-.028-.051a60.65 60.65 0 0 0 -19.831-29.671l-.014-.026c-.279-.213-.572-.451-.852-.663l-.386-.287-.279-.212-.12-.1-.266-.187-.12-.1-.266-.187-.12-.1-.279-.212-.146-.087-.279-.212-.146-.087-.3-.2-.146-.087-.177-.268-.159-.112-.3-.2-.159-.112-.305-.2-.159-.112-.3-.2-.159-.112-.319-.224-.159-.112-.344-.211-.159-.112-.344-.211-.159-.112-.344-.211-.159-.112-.344-.211-.185-.1-.344-.211-.185-.1-.37-.2-.185-.1-.384-.222-.185-.1-.384-.222-.185-.1-.384-.222-.2-.124-.384-.222-.2-.124-.409-.209-.2-.124-.409-.209-.277-.148-.014-.026c-.2-.124-.409-.209-.608-.333a84.659 84.659 0 0 0 -27.11-8.566 75.8 75.8 0 0 0 7.263-9.122l.348-.517.026-.014.161-.252.211-.344.112-.159.211-.344.112-.159.211-.344.112-.159.211-.344.112-.159.211-.344.112-.159.185-.331.112-.159.185-.331.087-.146.185-.331.087-.146.185-.331.087-.146.159-.317.087-.146.159-.317.087-.146.159-.317.087-.146.172-.291.087-.146.173-.291.087-.146.148-.277.087-.146.148-.277.061-.132.148-.277.061-.132.148-.277.061-.132.148-.277.061-.132.122-.264.061-.132.122-.264.061-.132.122-.264.061-.132.134-.3.183-.4c.134-.3.242-.592.376-.895l.026-.014a53.867 53.867 0 0 0 2.737-31.626l-.014-.026-.028-.051-.014-.026-.014-.026-.014-.026-.014-.026-.014-.026-.014-.026c-.061-.3-.122-.594-.208-.878v-.065l-.014-.026-.014-.026-.014-.026.014.026-.124-.23c-.09-.413-.181-.826-.311-1.251-.09-.413-.22-.838-.336-1.238l-.151-.281-.028-.051c-.087-.283-.173-.567-.26-.85l-.014-.026-.014-.026-.014-.026-.014-.026-.014-.026-.014-.026-.013-.026a53.88 53.88 0 0 0 -17.641-26.4l-.013-.026c-.24-.2-.506-.388-.746-.588l-.332-.25-.266-.187-.12-.1-.226-.175-.12-.1-.226-.175-.12-.1-.252-.161-.12-.1-.266-.187-.12-.1-.266-.187-.12-.1-.266-.187-.146-.087-.266-.187-.146-.087-.266-.187-.146-.087-.291-.173-.146-.087-.291-.173-.146-.087-.291-.173-.146-.087-.291-.173-.146-.087-.305-.2-.146-.087-.305-.2-.146-.087-.331-.185-.146-.087-.33-.185-.159-.112-.331-.185-.159-.112-.33-.185-.159-.112-.344-.211-.185-.1-.344-.211-.185-.1-.37-.2-.185-.1-.37-.2-.264-.122-.014-.026-.555-.3c-16.214-8.427-36.813-10.964-57.538-5.647l-5.391 1.384-13.636-53.1-31.6 8.1 13.591 52.89-25.286 6.518-13.6-52.721-31.6 8.1 13.591 52.89-65.167 16.769 8.671 33.7 26.258-6.744a16.25 16.25 0 0 1 19.8 11.711l36.447 141.817a10.857 10.857 0 0 1 -7.8 13.206l-23.008 5.919 1.352 40.08 65.09-16.727 13.766 52.794 31.584-8.127-13.6-52.916 25.278-6.481 13.605 52.915 31.584-8.127-13.651-53.122c5.352-1.4 9.956-2.588 13.141-3.412 23.356-6.007 42.243-19.7 53.672-36.775l.386-.57.026-.014.187-.266.248-.4.124-.2.248-.4.124-.2.222-.384.124-.2.222-.384.1-.185.222-.384.1-.185.222-.384.1-.185.2-.37.1-.185.2-.37.1-.185.211-.344.1-.185.211-.344.1-.185.185-.331.1-.185.185-.33.1-.185.185-.33.073-.171.185-.33.073-.171.159-.317.087-.146.159-.317.087-.146.159-.317.087-.146.159-.317.087-.146.159-.317.087-.146.159-.317.087-.146.134-.3.087-.146.134-.3.061-.132.146-.342.2-.435c.146-.342.3-.659.425-.988l.012-.039a60.716 60.716 0 0 0 3.086-35.574l-.014-.026-.014-.026-.014-.026-.014-.026-.014-.026-.014-.026-.014-.026-.014-.026c-.075-.323-.149-.645-.224-.968v-.065l-.014-.026-.014-.026-.014-.026-.014-.026-.014-.026-.014-.026-.014-.026-.014-.026-.014-.026-.014-.026-.014-.026-.014-.026-.014-.026-.055-.1c-.118-.464-.21-.942-.354-1.393-.048-.269-.115-.761-.144-1.301zm-185.661-94.871c5.391-1.384 27.681-6.982 35.031-8.893 11.685-2.991 23.2-1.83 32.19 2.5l.3.134.132.061.185.1.092.049.185.1.092.049.185.1.092.049.185.1.092.049.185.1.092.049.185.1.092.049.185.1.092.049.185.1.092.049.185.1.092.049.159.112.092.049.159.112.092.049.159.112.092.049.146.087.092.049.146.087.092.049.146.087.092.049.146.087.092.049.146.087.067.063.146.087.053.037.146.087.053.037.146.087.053.037.146.087.053.037.12.1.053.037.146.087.2.124c.146.087.279.213.425.3a27.251 27.251 0 0 1 9.658 13.836l.041.077c.043.142.1.309.143.451l.014.026.083.153c.059.232.13.425.189.657a3.953 3.953 0 0 1 .126.724l.083.153.014.026a2.2 2.2 0 0 0 .118.464l.041.077a27.341 27.341 0 0 1 -1.8 16.768l-.207.474-.11.224-.087.146-.024.079-.061.132-.024.079-.087.146-.024.079-.087.146-.024.079-.087.146-.024.079-.087.146-.024.079-.087.146-.024.079-.087.146-.049.092-.087.146-.049.092-.087.146-.049.092-.087.146-.049.092-.112.159-.049.092-.112.159-.049.092-.112.159-.049.092-.112.159-.049.092-.112.159-.049.092-.112.159-.049.092-.112.159-.049.092-.112.159-.049.092-.138.173-.049.092-.138.173-.049.092-.138.173-.049.092-.138.173-.1.12-.187.266c-5.811 8.142-15.334 14.72-27.019 17.711-7.364 1.886-29.6 7.716-34.986 9.1zm123.512 108.723.083.153.014.026c.031.181.075.323.106.5l.014.026.014.026.014.026.014.026a28.087 28.087 0 0 1 -2.541 18.324l-.283.515-.136.238-.1.185-.049.092-.087.146-.049.092-.087.146-.049.092-.112.159-.049.092-.112.159-.049.092-.112.159-.049.092-.112.159-.049.092-.112.159-.049.092-.112.159-.049.092-.112.159-.049.092-.112.159-.049.092-.112.159-.049.092-.138.173-.049.092-.138.173-.049.092-.124.2-.049.092-.124.2-.049.092-.124.2-.075.106-.124.2-.075.106-.15.212-.075.106-.15.212-.075.106-.15.212-.075.106-.151.212-.075.106-.15.212-.126.134-.238.293c-7.057 9.012-18.44 16.425-32.265 19.974-8.719 2.251-35.063 9.141-41.473 10.777l-17.935-69.785c6.4-1.662 32.814-8.294 41.532-10.545 13.826-3.549 27.4-2.542 37.891 1.938l.342.146.171.073.25.1.118.035.224.11.118.035.224.11.118.035.224.11.092.049.224.11.092.049.224.11.092.049.224.11.092.049.185.1.092.049.185.1.092.049.185.1.092.049.185.1.092.049.185.1.092.049.185.1.092.049.185.1.092.049.185.1.092.049.185.1.092.049.159.112.092.049.159.112.092.049.159.112.092.049.159.112.092.049.159.112.092.049.146.087.092.049.159.112.212.15c.159.112.344.211.5.323a28.172 28.172 0 0 1 11.053 14.834l.055.1c.057.167.1.309.157.476l.014.026.083.153c.059.232.118.464.191.722.129.057.15.342.109.694z" fill="#fff"/></svg>