<svg id="Layer_1" data-name="Layer 1" xmlns="http://www.w3.org/2000/svg" viewBox="0 0 4023.294 505.311"><defs><style>.cls-1{fill:#4d4d4d;}.cls-2{fill:#f7941d;}.cls-3{fill:#fff;}</style></defs><title>6-bitcoin-cash-logo-horizontal</title><path class="cls-1" d="M1034.694,498.7c-24.1,0-48.3-.7-72.1-2.3a528.933,528.933,0,0,1-74.7-10.4V59c20.2-3.9,42.7-6.5,66.9-8.5,24.1-2,46.6-2.9,67.5-2.9,28.1,0,53.8,2,77.3,6.2,23.5,3.9,43.7,10.8,60.7,20.5,17,9.8,30.3,22.5,39.8,38.5s14.4,35.6,14.4,58.7q0,52.8-50.9,83.2c28.1,10.4,47,25.1,57.1,43.1,10.1,18.3,15.3,38.8,15.3,61.6,0,46.3-17,80.9-50.6,104.1C1151.194,487.3,1101.294,498.7,1034.694,498.7Zm-50.2-273h48.3c30.7,0,52.2-3.9,65.6-11.7,13-7.8,19.6-20.5,19.6-37.8,0-17.9-6.8-30.3-20.2-37.5q-20.55-10.8-59.7-10.8c-8.5,0-17.6,0-27.4.3s-18.3.7-26.1,1.6c-.1,0-.1,95.9-.1,95.9Zm0,75.7V415.2c7.2,1,15,1.6,23.5,2s17.9.7,28.1.7c29.7,0,53.5-4.2,71.8-12.7s27.4-24.1,27.4-47c0-20.2-7.5-34.9-22.8-43.4-15.3-8.8-37.2-13-65.6-13h-62.3v-.4Z"/><path class="cls-1" d="M1377.194,62.3c0,17.3-5.5,31-17,41.1-11.1,10.1-24.5,15-39.8,15a57.728,57.728,0,0,1-39.8-15c-11.1-10.1-17-23.5-17-41.1,0-17.3,5.5-31,17-41.1a58.6,58.6,0,0,1,39.8-15,57.728,57.728,0,0,1,39.8,15C1371.594,31.3,1377.194,45,1377.194,62.3Zm-9.1,430.9h-94.6V158.8h94.6Z"/><path class="cls-1" d="M1418.994,75.6l94.6-15.3v98.5h113.8v78.9h-113.8V355.1c0,19.9,3.6,35.9,10.4,47.6s21.2,17.9,42.4,17.9a180.538,180.538,0,0,0,31.3-2.9,200.671,200.671,0,0,0,29.7-7.8l13.4,73.7a260.423,260.423,0,0,1-38.2,12.1c-14,3.3-31,5.2-51.5,5.2-25.8,0-47.3-3.6-64.3-10.4s-30.7-16.6-40.8-29.4c-10.1-12.4-17.3-27.7-21.2-45.3a276.1,276.1,0,0,1-6.2-59V75.6Z"/><path class="cls-1" d="M1640.794,326.1a196.631,196.631,0,0,1,11.7-68.2,161.149,161.149,0,0,1,33.9-55.8c14.7-16,32.9-28.4,54.1-37.8,21.2-9.5,45.3-14,72.4-14,17.9,0,34.2,1.6,48.9,4.9a245.713,245.713,0,0,1,43.1,13.7l-19.6,75.7a252.083,252.083,0,0,0-29.4-8.8,148.666,148.666,0,0,0-35.6-3.9c-28.1,0-48.9,8.8-62.6,26.1s-20.5,40.1-20.5,68.5c0,30,6.5,53.5,19.2,69.8,13,16.6,35.6,24.8,67.5,24.8a213.934,213.934,0,0,0,36.9-3.3,156.681,156.681,0,0,0,36.2-10.1l13.4,77.6a221.155,221.155,0,0,1-41.4,12.1,280.992,280.992,0,0,1-54.8,5.2c-30.7,0-56.8-4.6-78.9-13.7-22.2-9.1-40.1-21.5-54.5-37.2s-24.5-34.2-31-55.5A278.633,278.633,0,0,1,1640.794,326.1Z"/><path class="cls-1" d="M2236.394,325.5c0,26.4-3.9,50.2-11.4,72.1s-18.6,40.4-32.9,55.8a150,150,0,0,1-51.9,35.9c-20.3,8.5-42.7,12.7-67.5,12.7-24.5,0-47-4.2-67.2-12.7a149.6,149.6,0,0,1-51.9-35.9c-14.4-15.3-25.8-34.2-33.6-55.8-8.2-21.9-12.1-46-12.1-72.1,0-26.4,4.2-50.2,12.4-71.8,8.2-21.5,19.6-40.1,34.2-55.1a154.293,154.293,0,0,1,52.2-35.6c20.2-8.5,42.1-12.7,65.9-12.7q36.15,0,66.5,12.7c20.2,8.5,37.5,20.2,51.9,35.6a159.168,159.168,0,0,1,33.6,55.1C2232.194,275.3,2236.394,299.1,2236.394,325.5Zm-96.5,0c0-29.4-5.9-52.2-17.6-68.8s-28.4-25.1-49.9-25.1-38.5,8.5-50.2,25.1-17.9,39.8-17.9,68.8c0,29.4,5.9,52.5,17.9,69.5,11.7,17.3,28.7,25.8,50.2,25.8s38.2-8.5,49.9-25.8S2139.894,354.5,2139.894,325.5Z"/><path class="cls-1" d="M2377.994,62.3c0,17.3-5.5,31-17,41.1-11.1,10.1-24.5,15-39.8,15a57.728,57.728,0,0,1-39.8-15c-11.1-10.1-17-23.5-17-41.1,0-17.3,5.5-31,17-41.1a58.6,58.6,0,0,1,39.8-15,57.728,57.728,0,0,1,39.8,15C2372.394,31.3,2377.994,45,2377.994,62.3Zm-8.8,430.9h-94.6V158.8h94.6Z"/><path class="cls-1" d="M2422.994,170.2c16-4.6,36.9-9.1,62.3-13a527.122,527.122,0,0,1,79.9-6.2c28.4,0,51.9,3.6,70.8,11.1s33.9,17.9,44.7,31.3c11.1,13.7,18.9,29.7,23.5,48.3s6.8,39.5,6.8,62.3V492.9h-94.6V315.4c0-30.7-3.9-52.2-12.1-64.9s-23.2-18.9-45-18.9c-6.8,0-14,.3-21.5,1s-14.4,1.3-20.2,2.3v258h-94.6V170.2Z"/><path class="cls-2" d="M2969.694,502c-71.8,0-126.2-19.9-163.7-59.7s-56.1-96.2-56.1-169.6c0-36.5,5.9-68.8,17.3-97.5s27.1-52.8,47-72.4a197.591,197.591,0,0,1,71.1-44.7c27.4-10.1,57.4-15.3,89.7-15.3,18.6,0,35.6,1.3,50.9,4.2a301.341,301.341,0,0,1,40.1,9.5,199.061,199.061,0,0,1,28.7,11.1c7.5,3.9,13,6.8,16.6,8.8l-28.7,79.9a234.42,234.42,0,0,0-47.3-18.3c-17.9-5.2-38.5-7.5-61.3-7.5a138.422,138.422,0,0,0-44.7,7.5,105.242,105.242,0,0,0-38.8,24.5c-11.1,11.1-20.2,25.8-27.1,43.4-6.8,17.9-10.1,39.5-10.1,64.9a245.123,245.123,0,0,0,6.5,56.8c4.6,17.6,11.7,32.6,21.5,45.3a104.556,104.556,0,0,0,39.1,30.3c16,7.5,35.6,11.1,58.4,11.1a279.9,279.9,0,0,0,38.8-2.6,230.678,230.678,0,0,0,30.7-6.2,174.788,174.788,0,0,0,23.5-7.8c6.8-2.9,13-5.9,18.3-8.2l27.4,79.6c-14,8.5-33.6,16-59,22.8C3032.594,498.7,3002.994,502,2969.694,502Z"/><path class="cls-2" d="M3265.894,150c28.1,0,51.2,3.3,69.8,9.5s33.6,15.3,44.7,27.4a101.144,101.144,0,0,1,23.8,43.1c4.6,17,6.8,35.9,6.8,56.4v197c-13.7,2.9-32.3,6.5-56.4,10.4s-53.5,6.2-87.7,6.2q-32.25,0-58.7-5.9c-17.6-3.9-32.6-10.1-45.3-18.6a87.636,87.636,0,0,1-29.4-33.9c-6.8-14-10.1-31-10.1-51.5,0-19.6,3.9-35.9,11.7-49.6a87.474,87.474,0,0,1,31.3-32.3c13-8.2,28.1-14,45-17.6a254.244,254.244,0,0,1,52.8-5.5c12.4,0,23.2.7,32.6,1.6,9.5,1,17.3,2.3,23.2,4.2v-8.8c0-16-4.9-29-14.7-38.8s-26.7-14.7-50.9-14.7a327.334,327.334,0,0,0-47.6,3.6c-15.7,2.3-29.4,5.5-40.8,9.8l-12.1-76.3c5.5-1.6,12.4-3.6,20.5-5.5,8.2-2,17.3-3.6,27.1-5.2s19.9-2.6,30.7-3.9C3243.694,150.7,3254.794,150,3265.894,150Zm7.5,276.9c9.5,0,18.3-.3,26.7-.7a128.662,128.662,0,0,0,20.2-2V352.4c-3.9-1-9.5-1.6-17.3-2.6a159.089,159.089,0,0,0-20.9-1.3,219.381,219.381,0,0,0-25.1,1.6c-7.8,1-14.7,2.9-20.5,6.2a34.993,34.993,0,0,0-14,12.1,34.4,34.4,0,0,0-5.2,18.9c0,14.7,4.9,25.1,15,30.7C3242.394,424.3,3256.094,426.9,3273.394,426.9Z"/><path class="cls-2" d="M3558.094,425.3c17.3,0,29.7-1.6,36.9-5.2,7.2-3.3,10.8-10.1,10.8-19.6,0-7.5-4.6-14.4-14-19.9-9.5-5.9-23.5-12.1-42.7-19.2-14.7-5.5-28.4-11.1-40.4-17.3-12.1-5.9-22.5-13-30.7-21.2a85.057,85.057,0,0,1-19.6-29.7c-4.6-11.4-6.8-25.1-6.8-41.4,0-31.3,11.7-56.1,34.9-74.4s55.1-27.4,95.9-27.4a316.2,316.2,0,0,1,58.4,5.5c18.6,3.6,33.6,7.5,44.4,11.7l-16.6,73.7a308.311,308.311,0,0,0-35.9-10.1,198.592,198.592,0,0,0-43.4-4.6c-29.7,0-44.4,8.2-44.4,24.8a24.249,24.249,0,0,0,2,10.1,22.46,22.46,0,0,0,7.5,8.5,101.106,101.106,0,0,0,15.7,8.8,221.7,221.7,0,0,0,25.1,10.4c20.9,7.8,37.8,15.3,51.5,22.8s24.1,15.7,32,24.1a77.486,77.486,0,0,1,16.6,28.7c3.3,10.4,4.9,22.8,4.9,36.9,0,32.9-12.4,58.1-37.2,74.7-24.8,17-59.7,25.4-105,25.4-29.7,0-54.5-2.6-74-7.5-19.6-5.2-33.3-9.5-41.1-12.7l16-77a322.693,322.693,0,0,0,49.6,15A204.121,204.121,0,0,0,3558.094,425.3Z"/><path class="cls-2" d="M3735.294,493.2V15.3l94.6-15.3V160.2a219.739,219.739,0,0,1,24.5-6.2,147.719,147.719,0,0,1,29-2.9c27.1,0,49.6,3.6,67.5,11.1s32.3,17.9,43.1,31.3c10.8,13.7,18.3,29.7,22.8,48.3,4.6,18.6,6.5,39.5,6.5,62.3V493h-94.6V315.4c0-30.7-3.9-52.2-11.7-64.9s-22.5-18.9-43.4-18.9a113.032,113.032,0,0,0-23.8,2.3c-7.5,1.6-14,2.9-19.9,4.9V492.9h-94.6Z"/><path class="cls-2" d="M579.165,505.311c137.89-96.645,171.326-286.773,74.682-424.663A304.908,304.908,0,0,0,579.165,5.967H808.294V505.311Z"/><path class="cls-2" d="M99.483,255.6a304.34,304.34,0,0,0,129.9,249.635H0V5.967H229.38A304.343,304.343,0,0,0,99.483,255.6Z"/><circle class="cls-2" cx="404.148" cy="255.475" r="249.461"/><path class="cls-3" d="M521.151,265.838l-.139-.258-.023-.043c-.085-.26-.147-.531-.243-.812l-.011-.021-.013-.022-.011-.022-.011-.023-.012-.021-.012-.022-.023-.042a50.958,50.958,0,0,0-16.662-24.931l-.012-.022c-.235-.178-.481-.378-.715-.558l-.324-.241-.235-.178-.1-.085-.222-.156-.1-.085-.223-.157-.1-.085-.234-.179-.123-.072-.235-.179-.123-.072-.256-.167-.123-.072-.15-.225-.134-.094-.256-.168-.134-.093-.257-.168-.134-.094-.257-.166-.133-.095-.268-.188-.134-.095-.29-.177-.133-.094-.29-.176-.134-.095-.289-.176-.134-.094-.29-.178-.156-.081-.289-.177-.156-.083-.31-.165-.157-.083-.321-.186-.157-.082-.323-.187-.155-.082-.323-.187-.166-.1-.323-.186-.166-.1-.344-.176-.167-.1-.343-.175-.233-.124-.012-.021c-.166-.1-.343-.176-.511-.281a71.136,71.136,0,0,0-22.778-7.2,63.7,63.7,0,0,0,6.1-7.666l.293-.435.022-.012.136-.212.177-.289.1-.133.176-.291.094-.133.176-.289.1-.134.177-.29.094-.134.177-.289.094-.135.156-.277.094-.134.156-.277.072-.123.156-.277.073-.122.155-.277.073-.123.134-.267.071-.122.135-.266.072-.122.134-.266.072-.123.146-.244.073-.123.145-.246.073-.121.124-.233.072-.123.124-.232.052-.111.124-.233.051-.111.124-.232.052-.11.124-.233.051-.111.1-.221.052-.111.1-.222.052-.111.1-.221.051-.111.113-.255.153-.332c.113-.254.2-.5.316-.752l.022-.012a45.256,45.256,0,0,0,2.3-26.573l-.012-.022-.023-.043-.012-.021-.013-.023-.012-.022-.012-.022-.012-.021-.012-.022a7.231,7.231,0,0,0-.175-.738v-.054l-.013-.022-.012-.023-.012-.022.012.022-.1-.192c-.076-.347-.153-.695-.262-1.051-.075-.347-.185-.706-.283-1.04l-.127-.236-.023-.044c-.072-.238-.146-.476-.218-.714l-.012-.021-.013-.022-.012-.022-.012-.022-.012-.022-.012-.022-.012-.022a45.265,45.265,0,0,0-14.821-22.179l-.012-.022c-.2-.168-.424-.326-.626-.494l-.28-.21-.223-.157-.1-.084-.19-.147-.1-.085-.189-.147-.1-.084-.195-.128-.1-.085-.223-.157-.1-.084-.223-.157-.1-.085-.223-.156-.123-.073-.223-.156-.121-.073-.223-.157-.123-.073-.245-.145-.122-.073-.246-.146-.123-.071-.244-.147-.123-.072-.245-.147-.122-.071-.257-.168-.123-.071-.256-.168-.123-.072-.278-.156-.123-.072-.277-.156-.134-.094-.278-.156-.134-.095-.277-.155-.134-.095-.29-.176-.155-.082-.29-.176-.156-.083-.311-.166-.155-.082-.311-.166-.222-.1-.012-.022-.466-.248c-13.622-7.08-30.929-9.212-48.343-4.74l-4.53,1.163L393.623,99.282l-26.548,6.806,11.419,44.439-21.239,5.447-11.426-44.31-26.549,6.807L330.7,162.909,275.945,177l7.285,28.314,22.063-5.666a13.655,13.655,0,0,1,16.628,9.818l0,.022h0l30.619,119.141a9.122,9.122,0,0,1-6.556,11.1l-19.33,4.972,1.136,33.676,54.688-14.054,11.57,44.357,26.537-6.828-11.431-44.458,21.238-5.447L441.829,396.4l26.537-6.827L456.9,344.94c4.5-1.173,8.364-2.174,11.04-2.866,19.624-5.044,35.493-16.556,45.1-30.9l.324-.479.022-.012.156-.223.209-.334.1-.166.209-.334.1-.166.187-.323.1-.167.186-.322.083-.156.187-.322.081-.157.187-.321.083-.157.165-.311.083-.155.165-.31.082-.156.178-.29.081-.156.177-.289.082-.156.156-.278.082-.155.156-.277.082-.157.156-.277.061-.143.157-.279.061-.143.133-.266.073-.123.134-.268.073-.122.133-.267.073-.123.134-.266.072-.122.133-.267.073-.123.134-.266.073-.123.112-.254.071-.123.112-.255.052-.11.123-.288.163-.365c.123-.287.258-.555.358-.83l.009-.032a51.023,51.023,0,0,0,2.595-29.89L522,269.5l-.013-.022-.011-.023-.012-.021-.012-.022-.012-.022-.011-.022-.012-.022q-.094-.4-.189-.813v-.055l-.012-.021-.012-.022-.011-.023-.012-.022-.012-.021-.013-.022-.01-.022-.012-.023-.012-.021-.012-.022-.011-.022-.012-.022-.012-.021-.047-.086c-.1-.39-.176-.792-.3-1.171C521.231,266.709,521.175,266.3,521.151,265.838ZM365.158,186.131c4.53-1.163,23.257-5.867,29.434-7.472,9.817-2.514,19.49-1.538,27.046,2.1l.254.113h0l.111.052.156.082.077.041.157.083.077.041.157.083.077.042.156.082.078.042.156.082.077.042.157.082.077.042.156.082.078.042.156.081.077.043.157.082.077.042.134.094.078.042.134.094.078.041.134.095.078.041.123.073.077.041.123.073.078.041.123.073.078.042.123.072.077.042.124.072.055.053.123.072.045.032.122.073.045.031.123.073.044.032.123.072.046.032.1.085.044.031.123.073.168.1c.122.073.234.18.356.252h0a22.9,22.9,0,0,1,8.114,11.625h0l.035.065c.037.119.085.26.121.379l.012.021.069.13c.049.2.109.357.159.552a3.186,3.186,0,0,1,.1.6l.07.13.012.022a1.813,1.813,0,0,0,.1.391l.035.064h0a22.982,22.982,0,0,1-1.513,14.089h0l-.173.4-.092.189-.073.122-.019.065-.052.111-.02.067-.072.121-.02.066-.072.122-.02.067-.073.122-.019.067-.072.121-.021.066-.071.121-.02.067-.073.121-.041.079-.073.122-.041.078-.073.122-.041.079-.073.123-.042.078-.094.133-.041.078-.1.134-.042.078-.094.133-.042.079-.094.133-.042.079-.1.133-.041.079-.094.133-.042.078-.094.134-.042.077-.094.134-.041.078-.116.146-.042.078-.115.146-.042.078-.115.146-.041.078-.115.146-.085.1h0l-.157.223c-4.883,6.84-12.884,12.368-22.7,14.879-6.188,1.585-24.865,6.483-29.395,7.647Zm103.776,91.35.068.129.012.022c.027.153.063.271.089.423h0l.012.022h0l.012.022.012.023.012.021h0a23.6,23.6,0,0,1-2.135,15.4h0l-.238.432-.114.2-.081.156-.043.078-.072.123-.042.078-.072.123-.042.077-.1.135-.041.077-.094.134-.042.078-.094.133-.042.079-.094.133-.041.079-.1.133-.041.078-.095.134-.042.078-.094.133-.042.078-.1.134-.041.078-.094.134-.042.078-.115.146-.041.078-.116.146-.042.077-.1.167-.042.079-.1.166-.041.078-.1.167-.063.089-.1.166-.063.089-.126.179-.063.089-.126.179-.062.089-.126.178-.063.089-.126.179-.062.089-.127.179-.1.112h0l-.2.245c-5.93,7.572-15.5,13.8-27.11,16.782-7.325,1.892-29.459,7.681-34.845,9.056l-15.069-58.634c5.375-1.4,27.571-6.968,34.9-8.859,11.617-2.982,23.021-2.136,31.837,1.627l.287.124h0l.145.061.208.082.1.029.189.092.1.03.188.092.1.029.189.093.078.041.189.093.078.041.188.092.078.043.189.091.077.042.157.082.077.042.157.082.077.042.156.082.077.042.157.082.077.042.157.082.077.042.156.082.078.042.156.082.077.042.157.082.077.042.156.082.078.041.133.095.078.041.134.1.078.041.134.095.078.041.134.1.078.042.134.093.077.043.122.072.078.042.134.094.179.126c.134.094.289.177.423.271h0a23.661,23.661,0,0,1,9.287,12.464h0l.046.085c.049.14.084.26.131.4l.012.022.07.129c.049.195.1.39.159.605.1.022.113.261.079.558Z"/></svg>