<svg id="Layer_1" data-name="Layer 1" xmlns="http://www.w3.org/2000/svg" viewBox="0 0 4022.54 504.845"><defs><style>.cls-1{fill:#fff;}.cls-2{fill:#f7941d;}</style></defs><title>5-bitcoin-cash-logo-horizontal-wt</title><path class="cls-1" d="M1033.94,498.7c-24.1,0-48.3-.7-72.1-2.3a528.913,528.913,0,0,1-74.7-10.4V59c20.2-3.9,42.7-6.5,66.9-8.5,24.1-2,46.6-2.9,67.5-2.9,28.1,0,53.8,2,77.3,6.2,23.5,3.9,43.7,10.8,60.7,20.5,17,9.8,30.3,22.5,39.8,38.5s14.4,35.6,14.4,58.7q0,52.8-50.9,83.2c28.1,10.4,47,25.1,57.1,43.1,10.1,18.3,15.3,38.8,15.3,61.6,0,46.3-17,80.9-50.6,104.1C1150.44,487.3,1100.539,498.7,1033.94,498.7Zm-50.2-273h48.3c30.7,0,52.2-3.9,65.6-11.7,13-7.8,19.6-20.5,19.6-37.8,0-17.9-6.8-30.3-20.2-37.5q-20.549-10.8-59.7-10.8c-8.5,0-17.6,0-27.4.3s-18.3.7-26.1,1.6c-.1,0-.1,95.9-.1,95.9Zm0,75.7V415.2c7.2,1,15,1.6,23.5,2s17.9.7,28.1.7c29.7,0,53.5-4.2,71.8-12.7s27.4-24.1,27.4-47c0-20.2-7.5-34.9-22.8-43.4-15.3-8.8-37.2-13-65.6-13h-62.3v-.4Z"/><path class="cls-1" d="M1376.44,62.3c0,17.3-5.5,31-17,41.1-11.1,10.1-24.5,15-39.8,15a57.728,57.728,0,0,1-39.8-15c-11.1-10.1-17-23.5-17-41.1,0-17.3,5.5-31,17-41.1a58.6,58.6,0,0,1,39.8-15,57.73,57.73,0,0,1,39.8,15C1370.84,31.3,1376.44,45,1376.44,62.3Zm-9.1,430.9h-94.6V158.8h94.6Z"/><path class="cls-1" d="M1418.24,75.6l94.6-15.3v98.5h113.8v78.9h-113.8V355.1c0,19.9,3.6,35.9,10.4,47.6s21.2,17.9,42.4,17.9a180.556,180.556,0,0,0,31.3-2.9,200.736,200.736,0,0,0,29.7-7.8l13.4,73.7a260.461,260.461,0,0,1-38.2,12.1c-14,3.3-31,5.2-51.5,5.2-25.8,0-47.3-3.6-64.3-10.4s-30.7-16.6-40.8-29.4c-10.1-12.4-17.3-27.7-21.2-45.3a276.038,276.038,0,0,1-6.2-59V75.6Z"/><path class="cls-1" d="M1640.039,326.1a196.655,196.655,0,0,1,11.7-68.2,161.164,161.164,0,0,1,33.9-55.8c14.7-16,32.9-28.4,54.1-37.8,21.2-9.5,45.3-14,72.4-14,17.9,0,34.2,1.6,48.9,4.9a245.659,245.659,0,0,1,43.1,13.7l-19.6,75.7a252.083,252.083,0,0,0-29.4-8.8,148.666,148.666,0,0,0-35.6-3.9c-28.1,0-48.9,8.8-62.6,26.1s-20.5,40.1-20.5,68.5c0,30,6.5,53.5,19.2,69.8,13,16.6,35.6,24.8,67.5,24.8a213.925,213.925,0,0,0,36.9-3.3,156.654,156.654,0,0,0,36.2-10.1l13.4,77.6a221.111,221.111,0,0,1-41.4,12.1,280.992,280.992,0,0,1-54.8,5.2c-30.7,0-56.8-4.6-78.9-13.7-22.2-9.1-40.1-21.5-54.5-37.2s-24.5-34.2-31-55.5A278.633,278.633,0,0,1,1640.039,326.1Z"/><path class="cls-1" d="M2235.639,325.5c0,26.4-3.9,50.2-11.4,72.1s-18.6,40.4-32.9,55.8a150,150,0,0,1-51.9,35.9c-20.3,8.5-42.7,12.7-67.5,12.7-24.5,0-47-4.2-67.2-12.7a149.591,149.591,0,0,1-51.9-35.9c-14.4-15.3-25.8-34.2-33.6-55.8-8.2-21.9-12.1-46-12.1-72.1,0-26.4,4.2-50.2,12.4-71.8,8.2-21.5,19.6-40.1,34.2-55.1a154.3,154.3,0,0,1,52.2-35.6c20.2-8.5,42.1-12.7,65.9-12.7q36.15,0,66.5,12.7c20.2,8.5,37.5,20.2,51.9,35.6a159.177,159.177,0,0,1,33.6,55.1C2231.44,275.3,2235.639,299.1,2235.639,325.5Zm-96.5,0c0-29.4-5.9-52.2-17.6-68.8s-28.4-25.1-49.9-25.1-38.5,8.5-50.2,25.1-17.9,39.8-17.9,68.8c0,29.4,5.9,52.5,17.9,69.5,11.7,17.3,28.7,25.8,50.2,25.8s38.2-8.5,49.9-25.8S2139.139,354.5,2139.139,325.5Z"/><path class="cls-1" d="M2377.24,62.3c0,17.3-5.5,31-17,41.1-11.1,10.1-24.5,15-39.8,15a57.728,57.728,0,0,1-39.8-15c-11.1-10.1-17-23.5-17-41.1,0-17.3,5.5-31,17-41.1a58.6,58.6,0,0,1,39.8-15,57.728,57.728,0,0,1,39.8,15C2371.639,31.3,2377.24,45,2377.24,62.3Zm-8.8,430.9h-94.6V158.8h94.6Z"/><path class="cls-1" d="M2422.24,170.2c16-4.6,36.9-9.1,62.3-13a527.122,527.122,0,0,1,79.9-6.2c28.4,0,51.9,3.6,70.8,11.1s33.9,17.9,44.7,31.3c11.1,13.7,18.9,29.7,23.5,48.3s6.8,39.5,6.8,62.3V492.9h-94.6V315.4c0-30.7-3.9-52.2-12.1-64.9s-23.2-18.9-45-18.9c-6.8,0-14,.3-21.5,1s-14.4,1.3-20.2,2.3v258h-94.6V170.2Z"/><path class="cls-2" d="M2968.94,502c-71.8,0-126.2-19.9-163.7-59.7s-56.1-96.2-56.1-169.6c0-36.5,5.9-68.8,17.3-97.5s27.1-52.8,47-72.4a197.582,197.582,0,0,1,71.1-44.7c27.4-10.1,57.4-15.3,89.7-15.3,18.6,0,35.6,1.3,50.9,4.2a301.392,301.392,0,0,1,40.1,9.5,199.107,199.107,0,0,1,28.7,11.1c7.5,3.9,13,6.8,16.6,8.8l-28.7,79.9a234.384,234.384,0,0,0-47.3-18.3c-17.9-5.2-38.5-7.5-61.3-7.5a138.418,138.418,0,0,0-44.7,7.5,105.226,105.226,0,0,0-38.8,24.5c-11.1,11.1-20.2,25.8-27.1,43.4-6.8,17.9-10.1,39.5-10.1,64.9a245.123,245.123,0,0,0,6.5,56.8c4.6,17.6,11.7,32.6,21.5,45.3a104.556,104.556,0,0,0,39.1,30.3c16,7.5,35.6,11.1,58.4,11.1a279.9,279.9,0,0,0,38.8-2.6,230.678,230.678,0,0,0,30.7-6.2,174.788,174.788,0,0,0,23.5-7.8c6.8-2.9,13-5.9,18.3-8.2l27.4,79.6c-14,8.5-33.6,16-59,22.8C3031.839,498.7,3002.24,502,2968.94,502Z"/><path class="cls-2" d="M3265.139,150c28.1,0,51.2,3.3,69.8,9.5s33.6,15.3,44.7,27.4a101.146,101.146,0,0,1,23.8,43.1c4.6,17,6.8,35.9,6.8,56.4v197c-13.7,2.9-32.3,6.5-56.4,10.4s-53.5,6.2-87.7,6.2q-32.25,0-58.7-5.9c-17.6-3.9-32.6-10.1-45.3-18.6a87.636,87.636,0,0,1-29.4-33.9c-6.8-14-10.1-31-10.1-51.5,0-19.6,3.9-35.9,11.7-49.6a87.459,87.459,0,0,1,31.3-32.3c13-8.2,28.1-14,45-17.6a254.237,254.237,0,0,1,52.8-5.5c12.4,0,23.2.7,32.6,1.6,9.5,1,17.3,2.3,23.2,4.2v-8.8c0-16-4.9-29-14.7-38.8s-26.7-14.7-50.9-14.7a327.331,327.331,0,0,0-47.6,3.6c-15.7,2.3-29.4,5.5-40.8,9.8l-12.1-76.3c5.5-1.6,12.4-3.6,20.5-5.5,8.2-2,17.3-3.6,27.1-5.2s19.9-2.6,30.7-3.9C3242.94,150.7,3254.04,150,3265.139,150Zm7.5,276.9c9.5,0,18.3-.3,26.7-.7a128.65,128.65,0,0,0,20.2-2V352.4c-3.9-1-9.5-1.6-17.3-2.6a159.079,159.079,0,0,0-20.9-1.3,219.381,219.381,0,0,0-25.1,1.6c-7.8,1-14.7,2.9-20.5,6.2a35,35,0,0,0-14,12.1,34.407,34.407,0,0,0-5.2,18.9c0,14.7,4.9,25.1,15,30.7C3241.639,424.3,3255.339,426.9,3272.639,426.9Z"/><path class="cls-2" d="M3557.339,425.3c17.3,0,29.7-1.6,36.9-5.2,7.2-3.3,10.8-10.1,10.8-19.6,0-7.5-4.6-14.4-14-19.9-9.5-5.9-23.5-12.1-42.7-19.2-14.7-5.5-28.4-11.1-40.4-17.3-12.1-5.9-22.5-13-30.7-21.2a85.059,85.059,0,0,1-19.6-29.7c-4.6-11.4-6.8-25.1-6.8-41.4,0-31.3,11.7-56.1,34.9-74.4s55.1-27.4,95.9-27.4a316.2,316.2,0,0,1,58.4,5.5c18.6,3.6,33.6,7.5,44.4,11.7l-16.6,73.7a308.311,308.311,0,0,0-35.9-10.1,198.585,198.585,0,0,0-43.4-4.6c-29.7,0-44.4,8.2-44.4,24.8a24.249,24.249,0,0,0,2,10.1,22.468,22.468,0,0,0,7.5,8.5,101.2,101.2,0,0,0,15.7,8.8,221.773,221.773,0,0,0,25.1,10.4c20.9,7.8,37.8,15.3,51.5,22.8s24.1,15.7,32,24.1a77.48,77.48,0,0,1,16.6,28.7c3.3,10.4,4.9,22.8,4.9,36.9,0,32.9-12.4,58.1-37.2,74.7-24.8,17-59.7,25.4-105,25.4-29.7,0-54.5-2.6-74-7.5-19.6-5.2-33.3-9.5-41.1-12.7l16-77a322.76,322.76,0,0,0,49.6,15A204.133,204.133,0,0,0,3557.339,425.3Z"/><path class="cls-2" d="M3734.54,493.2V15.3L3829.14,0V160.2a219.739,219.739,0,0,1,24.5-6.2,147.7,147.7,0,0,1,29-2.9c27.1,0,49.6,3.6,67.5,11.1s32.3,17.9,43.1,31.3c10.8,13.7,18.3,29.7,22.8,48.3,4.6,18.6,6.5,39.5,6.5,62.3V493h-94.6V315.4c0-30.7-3.9-52.2-11.7-64.9s-22.5-18.9-43.4-18.9a113.026,113.026,0,0,0-23.8,2.3c-7.5,1.6-14,2.9-19.9,4.9V492.9h-94.6Z"/><path class="cls-2" d="M578.625,504.845c137.761-96.555,171.166-286.5,74.612-424.266A304.621,304.621,0,0,0,578.625,5.967H807.539V504.845Z"/><path class="cls-2" d="M99.39,255.364a304.057,304.057,0,0,0,129.777,249.4H0V5.967H229.166A304.061,304.061,0,0,0,99.39,255.364Z"/><circle class="cls-2" cx="403.77" cy="255.242" r="249.228"/><path class="cls-1" d="M520.665,265.6l-.139-.257-.024-.043c-.084-.26-.147-.53-.242-.811l-.011-.022-.013-.022-.011-.022-.011-.022-.012-.021-.012-.022-.023-.043A50.925,50.925,0,0,0,503.521,239.4l-.012-.022c-.235-.178-.481-.378-.715-.557l-.323-.241-.235-.178-.1-.085-.222-.156-.1-.085-.223-.157-.1-.085-.233-.178-.123-.073-.235-.178-.123-.073-.256-.166-.123-.072-.149-.225-.134-.094-.256-.167-.134-.094-.257-.167-.133-.094-.257-.166-.133-.095-.268-.188-.134-.095-.289-.176-.133-.094-.291-.176-.133-.095-.289-.176-.134-.094-.289-.177-.156-.082-.289-.176-.156-.083-.31-.165-.156-.083-.322-.186-.156-.082-.322-.186-.155-.083-.323-.186-.166-.1-.323-.187-.166-.1-.344-.176-.166-.1-.342-.175-.233-.124-.012-.021c-.167-.1-.343-.175-.511-.28a71.057,71.057,0,0,0-22.757-7.191,63.675,63.675,0,0,0,6.1-7.658l.292-.435.022-.012.136-.211.177-.29.094-.133.177-.29.093-.133.177-.289.094-.134.177-.289.094-.134.177-.289.093-.134.157-.278.093-.134.157-.277.071-.122.156-.277.073-.122.155-.277.073-.123.134-.266.071-.122.134-.266.073-.122.134-.266.071-.123.146-.244.073-.122.145-.245.073-.121.124-.233.072-.123.124-.232.051-.111.124-.232.052-.111.124-.232.051-.111.124-.233.051-.11.1-.221.052-.111.1-.222.052-.11.1-.221.052-.111.113-.255.153-.331c.113-.254.2-.5.315-.752l.022-.012a45.221,45.221,0,0,0,2.3-26.548l-.012-.022-.023-.043-.012-.021-.012-.023-.013-.022-.012-.022-.012-.021-.012-.022a7.112,7.112,0,0,0-.175-.737v-.054l-.012-.022-.012-.023-.012-.022.012.022-.1-.192c-.076-.347-.152-.694-.261-1.05-.076-.347-.186-.705-.283-1.039l-.127-.236-.023-.043c-.072-.238-.146-.476-.218-.714l-.012-.021-.012-.022-.012-.022-.012-.022-.013-.021-.012-.023-.012-.022a45.222,45.222,0,0,0-14.807-22.158l-.012-.022c-.2-.168-.424-.325-.625-.494l-.28-.209-.222-.157-.1-.084-.19-.147-.1-.085-.19-.147-.1-.084-.194-.128-.1-.084-.222-.157-.1-.084-.223-.157-.1-.085-.222-.156-.123-.073-.223-.156-.121-.072-.223-.158-.123-.072-.245-.145-.121-.073-.245-.146-.123-.072-.244-.146-.123-.072-.245-.146-.122-.072-.257-.167-.123-.072-.256-.167-.123-.073-.277-.155-.123-.072-.277-.155-.134-.1-.277-.155-.134-.1-.277-.155-.134-.1-.289-.176-.156-.082-.289-.176-.156-.083-.31-.165-.155-.083-.311-.165-.222-.1-.012-.022-.465-.248c-13.61-7.074-30.9-9.2-48.3-4.736l-4.525,1.162L393.256,99.2,366.732,106l11.408,44.4-21.218,5.442-11.416-44.269-26.524,6.8,11.409,44.4-54.7,14.076,7.279,28.288,22.042-5.66a13.64,13.64,0,0,1,16.611,9.806h0l.006.023h0l30.59,119.029a9.114,9.114,0,0,1-6.55,11.085l-19.312,4.968,1.135,33.644,54.637-14.041L393.685,408.3l26.513-6.822L408.777,357.06,430,351.618l11.421,44.418,26.513-6.821-11.458-44.591c4.492-1.172,8.357-2.173,11.03-2.864,19.606-5.039,35.46-16.54,45.054-30.87l.323-.478.023-.012.156-.223.208-.334.1-.166.209-.333.1-.167.187-.322.1-.166.186-.323.083-.155.186-.323.082-.156.186-.321.083-.156.165-.311.083-.155.165-.31.082-.155.177-.291.082-.155.176-.289.082-.156.156-.277.082-.156.155-.277.083-.156.155-.277.062-.143.156-.278.061-.143.133-.266.073-.123.134-.267.073-.122.133-.267.072-.123.134-.266.073-.122.133-.266.072-.123.134-.266.073-.123.112-.254.071-.123.112-.254.052-.111.123-.287.163-.365c.123-.287.257-.554.358-.829l.009-.032a50.97,50.97,0,0,0,2.591-29.862l-.012-.022-.012-.022-.011-.023-.012-.021-.012-.022-.012-.022-.011-.022-.012-.021q-.094-.4-.189-.813v-.055l-.012-.021-.012-.022-.011-.023-.012-.022-.012-.021-.013-.022-.01-.022-.012-.022-.012-.022-.012-.022-.011-.022-.012-.022-.012-.021-.047-.086c-.1-.39-.176-.791-.3-1.17C520.744,266.466,520.689,266.052,520.665,265.6ZM364.817,185.963c4.526-1.162,23.235-5.862,29.406-7.465,9.808-2.511,19.472-1.537,27.022,2.1l.253.113h0l.111.052.155.082.078.041.156.083.078.041.156.083.078.041.155.082.078.042.156.082.077.042.156.082.078.042.155.082.079.042.155.081.077.043.157.081.077.043.134.093.078.043.134.093.077.042.135.094.077.042.123.072.078.041.123.073.077.041.123.073.078.042.123.072.077.042.123.072.056.053.123.072.045.032.121.072.045.032.123.072.044.032.123.072.046.032.1.085.044.031.123.073.167.1c.122.073.234.18.356.251h0a22.881,22.881,0,0,1,8.107,11.615h0l.035.064c.036.119.085.26.121.379l.012.022.068.13c.05.194.109.356.16.551a3.255,3.255,0,0,1,.1.6l.07.13.012.022a1.8,1.8,0,0,0,.1.39l.035.065h0a22.951,22.951,0,0,1-1.511,14.075h0l-.174.4-.091.189-.073.122-.019.065-.053.111-.019.067-.072.12-.02.067-.072.122-.02.066-.073.122-.019.067-.072.121-.021.066-.071.121-.02.067-.073.121-.041.078-.073.122-.041.079-.072.122-.042.078-.072.123-.043.078-.093.133-.042.078-.094.133-.042.079-.094.133-.042.079-.094.133-.042.078-.094.133-.042.079-.093.133-.043.077-.093.134-.043.078-.093.134-.042.078-.116.146-.041.077-.115.146-.042.078-.115.146-.041.078-.115.146-.085.1h0l-.157.222c-4.878,6.834-12.871,12.357-22.68,14.866-6.182,1.583-24.842,6.476-29.368,7.639ZM468.5,277.228l.068.129.012.022c.027.152.063.27.089.422h0l.012.022h0l.012.022.012.023.013.021h0a23.578,23.578,0,0,1-2.134,15.382h0l-.238.432-.113.2-.082.156-.042.078-.073.123-.041.077-.073.123-.041.078-.1.134-.041.077-.094.134-.042.078-.094.133-.042.079-.094.133-.041.078-.1.133-.041.079-.095.133-.041.078-.1.133-.041.078-.095.134-.041.078-.094.134-.042.077-.115.146-.041.078-.116.146-.042.078-.1.166-.043.078-.1.167-.042.077-.1.168-.063.088-.1.167-.062.088-.126.179-.063.089-.126.179-.062.088-.126.179-.063.088-.126.18-.062.088-.126.179-.1.112h0l-.2.245c-5.925,7.564-15.48,13.788-27.085,16.766-7.318,1.89-29.431,7.674-34.812,9.047L385.6,266.731c5.37-1.395,27.545-6.962,34.866-8.852,11.606-2.979,23-2.133,31.807,1.627l.287.123h0l.145.061.208.082.1.029.188.092.1.03.189.091.1.03.189.092.077.042.19.092.077.042.189.091.078.043.188.091.078.042.156.082.077.042.157.082.077.042.155.082.078.042.156.082.078.041.156.082.077.042.156.082.078.042.155.082.078.042.156.082.078.042.155.082.079.041.133.1.077.041.134.095.078.041.134.1.077.041.134.1.078.041.134.094.078.042.121.073.078.041.134.094.178.126c.134.094.29.177.424.271h0a23.627,23.627,0,0,1,9.277,12.452h0l.047.085c.048.14.083.26.131.4l.012.023.069.129c.05.194.1.39.16.6.094.022.112.261.078.557Z"/></svg>