<svg id="Layer_1" data-name="Layer 1" xmlns="http://www.w3.org/2000/svg" xmlns:xlink="http://www.w3.org/1999/xlink" viewBox="0 0 691.5 258"><defs><style>.cls-1{fill:none;}.cls-2{clip-path:url(#clip-path);}.cls-3{fill:#fff;}.cls-4{fill:#fefefe;}.cls-5{fill:#fdfdfe;}.cls-6{fill:#fdfdfd;}.cls-7{fill:#fcfcfc;}.cls-8{fill:#fbfbfb;}.cls-9{fill:#fafafb;}.cls-10{fill:#fafafa;}.cls-11{fill:#f9f9f9;}.cls-12{fill:#f8f8f8;}.cls-13{fill:#f7f7f7;}.cls-14{fill:#f6f6f7;}.cls-15{fill:#f5f5f6;}.cls-16{fill:#f4f4f5;}.cls-17{fill:#f3f3f4;}.cls-18{fill:#f2f2f3;}.cls-19{fill:#f1f1f2;}.cls-20{fill:#f0f0f1;}.cls-21{fill:#efefef;}.cls-22{fill:#edeeee;}.cls-23{fill:#eceded;}.cls-24{fill:#ebebec;}.cls-25{fill:#eaeaeb;}.cls-26{fill:#e8e9e9;}.cls-27{fill:#e7e8e8;}.cls-28{fill:#e6e6e7;}.cls-29{fill:#e4e5e6;}.cls-30{fill:#e3e3e4;}.cls-31{fill:#e1e2e3;}.cls-32{fill:#e0e1e1;}.cls-33{fill:#dedfe0;}.cls-34{fill:#dddedf;}.cls-35{fill:#dbdcdd;}.cls-36{fill:#dadbdc;}.cls-37{fill:#d8d9da;}.cls-38{fill:#aaa;}.cls-39{fill:#4d4d4d;}.cls-40{fill:#f7941d;}</style><clipPath id="clip-path"><path class="cls-1" d="M631.3,256.3H60.2A58.64,58.64,0,0,1,1.7,197.8V60.2A58.7,58.7,0,0,1,60.2,1.7H631.3a58.64,58.64,0,0,1,58.5,58.5V197.8A58.64,58.64,0,0,1,631.3,256.3Z"/></clipPath></defs><title>7-bitcoin-cash-accepted-here</title><g class="cls-2"><rect class="cls-3" x="1.7" y="1.7" width="688" height="6.5"/></g><g class="cls-2"><rect class="cls-3" x="1.7" y="8.2" width="688" height="6.5"/></g><g class="cls-2"><rect class="cls-3" x="1.7" y="14.8" width="688" height="6.5"/></g><g class="cls-2"><rect class="cls-4" x="1.7" y="21.3" width="688" height="6.5"/></g><g class="cls-2"><rect class="cls-4" x="1.7" y="27.8" width="688" height="6.5"/></g><g class="cls-2"><rect class="cls-5" x="1.7" y="34.4" width="688" height="6.5"/></g><g class="cls-2"><rect class="cls-6" x="1.7" y="40.9" width="688" height="6.5"/></g><g class="cls-2"><rect class="cls-7" x="1.7" y="47.4" width="688" height="6.5"/></g><g class="cls-2"><rect class="cls-7" x="1.7" y="53.9" width="688" height="6.5"/></g><g class="cls-2"><rect class="cls-8" x="1.7" y="60.5" width="688" height="6.5"/></g><g class="cls-2"><rect class="cls-9" x="1.7" y="67" width="688" height="6.5"/></g><g class="cls-2"><rect class="cls-10" x="1.7" y="73.5" width="688" height="6.5"/></g><g class="cls-2"><rect class="cls-11" x="1.7" y="80" width="688" height="6.5"/></g><g class="cls-2"><rect class="cls-12" x="1.7" y="86.6" width="688" height="6.5"/></g><g class="cls-2"><rect class="cls-13" x="1.7" y="93.1" width="688" height="6.5"/></g><g class="cls-2"><rect class="cls-14" x="1.7" y="99.6" width="688" height="6.5"/></g><g class="cls-2"><rect class="cls-15" x="1.7" y="106.2" width="688" height="6.5"/></g><g class="cls-2"><rect class="cls-16" x="1.7" y="112.7" width="688" height="6.5"/></g><g class="cls-2"><rect class="cls-17" x="1.7" y="119.2" width="688" height="6.5"/></g><g class="cls-2"><rect class="cls-18" x="1.7" y="125.7" width="688" height="6.5"/></g><g class="cls-2"><rect class="cls-19" x="1.7" y="132.3" width="688" height="6.5"/></g><g class="cls-2"><rect class="cls-20" x="1.7" y="138.8" width="688" height="6.5"/></g><g class="cls-2"><rect class="cls-21" x="1.7" y="145.3" width="688" height="6.5"/></g><g class="cls-2"><rect class="cls-22" x="1.7" y="151.8" width="688" height="6.5"/></g><g class="cls-2"><rect class="cls-23" x="1.7" y="158.4" width="688" height="6.5"/></g><g class="cls-2"><rect class="cls-24" x="1.7" y="164.9" width="688" height="6.5"/></g><g class="cls-2"><rect class="cls-25" x="1.7" y="171.4" width="688" height="6.5"/></g><g class="cls-2"><rect class="cls-26" x="1.7" y="178" width="688" height="6.5"/></g><g class="cls-2"><rect class="cls-27" x="1.7" y="184.5" width="688" height="6.5"/></g><g class="cls-2"><rect class="cls-28" x="1.7" y="191" width="688" height="6.5"/></g><g class="cls-2"><rect class="cls-29" x="1.7" y="197.5" width="688" height="6.5"/></g><g class="cls-2"><rect class="cls-30" x="1.7" y="204.1" width="688" height="6.5"/></g><g class="cls-2"><rect class="cls-31" x="1.7" y="210.6" width="688" height="6.5"/></g><g class="cls-2"><rect class="cls-32" x="1.7" y="217.1" width="688" height="6.5"/></g><g class="cls-2"><rect class="cls-33" x="1.7" y="223.6" width="688" height="6.5"/></g><g class="cls-2"><rect class="cls-34" x="1.7" y="230.2" width="688" height="6.5"/></g><g class="cls-2"><rect class="cls-35" x="1.7" y="236.7" width="688" height="6.5"/></g><g class="cls-2"><rect class="cls-36" x="1.7" y="243.2" width="688" height="6.5"/></g><g class="cls-2"><rect class="cls-37" x="1.7" y="249.8" width="688" height="6.5"/></g><path class="cls-38" d="M631.3,258H60.2A60.261,60.261,0,0,1,0,197.8V60.2A60.261,60.261,0,0,1,60.2,0H631.3a60.261,60.261,0,0,1,60.2,60.2V197.8A60.261,60.261,0,0,1,631.3,258ZM60.2,3.4A56.8,56.8,0,0,0,3.5,60.2V197.8a56.891,56.891,0,0,0,56.8,56.8H631.4a56.891,56.891,0,0,0,56.8-56.8V60.2A56.891,56.891,0,0,0,631.4,3.4Z"/><path class="cls-39" d="M283.1,196.9c-.1-1.2-.1-2.4-.2-3.6s-.2-2.3-.3-3.5H270.5c-.6,1.1-1.3,2.3-2,3.5s-1.3,2.3-2,3.6H259c2-3.5,3.9-6.7,5.6-9.6,1.8-2.9,3.4-5.7,5.1-8.3s3.2-5.1,4.8-7.4,3.1-4.6,4.7-6.9h6.5c.5,2.2,1,4.7,1.4,7.4s.9,5.5,1.3,8.3.7,5.7,1.1,8.5c.3,2.8.6,5.5.9,8Zm-2.2-25.2c-1.3,2.1-2.6,4.1-3.8,6.2a64.6,64.6,0,0,0-3.6,6.3h8.7c-.2-1.9-.3-3.9-.5-6C281.5,176,281.2,173.9,280.9,171.7Z"/><path class="cls-39" d="M317.3,195.5a26.088,26.088,0,0,1-4.2,1.5,23.164,23.164,0,0,1-5.7.6,13.174,13.174,0,0,1-5.3-1,10.5,10.5,0,0,1-4.1-2.7,12.4,12.4,0,0,1-2.6-4.3,17.044,17.044,0,0,1-.9-5.7,20.3,20.3,0,0,1,1.3-7.2,19.751,19.751,0,0,1,3.8-6.4,20,20,0,0,1,6.1-4.6,18.422,18.422,0,0,1,8.3-1.8,21.213,21.213,0,0,1,4.4.5,15.125,15.125,0,0,1,4.5,1.8l-2.6,5.6a18.152,18.152,0,0,0-3.5-1.4,16.512,16.512,0,0,0-3.3-.4,10.607,10.607,0,0,0-4.8,1.1,11.237,11.237,0,0,0-3.6,2.9,11.837,11.837,0,0,0-2.3,4.3,17.005,17.005,0,0,0-.8,5.1q0,4.05,1.8,6a6.567,6.567,0,0,0,5.1,1.9,17.062,17.062,0,0,0,4.1-.5,18.017,18.017,0,0,0,3.5-1.2Z"/><path class="cls-39" d="M345.4,195.5a26.088,26.088,0,0,1-4.2,1.5,23.164,23.164,0,0,1-5.7.6,13.174,13.174,0,0,1-5.3-1,10.5,10.5,0,0,1-4.1-2.7,12.4,12.4,0,0,1-2.6-4.3,17.044,17.044,0,0,1-.9-5.7,20.3,20.3,0,0,1,1.3-7.2,19.751,19.751,0,0,1,3.8-6.4,20,20,0,0,1,6.1-4.6,18.422,18.422,0,0,1,8.3-1.8,21.213,21.213,0,0,1,4.4.5,15.125,15.125,0,0,1,4.5,1.8l-2.6,5.6a18.152,18.152,0,0,0-3.5-1.4,16.512,16.512,0,0,0-3.3-.4,10.61,10.61,0,0,0-4.8,1.1,11.237,11.237,0,0,0-3.6,2.9,11.837,11.837,0,0,0-2.3,4.3,17.005,17.005,0,0,0-.8,5.1q0,4.05,1.8,6a6.567,6.567,0,0,0,5.1,1.9,17.062,17.062,0,0,0,4.1-.5,18.017,18.017,0,0,0,3.5-1.2Z"/><path class="cls-39" d="M349.4,196.9l7.7-32.2h21.1l-1.5,6H362.9l-1.5,6.5h12.2l-1.4,5.9H360l-1.9,7.9H373l-1.5,6H349.4Z"/><path class="cls-39" d="M392.9,164.3a21.45,21.45,0,0,1,5.3.6,11.328,11.328,0,0,1,4,1.8,8.616,8.616,0,0,1,2.5,2.9,8.023,8.023,0,0,1,.9,3.9,13.19,13.19,0,0,1-1.3,5.9,10.64,10.64,0,0,1-3.7,3.9,15.543,15.543,0,0,1-5.6,2.1,37.727,37.727,0,0,1-7,.7h-1.8l-2.6,10.8h-7.2l7.6-31.8c1.7-.3,3.3-.5,4.8-.7C390.2,164.4,391.6,164.3,392.9,164.3Zm-.6,6.1H391c-.4,0-.7.1-1.1.1l-2.2,9.5h1.8a20.11,20.11,0,0,0,3.6-.3,6.626,6.626,0,0,0,2.7-1,6.152,6.152,0,0,0,1.8-1.8,5.4,5.4,0,0,0,.6-2.7,3.222,3.222,0,0,0-1.5-3A10.483,10.483,0,0,0,392.3,170.4Z"/><path class="cls-39" d="M436.2,164.7l-1.5,6.1h-9.4L419,196.9h-7.3l6.3-26.1h-9.4l1.5-6.1Z"/><path class="cls-39" d="M432.3,196.9l7.7-32.2h21.1l-1.5,6H445.8l-1.5,6.5h12.2l-1.4,5.9H442.9L441,191h14.9l-1.5,6H432.3Z"/><path class="cls-39" d="M490.9,177.2a22.43,22.43,0,0,1-1.5,8.4,16.675,16.675,0,0,1-4.4,6.3,20.713,20.713,0,0,1-7,4,29.314,29.314,0,0,1-9.3,1.4c-1.3,0-2.8-.1-4.5-.2-1.7-.2-3.3-.4-4.9-.7l7.5-31.1c1.8-.3,3.5-.6,5.1-.7s3.1-.2,4.4-.2a20.164,20.164,0,0,1,6.2.9,12.446,12.446,0,0,1,4.6,2.7,10.947,10.947,0,0,1,2.9,4.1A16,16,0,0,1,490.9,177.2Zm-23.1,13.9c.3,0,.7.1,1,.1h1.5a16.264,16.264,0,0,0,5.5-.9,10.5,10.5,0,0,0,4.1-2.7,12.4,12.4,0,0,0,2.6-4.3,17.044,17.044,0,0,0,.9-5.7,9.488,9.488,0,0,0-.4-3,5.5,5.5,0,0,0-1.4-2.3,7.547,7.547,0,0,0-2.5-1.5,12.491,12.491,0,0,0-3.6-.5,26.174,26.174,0,0,0-2.8.1Z"/><path class="cls-39" d="M529,164.7h7.3l-7.8,32.2h-7.3l3.3-13.7H513l-3.3,13.7h-7.2l7.7-32.2h7.3l-3,12.4H526Z"/><path class="cls-39" d="M535.1,196.9l7.7-32.2h21.1l-1.5,6H548.6l-1.5,6.5h12.2l-1.4,5.9H545.7l-1.9,7.9h14.9l-1.5,6H535.1Z"/><path class="cls-39" d="M578.8,164.3a17.244,17.244,0,0,1,5.4.7,12.98,12.98,0,0,1,3.9,2,7.558,7.558,0,0,1,2.3,3,8.582,8.582,0,0,1,.7,3.6,15.27,15.27,0,0,1-.3,3,7.9,7.9,0,0,1-1.3,2.8,10.4,10.4,0,0,1-2.6,2.5,12.992,12.992,0,0,1-4.1,1.9,48.077,48.077,0,0,1,2.7,5.9c.9,2.3,1.8,4.7,2.6,7.2h-7.8c-.7-2.1-1.4-4.3-2.2-6.3a27.279,27.279,0,0,0-2.4-5.4h-3.6L569.3,197h-7.2l7.6-31.8c1.7-.3,3.3-.5,4.9-.7C576.1,164.4,577.5,164.3,578.8,164.3Zm-.2,6.1H577c-.6,0-1,.1-1.4.1l-2.1,8.8H576a14.3,14.3,0,0,0,3.8-.4,9.809,9.809,0,0,0,2.5-1.1,3.845,3.845,0,0,0,1.3-1.6,3.938,3.938,0,0,0,.4-1.8,7.664,7.664,0,0,0-.2-1.5,3.356,3.356,0,0,0-2.4-2.2A21.922,21.922,0,0,0,578.6,170.4Z"/><path class="cls-39" d="M591.9,196.9l7.7-32.2h21.1l-1.5,6H605.4l-1.5,6.5h12.2l-1.4,5.9H602.5l-1.9,7.9h14.9l-1.5,6H591.9Z"/><path class="cls-39" d="M197.051,136.15c-3.656,0-7.326-.106-10.936-.349a80.1,80.1,0,0,1-11.329-1.577V69.461a96.144,96.144,0,0,1,10.146-1.29c3.656-.3,7.068-.439,10.238-.439a66.747,66.747,0,0,1,11.724.94,27.555,27.555,0,0,1,9.207,3.109,16.311,16.311,0,0,1,6.036,5.839,17.166,17.166,0,0,1,2.184,8.9q0,8.007-7.72,12.619c4.262,1.577,7.129,3.806,8.66,6.537a19,19,0,0,1,2.321,9.342c0,7.023-2.578,12.271-7.674,15.789C214.72,134.421,207.152,136.15,197.051,136.15Zm-7.614-41.406h7.326c4.656,0,7.917-.591,9.949-1.774a6.206,6.206,0,0,0,2.973-5.734c0-2.715-1.031-4.595-3.064-5.687q-3.117-1.638-9.055-1.638c-1.289,0-2.669,0-4.155.045s-2.776.106-3.959.243c-.015,0-.015,14.545-.015,14.545Zm0,11.482v17.26c1.092.151,2.275.242,3.564.3s2.715.106,4.262.106a26,26,0,0,0,10.89-1.926c2.776-1.289,4.156-3.655,4.156-7.129,0-3.063-1.138-5.293-3.458-6.582-2.321-1.335-5.642-1.972-9.95-1.972h-9.449v-.06Z"/><path class="cls-39" d="M249,69.961a7.85,7.85,0,0,1-2.578,6.234,9.147,9.147,0,0,1-12.073,0,7.981,7.981,0,0,1-2.579-6.234,7.846,7.846,0,0,1,2.579-6.234,8.891,8.891,0,0,1,6.036-2.275,8.761,8.761,0,0,1,6.037,2.275A7.9,7.9,0,0,1,249,69.961Zm-1.38,65.355H233.27V84.6h14.348Z"/><path class="cls-39" d="M255.338,71.978l14.348-2.32V84.6h17.26V96.564h-17.26V114.37a14.4,14.4,0,0,0,1.577,7.22c1.032,1.774,3.216,2.715,6.431,2.715a27.487,27.487,0,0,0,4.747-.44,30.435,30.435,0,0,0,4.505-1.183l2.032,11.178a39.424,39.424,0,0,1-5.794,1.835,34.184,34.184,0,0,1-7.811.789,26.448,26.448,0,0,1-9.752-1.578,14.606,14.606,0,0,1-6.188-4.459,16.383,16.383,0,0,1-3.216-6.87,41.869,41.869,0,0,1-.94-8.949V71.978Z"/><path class="cls-39" d="M288.978,109.972a29.8,29.8,0,0,1,1.775-10.344,24.163,24.163,0,0,1,13.347-14.2,26.587,26.587,0,0,1,10.981-2.123,33.967,33.967,0,0,1,7.416.743,37.28,37.28,0,0,1,6.537,2.078l-2.972,11.482a38.269,38.269,0,0,0-4.459-1.335,22.565,22.565,0,0,0-5.4-.592c-4.262,0-7.417,1.335-9.494,3.959s-3.11,6.082-3.11,10.389c0,4.551.986,8.115,2.912,10.587,1.972,2.518,5.4,3.761,10.238,3.761a32.353,32.353,0,0,0,5.6-.5,23.739,23.739,0,0,0,5.49-1.532l2.033,11.77a33.577,33.577,0,0,1-6.28,1.835,42.7,42.7,0,0,1-8.311.789,31.237,31.237,0,0,1-11.967-2.078,22.62,22.62,0,0,1-8.266-5.642,21.491,21.491,0,0,1-4.7-8.418A42.267,42.267,0,0,1,288.978,109.972Z"/><path class="cls-39" d="M379.313,109.881a33.387,33.387,0,0,1-1.729,10.935,23.376,23.376,0,0,1-4.99,8.463,22.742,22.742,0,0,1-7.871,5.445,28.042,28.042,0,0,1-20.43,0,22.655,22.655,0,0,1-7.872-5.445,24.323,24.323,0,0,1-5.1-8.463,30.983,30.983,0,0,1-1.835-10.935,30.4,30.4,0,0,1,1.88-10.89,24.228,24.228,0,0,1,5.187-8.357,23.419,23.419,0,0,1,7.918-5.4,25.46,25.46,0,0,1,10-1.926,25.887,25.887,0,0,1,10.086,1.926,22.6,22.6,0,0,1,7.871,5.4,24.131,24.131,0,0,1,5.1,8.357A32.542,32.542,0,0,1,379.313,109.881Zm-14.636,0c0-4.459-.9-7.917-2.669-10.435a9.473,9.473,0,0,0-15.183,0c-1.774,2.518-2.715,6.036-2.715,10.435,0,4.459.895,7.962,2.715,10.541a9.32,9.32,0,0,0,15.183,0Q364.669,116.486,364.677,109.881Z"/><path class="cls-39" d="M400.79,69.961a7.846,7.846,0,0,1-2.579,6.234,9.147,9.147,0,0,1-12.073,0,7.984,7.984,0,0,1-2.578-6.234,7.85,7.85,0,0,1,2.578-6.234,8.9,8.9,0,0,1,6.037-2.275,8.757,8.757,0,0,1,6.036,2.275A7.9,7.9,0,0,1,400.79,69.961Zm-1.335,65.355H385.107V84.6h14.348Z"/><path class="cls-39" d="M407.615,86.326a77.851,77.851,0,0,1,9.449-1.971,79.954,79.954,0,0,1,12.118-.941A29.271,29.271,0,0,1,439.921,85.1a16.12,16.12,0,0,1,6.779,4.747,18.463,18.463,0,0,1,3.565,7.326,39.586,39.586,0,0,1,1.031,9.449v28.65H436.948V108.349c0-4.656-.591-7.917-1.835-9.844s-3.519-2.866-6.825-2.866c-1.032,0-2.124.045-3.261.152s-2.184.2-3.064.348V135.27H407.615Z"/><path class="cls-40" d="M490.533,136.651c-10.89,0-19.141-3.019-24.828-9.055s-8.509-14.591-8.509-25.723a39.676,39.676,0,0,1,2.624-14.788A31.483,31.483,0,0,1,466.948,76.1a29.96,29.96,0,0,1,10.784-6.78,39.106,39.106,0,0,1,13.6-2.32,41.7,41.7,0,0,1,7.72.637,45.782,45.782,0,0,1,6.082,1.44,30.147,30.147,0,0,1,4.353,1.684c1.138.591,1.972,1.031,2.518,1.335l-4.353,12.118a35.54,35.54,0,0,0-7.174-2.775,33.589,33.589,0,0,0-9.3-1.138,20.964,20.964,0,0,0-6.779,1.138,15.954,15.954,0,0,0-5.885,3.715,19.056,19.056,0,0,0-4.11,6.583,27.759,27.759,0,0,0-1.532,9.843,37.127,37.127,0,0,0,.986,8.615,18.846,18.846,0,0,0,3.261,6.871,15.859,15.859,0,0,0,5.93,4.6,20.846,20.846,0,0,0,8.857,1.683,42.591,42.591,0,0,0,5.885-.394,34.968,34.968,0,0,0,4.656-.941,26.449,26.449,0,0,0,3.565-1.183c1.031-.439,1.971-.894,2.775-1.243l4.156,12.073A35.185,35.185,0,0,1,504,135.119,53.259,53.259,0,0,1,490.533,136.651Z"/><path class="cls-40" d="M535.458,83.263a33.758,33.758,0,0,1,10.587,1.44,15.755,15.755,0,0,1,6.779,4.156,15.327,15.327,0,0,1,3.61,6.537,32.814,32.814,0,0,1,1.031,8.554v29.88c-2.077.439-4.9.985-8.554,1.577a84.579,84.579,0,0,1-13.3.94,40.948,40.948,0,0,1-8.9-.9,19.909,19.909,0,0,1-6.871-2.821,13.27,13.27,0,0,1-4.459-5.141,17.717,17.717,0,0,1-1.532-7.811,14.886,14.886,0,0,1,1.775-7.523,13.251,13.251,0,0,1,4.747-4.9,20.842,20.842,0,0,1,6.825-2.67,38.621,38.621,0,0,1,8.008-.834c1.881,0,3.519.106,4.945.243a18.267,18.267,0,0,1,3.518.637V103.3a7.977,7.977,0,0,0-2.229-5.885c-1.486-1.486-4.05-2.229-7.72-2.229a49.567,49.567,0,0,0-7.22.546,30.2,30.2,0,0,0-6.188,1.486l-1.835-11.572c.834-.243,1.881-.546,3.109-.834,1.244-.3,2.624-.546,4.11-.789s3.019-.394,4.657-.592C532.091,83.369,533.774,83.263,535.458,83.263Zm1.138,42c1.44,0,2.775-.045,4.049-.106a19.558,19.558,0,0,0,3.064-.3v-10.89a26.069,26.069,0,0,0-2.624-.395,24.17,24.17,0,0,0-3.17-.2,33.175,33.175,0,0,0-3.807.243,8.436,8.436,0,0,0-3.109.94,5.311,5.311,0,0,0-2.124,1.835,5.218,5.218,0,0,0-.788,2.867c0,2.23.743,3.807,2.275,4.656a11.739,11.739,0,0,0,6.238,1.347Z"/><path class="cls-40" d="M579.776,125.017a13.751,13.751,0,0,0,5.6-.788,2.98,2.98,0,0,0,1.638-2.973,3.6,3.6,0,0,0-2.124-3.018,37.557,37.557,0,0,0-6.476-2.912,57.238,57.238,0,0,1-6.127-2.624,17.209,17.209,0,0,1-4.657-3.216,12.885,12.885,0,0,1-2.972-4.5,16.738,16.738,0,0,1-1.032-6.279,13.622,13.622,0,0,1,5.294-11.285q5.277-4.162,14.545-4.155a47.942,47.942,0,0,1,8.857.834,40.984,40.984,0,0,1,6.734,1.774l-2.517,11.178a46.754,46.754,0,0,0-5.445-1.531,30.108,30.108,0,0,0-6.583-.7c-4.5,0-6.734,1.244-6.734,3.761a3.682,3.682,0,0,0,.3,1.532,3.407,3.407,0,0,0,1.138,1.289,15.27,15.27,0,0,0,2.381,1.335,33.523,33.523,0,0,0,3.807,1.577,60.377,60.377,0,0,1,7.811,3.459,19.29,19.29,0,0,1,4.854,3.655,11.747,11.747,0,0,1,2.517,4.353,18.67,18.67,0,0,1,.743,5.6c0,4.99-1.88,8.812-5.642,11.33-3.761,2.579-9.054,3.853-15.925,3.853a47.064,47.064,0,0,1-11.224-1.138A57.111,57.111,0,0,1,562.3,133.5l2.426-11.679a48.869,48.869,0,0,0,7.523,2.275A30.907,30.907,0,0,0,579.776,125.017Z"/><path class="cls-40" d="M606.652,135.316V62.833L621,60.512v24.3a33.243,33.243,0,0,1,3.716-.941,22.5,22.5,0,0,1,4.4-.44,26.634,26.634,0,0,1,10.237,1.684,16.289,16.289,0,0,1,6.537,4.747,18.711,18.711,0,0,1,3.458,7.326,39.671,39.671,0,0,1,.986,9.449v28.651H635.985V108.349c0-4.656-.591-7.917-1.774-9.844s-3.413-2.866-6.583-2.866a17.1,17.1,0,0,0-3.61.349,27.453,27.453,0,0,0-3.018.743V135.27H606.652Z"/><path class="cls-40" d="M127.644,137.844a46.664,46.664,0,0,0,0-76.427h35.069v76.427Z"/><path class="cls-40" d="M54.226,99.624a46.582,46.582,0,0,0,19.881,38.207H39V61.417H74.107A46.584,46.584,0,0,0,54.226,99.624Z"/><circle class="cls-40" cx="100.857" cy="99.605" r="38.181"/><path class="cls-3" d="M118.764,101.2l-.021-.04v-.007c-.012-.04-.023-.08-.037-.124h0v-.007a7.794,7.794,0,0,0-2.55-3.816h0l-.109-.086-.05-.036-.036-.028-.015-.013-.035-.023L115.9,97l-.034-.024-.015-.012-.037-.028-.018-.011-.036-.027-.019-.012-.039-.025-.019-.011-.022-.035-.022-.014-.038-.026-.021-.014-.039-.025-.021-.015-.039-.025-.021-.015-.04-.029-.045-.038-.045-.028-.02-.014-.044-.027-.021-.015-.044-.026-.021-.015-.044-.027-.024-.012-.045-.028-.023-.012-.048-.025-.023-.014-.05-.028-.024-.012-.049-.029-.024-.012-.05-.029-.025-.016-.049-.028-.026-.016-.052-.026-.026-.015-.053-.028-.035-.018h0c-.026-.015-.053-.027-.079-.043a10.887,10.887,0,0,0-3.486-1.1,9.672,9.672,0,0,0,.933-1.174l.045-.066h0l.021-.033.027-.043.014-.021.027-.044.015-.021.027-.045.014-.02.027-.044.015-.02.027-.045.014-.02.024-.043.014-.02.024-.043.012-.018.023-.043.011-.018.024-.043.011-.018.021-.041.01-.02.022-.04.01-.019.021-.04.01-.02.023-.036.011-.02.022-.037.012-.019.019-.035.011-.02.018-.034.009-.017.019-.036.007-.017.019-.036.009-.016.018-.036.008-.017.015-.034.008-.017.016-.034.008-.017.015-.034.008-.017.018-.039.023-.05c.017-.039.031-.077.048-.115h0a6.936,6.936,0,0,0,.352-4.072h0v-.007h0c-.007-.038-.016-.075-.026-.112v-.009h0l-.016-.03c-.011-.052-.023-.1-.039-.16s-.029-.108-.044-.16l-.02-.036v-.007l-.033-.109h0a6.926,6.926,0,0,0-2.269-3.394h0c-.031-.026-.065-.049-.1-.076l-.042-.031-.029-.02-.015-.013-.03-.022-.015-.013-.028-.023-.017-.012-.029-.019-.015-.014-.035-.024-.015-.012-.034-.025-.015-.013-.035-.023-.018-.011-.035-.025-.018-.011-.035-.024-.018-.016-.038-.022-.018-.011-.038-.023-.019-.011-.037-.022-.019-.012-.038-.022-.018-.011-.04-.026-.018-.01-.04-.026-.018-.011-.043-.024-.052-.079-.041-.024-.021-.014-.042-.024-.021-.015-.043-.023-.02-.015-.045-.027-.023-.013-.045-.026-.023-.014-.048-.024-.024-.013-.047-.026-.034-.015h0l-.071-.039a10.474,10.474,0,0,0-7.4-.724l-.693.178L99.247,75.7,95.184,76.74l1.748,6.8-3.251.833L91.93,77.594l-4.063,1.043,1.753,6.8L81.239,87.6l1.119,4.332,3.378-.867a2.09,2.09,0,0,1,2.544,1.5h0L92.962,110.8a1.4,1.4,0,0,1-1,1.7L89,113.256l.174,5.154,8.371-2.151,1.771,6.789L103.379,122l-1.75-6.805,3.251-.834,1.75,6.806,4.061-1.046-1.755-6.83c.688-.18,1.28-.333,1.69-.439a11.813,11.813,0,0,0,6.9-4.73l.049-.073h0l.025-.034.031-.051.016-.025.032-.052.015-.025.029-.049.015-.026.029-.05.013-.023.028-.05.013-.023.028-.049.012-.025.026-.047.013-.024.026-.048.012-.023.027-.045.012-.023.027-.045.013-.023.024-.043.013-.024.023-.042.013-.024.024-.043.009-.022.024-.043.01-.021.02-.041.011-.019.02-.041.012-.018.02-.041.011-.019.021-.041.011-.018.02-.041.011-.019.021-.041.011-.018.017-.04.011-.018.017-.039.008-.017.019-.044.025-.056c.019-.044.039-.086.055-.127h0a7.815,7.815,0,0,0,.4-4.574h0l-.029-.125v-.008h0l-.007-.013c-.015-.06-.028-.121-.046-.179A.831.831,0,0,1,118.764,101.2Zm-23.875-12.2c.693-.178,3.562-.9,4.505-1.144a6.111,6.111,0,0,1,4.139.322l.039.017h0l.017.008.024.012.012.006.023.014.013.006.023.012.012.007.024.012.012.006.024.014.012.006.024.012.012.007.024.012.012.006.023.014.012.006.024.012.012.007.02.014.013.006.02.015.012.006.021.015.011.006.019.011.012.006.019.012.012.006.018.011.012.006.02.011.011.007.019.011.008.008.02.011.006,0,.019.011h.006l.02.011h.007l.018.012.007.005.015.013h.008l.018.011.025.016c.02.011.037.028.055.038h0a3.5,3.5,0,0,1,1.242,1.779h0l.005.01.019.058h0l.011.021c.007.029.016.055.024.084a.5.5,0,0,1,.015.093l.011.019h0a.3.3,0,0,0,.015.059l.006.01h0a3.528,3.528,0,0,1-.232,2.157h0l-.027.06-.014.03-.011.018v.01l-.008.018v.01l-.011.018v.01l-.012.019v.01l-.011.019v.01l-.011.019v.01l-.011.018v.01l-.01.019-.008.012-.011.018-.006.012-.011.02-.006.012-.011.018-.006.012-.015.021-.007.012-.014.02-.006.012-.014.02-.008.012-.014.02-.006.013-.014.02-.006.012-.016.021-.006.012-.014.02-.006.011-.015.022-.006.011-.018.022-.006.013-.018.022-.006.012-.017.023-.008.011-.017.022-.013.016h0l-.024.034a6.106,6.106,0,0,1-3.474,2.277c-.947.243-3.806.992-4.5,1.17Zm15.883,13.982.01.019h0a.358.358,0,0,0,.014.065h0a3.615,3.615,0,0,1-.328,2.357h0l-.036.066-.017.031-.013.024-.006.012-.012.018-.006.013-.011.019-.006.011-.015.02-.006.013-.015.02-.006.012-.014.021-.007.012-.014.02-.006.012-.015.021-.007.011-.014.02-.006.012-.014.021-.008.012-.014.02-.006.013-.014.02-.007.012-.018.023-.006.011-.017.022-.007.012-.015.026-.007.012-.015.026-.007.012v.037l-.009.014-.015.025-.011.014-.019.027-.009.014L110,106.2l-.01.013-.019.027-.01.013-.019.028-.01.014-.019.027-.015.017h0l-.032.038a7.7,7.7,0,0,1-4.148,2.569c-1.12.289-4.509,1.175-5.334,1.385l-2.315-8.969c.822-.214,4.22-1.067,5.341-1.357a7.711,7.711,0,0,1,4.873.249l.044.02h0l.022.009.032.012.016,0,.028.013.015.005.03.015h.015l.029.014.012.006.028.014.013.006.028.015.012.007.029.013.012.007.024.012.012.006.024.014.012.006.024.012.012.007.023.012.012.006.024.014.012.006.024.012.012.007.023.012.012.006.025.013.011.007.024.012.013.006.02.015.011.007.021.014.012.006.02.015.012.006.021.014.012.007.02.014.012.007.019.011.012.006.02.015.028.019.064.042h0a3.612,3.612,0,0,1,1.425,1.907h0l.007.013c.007.022.012.04.02.061h0l.012.02c.007.029.015.06.024.092.014,0,.017.041.012.086Z"/></svg>