<svg id="Layer_1" data-name="Layer 1" xmlns="http://www.w3.org/2000/svg" viewBox="0 0 4022.54 504.845"><defs><style>.cls-1{fill:#fff;}</style></defs><title>Artboard 1</title><path class="cls-1" d="M1033.94,498.7c-24.1,0-48.3-.7-72.1-2.3a528.933,528.933,0,0,1-74.7-10.4V59c20.2-3.9,42.7-6.5,66.9-8.5,24.1-2,46.6-2.9,67.5-2.9,28.1,0,53.8,2,77.3,6.2,23.5,3.9,43.7,10.8,60.7,20.5,17,9.8,30.3,22.5,39.8,38.5s14.4,35.6,14.4,58.7q0,52.8-50.9,83.2c28.1,10.4,47,25.1,57.1,43.1,10.1,18.3,15.3,38.8,15.3,61.6,0,46.3-17,80.9-50.6,104.1C1150.44,487.3,1100.539,498.7,1033.94,498.7Zm-50.2-273h48.3c30.7,0,52.2-3.9,65.6-11.7,13-7.8,19.6-20.5,19.6-37.8,0-17.9-6.8-30.3-20.2-37.5q-20.549-10.8-59.7-10.8c-8.5,0-17.6,0-27.4.3s-18.3.7-26.1,1.6c-.1,0-.1,95.9-.1,95.9Zm0,75.7V415.2c7.2,1,15,1.6,23.5,2s17.9.7,28.1.7c29.7,0,53.5-4.2,71.8-12.7s27.4-24.1,27.4-47c0-20.2-7.5-34.9-22.8-43.4-15.3-8.8-37.2-13-65.6-13h-62.3v-.4Z"/><path class="cls-1" d="M1376.44,62.3c0,17.3-5.5,31-17,41.1-11.1,10.1-24.5,15-39.8,15a57.728,57.728,0,0,1-39.8-15c-11.1-10.1-17-23.5-17-41.1,0-17.3,5.5-31,17-41.1a58.6,58.6,0,0,1,39.8-15,57.732,57.732,0,0,1,39.8,15C1370.84,31.3,1376.44,45,1376.44,62.3Zm-9.1,430.9h-94.6V158.8h94.6Z"/><path class="cls-1" d="M1418.24,75.6l94.6-15.3v98.5h113.8v78.9h-113.8V355.1c0,19.9,3.6,35.9,10.4,47.6s21.2,17.9,42.4,17.9a180.538,180.538,0,0,0,31.3-2.9,200.671,200.671,0,0,0,29.7-7.8l13.4,73.7a260.461,260.461,0,0,1-38.2,12.1c-14,3.3-31,5.2-51.5,5.2-25.8,0-47.3-3.6-64.3-10.4s-30.7-16.6-40.8-29.4c-10.1-12.4-17.3-27.7-21.2-45.3a276.038,276.038,0,0,1-6.2-59V75.6Z"/><path class="cls-1" d="M1640.039,326.1a196.655,196.655,0,0,1,11.7-68.2,161.164,161.164,0,0,1,33.9-55.8c14.7-16,32.9-28.4,54.1-37.8,21.2-9.5,45.3-14,72.4-14,17.9,0,34.2,1.6,48.9,4.9a245.713,245.713,0,0,1,43.1,13.7l-19.6,75.7a252.083,252.083,0,0,0-29.4-8.8,148.671,148.671,0,0,0-35.6-3.9c-28.1,0-48.9,8.8-62.6,26.1s-20.5,40.1-20.5,68.5c0,30,6.5,53.5,19.2,69.8,13,16.6,35.6,24.8,67.5,24.8a213.934,213.934,0,0,0,36.9-3.3,156.681,156.681,0,0,0,36.2-10.1l13.4,77.6a221.155,221.155,0,0,1-41.4,12.1,281,281,0,0,1-54.8,5.2c-30.7,0-56.8-4.6-78.9-13.7-22.2-9.1-40.1-21.5-54.5-37.2s-24.5-34.2-31-55.5A278.633,278.633,0,0,1,1640.039,326.1Z"/><path class="cls-1" d="M2235.639,325.5c0,26.4-3.9,50.2-11.4,72.1s-18.6,40.4-32.9,55.8a149.99,149.99,0,0,1-51.9,35.9c-20.3,8.5-42.7,12.7-67.5,12.7-24.5,0-47-4.2-67.2-12.7a149.6,149.6,0,0,1-51.9-35.9c-14.4-15.3-25.8-34.2-33.6-55.8-8.2-21.9-12.1-46-12.1-72.1,0-26.4,4.2-50.2,12.4-71.8,8.2-21.5,19.6-40.1,34.2-55.1a154.308,154.308,0,0,1,52.2-35.6c20.2-8.5,42.1-12.7,65.9-12.7q36.15,0,66.5,12.7c20.2,8.5,37.5,20.2,51.9,35.6a159.177,159.177,0,0,1,33.6,55.1C2231.44,275.3,2235.639,299.1,2235.639,325.5Zm-96.5,0c0-29.4-5.9-52.2-17.6-68.8s-28.4-25.1-49.9-25.1-38.5,8.5-50.2,25.1-17.9,39.8-17.9,68.8c0,29.4,5.9,52.5,17.9,69.5,11.7,17.3,28.7,25.8,50.2,25.8s38.2-8.5,49.9-25.8S2139.139,354.5,2139.139,325.5Z"/><path class="cls-1" d="M2377.24,62.3c0,17.3-5.5,31-17,41.1-11.1,10.1-24.5,15-39.8,15a57.728,57.728,0,0,1-39.8-15c-11.1-10.1-17-23.5-17-41.1,0-17.3,5.5-31,17-41.1a58.6,58.6,0,0,1,39.8-15,57.728,57.728,0,0,1,39.8,15C2371.639,31.3,2377.24,45,2377.24,62.3Zm-8.8,430.9h-94.6V158.8h94.6Z"/><path class="cls-1" d="M2422.24,170.2c16-4.6,36.9-9.1,62.3-13a527.132,527.132,0,0,1,79.9-6.2c28.4,0,51.9,3.6,70.8,11.1s33.9,17.9,44.7,31.3c11.1,13.7,18.9,29.7,23.5,48.3s6.8,39.5,6.8,62.3V492.9h-94.6V315.4c0-30.7-3.9-52.2-12.1-64.9s-23.2-18.9-45-18.9c-6.8,0-14,.3-21.5,1s-14.4,1.3-20.2,2.3v258h-94.6V170.2Z"/><path class="cls-1" d="M2968.94,502c-71.8,0-126.2-19.9-163.7-59.7s-56.1-96.2-56.1-169.6c0-36.5,5.9-68.8,17.3-97.5s27.1-52.8,47-72.4a197.591,197.591,0,0,1,71.1-44.7c27.4-10.1,57.4-15.3,89.7-15.3,18.6,0,35.6,1.3,50.9,4.2a301.341,301.341,0,0,1,40.1,9.5,199.061,199.061,0,0,1,28.7,11.1c7.5,3.9,13,6.8,16.6,8.8l-28.7,79.9a234.361,234.361,0,0,0-47.3-18.3c-17.9-5.2-38.5-7.5-61.3-7.5a138.422,138.422,0,0,0-44.7,7.5,105.221,105.221,0,0,0-38.8,24.5c-11.1,11.1-20.2,25.8-27.1,43.4-6.8,17.9-10.1,39.5-10.1,64.9a245.123,245.123,0,0,0,6.5,56.8c4.6,17.6,11.7,32.6,21.5,45.3a104.556,104.556,0,0,0,39.1,30.3c16,7.5,35.6,11.1,58.4,11.1a279.91,279.91,0,0,0,38.8-2.6,230.678,230.678,0,0,0,30.7-6.2,174.788,174.788,0,0,0,23.5-7.8c6.8-2.9,13-5.9,18.3-8.2l27.4,79.6c-14,8.5-33.6,16-59,22.8C3031.839,498.7,3002.24,502,2968.94,502Z"/><path class="cls-1" d="M3265.139,150c28.1,0,51.2,3.3,69.8,9.5s33.6,15.3,44.7,27.4a101.144,101.144,0,0,1,23.8,43.1c4.6,17,6.8,35.9,6.8,56.4v197c-13.7,2.9-32.3,6.5-56.4,10.4s-53.5,6.2-87.7,6.2q-32.25,0-58.7-5.9c-17.6-3.9-32.6-10.1-45.3-18.6a87.636,87.636,0,0,1-29.4-33.9c-6.8-14-10.1-31-10.1-51.5,0-19.6,3.9-35.9,11.7-49.6a87.459,87.459,0,0,1,31.3-32.3c13-8.2,28.1-14,45-17.6a254.244,254.244,0,0,1,52.8-5.5c12.4,0,23.2.7,32.6,1.6,9.5,1,17.3,2.3,23.2,4.2v-8.8c0-16-4.9-29-14.7-38.8s-26.7-14.7-50.9-14.7a327.331,327.331,0,0,0-47.6,3.6c-15.7,2.3-29.4,5.5-40.8,9.8l-12.1-76.3c5.5-1.6,12.4-3.6,20.5-5.5,8.2-2,17.3-3.6,27.1-5.2s19.9-2.6,30.7-3.9C3242.94,150.7,3254.04,150,3265.139,150Zm7.5,276.9c9.5,0,18.3-.3,26.7-.7a128.662,128.662,0,0,0,20.2-2V352.4c-3.9-1-9.5-1.6-17.3-2.6a159.1,159.1,0,0,0-20.9-1.3,219.366,219.366,0,0,0-25.1,1.6c-7.8,1-14.7,2.9-20.5,6.2a34.993,34.993,0,0,0-14,12.1,34.4,34.4,0,0,0-5.2,18.9c0,14.7,4.9,25.1,15,30.7C3241.639,424.3,3255.339,426.9,3272.639,426.9Z"/><path class="cls-1" d="M3557.339,425.3c17.3,0,29.7-1.6,36.9-5.2,7.2-3.3,10.8-10.1,10.8-19.6,0-7.5-4.6-14.4-14-19.9-9.5-5.9-23.5-12.1-42.7-19.2-14.7-5.5-28.4-11.1-40.4-17.3-12.1-5.9-22.5-13-30.7-21.2a85.057,85.057,0,0,1-19.6-29.7c-4.6-11.4-6.8-25.1-6.8-41.4,0-31.3,11.7-56.1,34.9-74.4s55.1-27.4,95.9-27.4a316.2,316.2,0,0,1,58.4,5.5c18.6,3.6,33.6,7.5,44.4,11.7l-16.6,73.7a308.311,308.311,0,0,0-35.9-10.1,198.585,198.585,0,0,0-43.4-4.6c-29.7,0-44.4,8.2-44.4,24.8a24.249,24.249,0,0,0,2,10.1,22.468,22.468,0,0,0,7.5,8.5,101.152,101.152,0,0,0,15.7,8.8,221.957,221.957,0,0,0,25.1,10.4c20.9,7.8,37.8,15.3,51.5,22.8s24.1,15.7,32,24.1a77.494,77.494,0,0,1,16.6,28.7c3.3,10.4,4.9,22.8,4.9,36.9,0,32.9-12.4,58.1-37.2,74.7-24.8,17-59.7,25.4-105,25.4-29.7,0-54.5-2.6-74-7.5-19.6-5.2-33.3-9.5-41.1-12.7l16-77a322.837,322.837,0,0,0,49.6,15A204.121,204.121,0,0,0,3557.339,425.3Z"/><path class="cls-1" d="M3734.54,493.2V15.3L3829.14,0V160.2a219.739,219.739,0,0,1,24.5-6.2,147.7,147.7,0,0,1,29-2.9c27.1,0,49.6,3.6,67.5,11.1s32.3,17.9,43.1,31.3c10.8,13.7,18.3,29.7,22.8,48.3,4.6,18.6,6.5,39.5,6.5,62.3V493h-94.6V315.4c0-30.7-3.9-52.2-11.7-64.9s-22.5-18.9-43.4-18.9a113.032,113.032,0,0,0-23.8,2.3c-7.5,1.6-14,2.9-19.9,4.9V492.9h-94.6Z"/><path class="cls-1" d="M578.625,504.845c137.761-96.555,171.166-286.5,74.612-424.266A304.6,304.6,0,0,0,578.625,5.967H807.539V504.845Z"/><path class="cls-1" d="M99.39,255.364a304.056,304.056,0,0,0,129.777,249.4H0V5.967H229.166A304.061,304.061,0,0,0,99.39,255.364Z"/><path class="cls-1" d="M430.836,217.39l.157-.222.085-.1.115-.146.041-.078.115-.146.042-.078.115-.146.041-.077.116-.146.042-.078.093-.134.043-.078.093-.134.043-.077.093-.133.042-.079.094-.133.042-.078.094-.133.042-.079.094-.133.042-.079.094-.133.042-.078.093-.133.043-.078.072-.123.042-.078.072-.122.041-.079.073-.122.041-.078.073-.121.02-.067.071-.121.021-.066.072-.121.019-.067.073-.122.02-.066.072-.122.02-.067.072-.12.019-.067.053-.111.019-.065.073-.122.091-.189.174-.4a22.951,22.951,0,0,0,1.511-14.075l-.035-.065a1.817,1.817,0,0,1-.1-.39l-.012-.022-.07-.13a3.3,3.3,0,0,0-.1-.6c-.051-.195-.11-.357-.16-.551l-.068-.13-.012-.022c-.036-.119-.085-.26-.121-.379l-.035-.064a22.881,22.881,0,0,0-8.107-11.615c-.122-.071-.234-.178-.356-.251l-.167-.1-.123-.073-.044-.031-.1-.085-.046-.032-.123-.072-.044-.032-.123-.072-.045-.032-.121-.072-.045-.032-.123-.072-.056-.053-.123-.072-.077-.042-.123-.072-.078-.042-.123-.073-.077-.041-.123-.073-.078-.041-.123-.072-.077-.042-.135-.094-.077-.042-.134-.093-.078-.043-.134-.093-.077-.043-.157-.081-.077-.043-.155-.081-.079-.042-.155-.082-.078-.042-.156-.082-.077-.042-.156-.082-.078-.042-.155-.082-.078-.041-.156-.083-.078-.041-.156-.083-.078-.041-.155-.082-.111-.052-.253-.113c-7.55-3.637-17.214-4.611-27.022-2.1-6.171,1.6-24.88,6.3-29.406,7.465L378.788,239.9c4.526-1.163,23.186-6.056,29.368-7.639C417.965,229.747,425.958,224.224,430.836,217.39Z"/><path class="cls-1" d="M468.705,277.868l-.012-.023-.012-.022-.012-.022c-.026-.152-.062-.27-.089-.422l-.012-.022-.068-.129.024.011c.034-.3.016-.535-.078-.557-.06-.21-.11-.406-.16-.6l-.069-.129-.012-.023c-.048-.14-.083-.26-.131-.4l-.047-.085a23.627,23.627,0,0,0-9.277-12.452c-.134-.094-.29-.177-.424-.271l-.178-.126-.134-.094-.078-.041-.121-.073-.078-.042-.134-.094-.078-.041-.134-.1-.077-.041-.134-.1-.078-.041-.134-.095-.077-.041-.133-.1-.079-.041-.155-.082-.078-.042-.156-.082-.078-.042-.155-.082-.078-.042-.156-.082-.077-.042-.156-.082-.078-.041-.156-.082-.078-.042-.155-.082-.077-.042-.157-.082-.077-.042-.156-.082-.078-.042-.188-.091-.078-.043-.189-.091-.077-.042-.19-.092-.077-.042-.189-.092-.1-.03-.189-.091-.1-.03-.188-.092-.1-.029-.208-.082-.145-.061-.287-.123c-8.807-3.76-20.2-4.606-31.807-1.627-7.321,1.89-29.5,7.457-34.866,8.852l15.042,58.576c5.381-1.373,27.494-7.157,34.812-9.047,11.605-2.978,21.16-9.2,27.085-16.766l.2-.245.1-.112.126-.179.062-.088.126-.18.063-.088.126-.179.062-.088.126-.179.063-.089.126-.179.062-.088.1-.167.063-.088.1-.168.042-.077.1-.167.043-.078.1-.166.042-.078.116-.146.041-.078.115-.146.042-.077.094-.134.041-.078.1-.134.041-.078.1-.133.041-.078.1-.133.041-.079.1-.133.041-.078.094-.133.042-.079.094-.133.042-.078.094-.134.041-.077.1-.134.041-.078.073-.123.041-.077.073-.123.042-.078.082-.156.113-.2.238-.432a23.578,23.578,0,0,0,2.134-15.382Z"/><path class="cls-1" d="M403.77,6.014c-137.645,0-249.228,111.583-249.228,249.228S266.125,504.47,403.77,504.47,653,392.887,653,255.242,541.415,6.014,403.77,6.014ZM518.931,299.137l-.009.032c-.1.275-.235.542-.358.829l-.163.365-.123.287-.052.111-.112.254-.071.123-.112.254-.073.123-.134.266-.072.123-.133.266-.073.122-.134.266-.072.123-.133.267-.073.122-.134.267-.073.123-.133.266-.061.143-.156.278-.062.143-.155.277-.083.156-.155.277-.082.156-.156.277-.082.156-.176.289-.082.155-.177.291-.082.155-.165.31-.083.155-.165.311-.083.156-.186.321-.082.156-.186.323-.083.155-.186.323-.1.166-.187.322-.1.167-.209.333-.1.166-.208.334-.156.223-.023.012-.323.478c-9.594,14.33-25.448,25.831-45.054,30.87-2.673.691-6.538,1.692-11.03,2.864l11.458,44.591-26.513,6.821L430,351.618l-21.223,5.442L420.2,401.478,393.685,408.3l-11.556-44.309-54.637,14.041-1.135-33.644,19.312-4.968a9.114,9.114,0,0,0,6.55-11.085l-30.59-119.029-.006-.023a13.64,13.64,0,0,0-16.611-9.806l-22.042,5.66-7.279-28.288,54.7-14.076-11.409-44.4,26.524-6.8,11.416,44.269L378.14,150.4,366.732,106l26.524-6.8,11.458,44.55,4.525-1.162c17.4-4.464,34.69-2.338,48.3,4.736l.465.248.012.022.222.1.311.165.155.083.31.165.156.083.289.176.156.082.289.176.134.1.277.155.134.1.277.155.134.1.277.155.123.072.277.155.123.073.256.167.123.072.257.167.122.072.245.146.123.072.244.146.123.072.245.146.121.073.245.145.123.072.223.158.121.072.223.156.123.073.222.156.1.085.223.157.1.084.222.157.1.084.194.128.1.084.19.147.1.085.19.147.1.084.222.157.28.209c.2.169.425.326.625.494l.012.022a45.217,45.217,0,0,1,14.807,22.158l.012.022.012.023.013.021.012.022.012.022.012.022.012.021c.072.238.146.476.218.714l.023.043.127.236c.1.334.207.692.283,1.039.109.356.185.7.261,1.05l.1.192.012.023.012.022v.054a6.921,6.921,0,0,1,.175.737l.012.022.012.021.012.022.013.022.012.023.012.021.023.043.012.022a45.221,45.221,0,0,1-2.3,26.548l-.022.012c-.115.252-.2.5-.315.752l-.153.331-.113.255-.052.111-.1.221-.052.11-.1.222-.052.111-.1.221-.051.11-.124.233-.051.111-.124.232-.052.111-.124.232-.051.111-.124.232-.072.123-.124.233-.073.121-.145.245-.073.122-.146.244-.071.123-.134.266-.073.122-.134.266-.071.122-.134.266-.073.123-.155.277-.073.122-.156.277-.071.122-.157.277-.093.134-.157.278-.093.134-.177.289-.094.134-.177.289-.094.134-.177.289-.093.133-.177.29-.094.133-.177.29-.136.211-.022.012-.292.435a63.691,63.691,0,0,1-6.1,7.658,71.057,71.057,0,0,1,22.757,7.191c.168.105.344.18.511.28l.012.021.233.124.342.175.166.1.344.176.166.1.323.187.166.1.323.186.155.083.322.186.156.082.322.186.156.083.31.165.156.083.289.176.156.082.289.177.134.094.289.176.133.095.291.176.133.094.289.176.134.095.268.188.133.095.257.166.133.094.257.167.134.094.256.167.134.094.149.225.123.072.256.166.123.073.235.178.123.073.233.178.1.085.223.157.1.085.222.156.1.085.235.178.323.241c.234.179.48.379.715.557l.012.022a50.93,50.93,0,0,1,16.646,24.915l.023.043.012.022.012.021.011.022.011.022.013.022.011.022c.1.281.158.551.242.811l.024.043.139.257c.024.452.079.866.073,1.092.124.379.2.78.3,1.17l.047.086.012.021.012.022.011.022.012.022.012.022.012.022.01.022.013.022.012.021.012.022.011.023.013.022.012.021v.055q.094.413.189.813l.012.021.011.022.012.022.012.022.012.021.011.023.012.022.012.022A50.97,50.97,0,0,1,518.931,299.137Z"/></svg>