<svg height="84" viewBox="0 0 320 84" width="320" xmlns="http://www.w3.org/2000/svg"><g fill="none" fill-rule="evenodd" transform="translate(0 5)"><path d="m90.5053702 37.0195801c0-7.6738121 5.9916022-14.1913812 13.9288398-14.1913812 5.150055 0 8.356243 2.1551381 10.879116 4.8353591l-2.575028 2.7341437c-2.155138-2.2612155-4.678011-3.9946962-8.357127-3.9946962-5.5186738 0-9.7237566 4.6771271-9.7237566 10.6165746 0 5.8864089 4.3093922 10.5644199 9.9862986 10.5644199 3.468729 0 6.044641-1.7865193 8.199779-4.0998895l2.680221 2.4698343c-2.73326 3.0497237-5.991603 5.2570165-11.089503 5.2570165-7.9372376 0-13.9288398-6.4654143-13.9288398-14.1913812zm29.5611048-22.814232 4.046851-1.9933702v15.9248619c1.787403-2.9427625 4.625856-5.3082873 9.303867-5.3082873 6.56884 0 10.406188 4.4154696 10.406188 10.88v16.8716022h-4.046851v-15.8735912c0-5.0457458-2.733259-8.198895-7.516464-8.198895-4.678011 0-8.14674 3.4165746-8.14674 8.5153591v15.5571271h-4.046851zm28.499006 28.3859447c0-5.8342541 4.730165-8.8822099 11.614585-8.8822099 3.469614 0 5.887293.4720442 8.304973 1.1562431v-.841547c0-4.8353591-2.942763-7.358232-8.041547-7.358232-3.206188 0-5.729061.7885082-8.251934 1.9438674l-1.208398-3.3104973c2.995801-1.3675138 5.886409-2.3133701 9.881105-2.3133701 3.836464 0 6.832265 1.0519337 8.777901 2.996685 1.891712 1.8917128 2.837569 4.520663 2.837569 7.9893923v16.6090608h-3.994696v-4.0477348c-1.891713 2.4176795-4.992708 4.6258563-9.775912 4.6258563-5.0979 0-10.143646-2.8906077-10.143646-8.5675138zm19.972596-1.9969061v-2.5228729c-1.99779-.5790055-4.625856-1.1571271-7.937237-1.1571271-5.045746 0-7.936354 2.2081768-7.936354 5.5725967 0 3.4156906 3.154033 5.4134807 6.833149 5.4134807 4.992708 0 9.040442-2.9966851 9.040442-7.3060774zm10.781614-17.1875359h4.04685v4.7301658c1.787404-2.9436464 4.625857-5.3082873 9.303868-5.3082873 6.56884 0 10.406188 4.4154696 10.406188 10.88v16.8716022h-4.046851v-15.8735912c0-5.0457458-2.73326-8.198895-7.516464-8.198895-4.678011 0-8.146741 3.4165746-8.146741 8.5153591v15.5571271h-4.04685zm30.091049 31.9036464 1.839558-3.1540331c3.100995 2.2603315 6.569724 3.4696132 10.459227 3.4696132 5.991602 0 9.881989-3.3113812 9.881989-9.6716022v-3.2053038c-2.365525 3.1531491-5.67779 5.7290607-10.669613 5.7290607-6.51757 0-12.772597-4.8883977-12.772597-12.8247513s6.307182-12.8247514 12.772597-12.8247514c5.0979 0 8.409281 2.5228729 10.616574 5.4665193v-4.8883978h4.046851v22.4433149c0 4.2050829-1.261436 7.4112708-3.468729 9.6185636-2.41768 2.4176795-6.043757 3.6260773-10.354033 3.6260773-4.520663 0-8.725746-1.2614364-12.351824-3.7843094zm22.285967-19.7100552c0-5.5717127-4.836243-9.1969061-9.987182-9.1969061s-9.408177 3.5739227-9.408177 9.2499448c0 5.4656353 4.362431 9.2499447 9.408177 9.2499447 5.150939 0 9.987182-3.7303867 9.987182-9.3029834zm23.11505 12.0890166c3.732155 0 6.360221-1.5248619 8.568398-3.8373481l2.522873 2.2612155c-2.73326 3.0479558-6.045525 5.0970165-11.19558 5.0970165-7.46431 0-13.560221-5.7281768-13.560221-14.1904972 0-7.8841989 5.518674-14.1913812 13.035138-14.1913812 8.041547 0 12.667403 6.4123757 12.667403 14.4017679 0 .3677349 0 .7885083-.053039 1.4196686h-21.549613c.578122 5.7281767 4.783204 9.039558 9.564641 9.039558zm7.937237-12.2987846c-.472928-4.9414364-3.311381-9.1465193-8.672707-9.1465193-4.678011 0-8.251049 3.8903867-8.829171 9.1465193zm9.746652-19.4328397 4.046851-1.9942542v36.6170166h-4.046851zm11.447691-1.7524862 4.046851-1.9933702v38.3681768h-4.046851zm9.41295 43.5756906 1.365746-3.2061879c1.314475.6833149 2.522873.9988951 4.257238.9988951 2.417679 0 3.942541-1.2614365 5.572596-5.0987846l-12.352707-27.0682873h4.468509l9.880221 22.6528177 8.725745-22.6528177h4.309393l-11.405083 28.0662984c-2.312486 5.6247514-4.940553 7.6746961-9.039558 7.6746961-2.261216 0-3.942542-.4729282-5.7821-1.3666298z" fill="#333"/><path d="m63.248442 39.9098343c-11.7666298 10.3487292-16.6762431 11.3414364-21.5460774 9.0740331l5.3153592-6.7155801c.7849723-.9829834 1.3551381-2.1498343 1.6477348-3.3714917l2.1445304-8.9564641-8.9564641 2.1445304c-1.2225415.2925967-2.3885083.8627624-3.3653039 1.6433149l-6.720884 5.318895c-2.2682873-4.8680663-1.2755801-9.7785635 9.0731492-21.5460773 9.7776795-11.1169061 30.4689503-13.66983428 36.601105-14.19138124-.522431 6.13038674-3.0753592 26.82165744-14.1931492 36.60022104zm-7.8338122 16.039779c-.1007734.4985635-.3871823.9325966-.8070718 1.2207734-1.241105.8521547-3.1504972 2.0358011-4.8441989 3.0612155.0274033-.1060773.0556906-.2121547.0830939-.319116.8238674-3.2335912.8150277-5.7281768-.0212154-7.4254144 2.2293922-.678011 4.639116-1.9235359 7.3697237-3.7869613-.6629834 2.5051934-1.4258563 5.4956906-1.7803315 7.2495028zm-18.6121547-5.8050829c-.7009944.8857458-1.7918232 1.3807735-2.9215469 1.3215469l-.042431-.0026519-2.6740331.0053039 9.2764641-11.159337-11.160221 9.2755801.0061878-2.6316022-.0026519-.0839779c-.0583425-1.1279558.4349171-2.2214365 1.321547-2.922431l9.8245303-7.7754696c.6267404-.5003315 1.3710498-.8636464 2.1507183-1.0510497l4.0088398-.96-.96 4.0088398c-.1874034.7796685-.5507183 1.5230939-1.0554697 2.156906zm-15.9646408-19.240663c-.1069614.0274033-.2139227.0548066-.3191161.0830939 1.0254144-1.6937016 2.2081768-3.6030939 3.0612155-4.8433149.2881768-.4207735.7222099-.7080663 1.2207735-.8079558 1.7538121-.3544751 4.7434254-1.1173481 7.2486188-1.7794475-1.8643094 2.7306077-3.1080663 5.1385635-3.7851934 7.3697238-1.6972376-.8362431-4.1909392-.8450829-7.4262983-.0220995zm58.2223204-30.8358011 1.6901657-.0680663-.0680663 1.69104972c-.0459668 1.14475138-1.2923756 28.17944748-15.3723756 40.56220998-1.4329282 1.2605525-2.7836465 2.4-4.0689503 3.4289502-.4923757 1.7962431-2.2037569 8.0981216-2.7659669 10.8844199-.2625414 1.2985636-1.0086188 2.4265194-2.1003315 3.1770166-2.7606629 1.8961326-8.4331491 5.2083978-8.6735911 5.3480663l-4.1255249 2.4061879 1.9085083-4.3774586c1.2446409-2.8640884 2.5246409-7.6711602 1.4709392-9.3860774-.1723757-.2811049-.4587845-.5754696-1.2649723-.6232044l.0008839-.0123757c-2.0304972-.0344751-3.9743646-.5851933-5.9703867-1.6106077l-.4693923.5940331c-1.318895 1.6645304-3.36 2.603315-5.4868508 2.5034255l-7.6145856.0150276.0150276-7.6145857c-.0954696-2.119779.838011-4.1679558 2.5034254-5.4859668l.5940331-.4702762c-1.0254143-1.9960221-1.5805524-3.9398895-1.6141436-5.9695028h-.0088398c-.0477348-.8061879-.3420994-1.0925967-.6232044-1.2649724-1.7149171-1.0537016-6.5219889.2262984-9.3860773 1.4709392l-4.3721547 1.8996686 2.4008839-4.1166851c.1405525-.239558 3.4519337-5.9129282 5.3480663-8.6735912.7504973-1.0925967 1.8784531-1.83779 3.1770166-2.1003315 2.7862984-.5622099 9.0899448-2.2735911 10.8844199-2.7650829 1.0298343-1.2853038 2.1683978-2.63779 3.4289503-4.0698342 12.3827624-14.08000001 39.4183425-15.32640885 40.5630939-15.3723757zm-40.9053702 62.1267624c.6143647-.5701657 1.201326-1.1739226 1.7281768-1.840442-.7443094 1.5363536-1.8298342 2.8994476-3.0081768 4.1564641-1.1907182 1.2534807-2.5361326 2.3646409-3.9690607 3.3493923-1.4346962.9856354-2.9675139 1.8324862-4.5569061 2.5546961-.7938122.3659669-1.6079558.679779-2.4247514.9918232-.8265193.2766851-1.6539227.5639779-2.4972376.7885083-.8353591.2581216-1.6919337.4225415-2.5414364.6276243-.8565746.1520442-1.7113813.3474033-2.5759116.4446409l-1.2950277.1767956-1.2985635.1228729c-.8671823.0937017-1.7343646.1069613-2.6024309.1529282-3.47314921.1264088-6.93834258-.1299448-10.35049727-.6170166l-2.76331492-.3933701 1.78121547-2.1153592c1.70519337-2.0260773 3.20530387-4.1272928 4.41281768-6.4344751 1.22430939-2.2983425 2.21348066-4.7805525 3.17082873-7.2981215.94320441-2.5759116 2.10475141-5.1138122 3.42895031-7.5191161.6691712-1.2030939 1.3807734-2.3805525 2.1498342-3.518232.7637569-1.1394475 1.5699448-2.2506077 2.4680663-3.2830939-1.280884 2.4106077-2.3672928 4.8910497-3.3529282 7.3953591-.9741436 2.5166851-1.8077348 5.0439779-2.5228729 7.6419889-.7443094 2.6377901-1.6114917 5.2791161-2.80839778 7.8470719-.60640884 1.278232-1.29679558 2.5290607-2.06674033 3.7215469-.26607735.4075138-.54187845.8053039-.82209945 1.200442 2.40265194.2333702 4.80972376.3535912 7.21060776.3288398.8194475-.0229834 1.6424309-.0185636 2.4583425-.081326l1.2287293-.0654143 1.2225414-.1166851.6117127-.0583426.6072929-.079558 1.2172375-.158232c.802652-.1449724 1.6159116-.2616575 2.4106078-.4446409 1.6035359-.3244199 3.1823204-.758453 4.7266298-1.2967956 1.5460773-.5348066 3.0585635-1.1756906 4.518895-1.9332597 1.4550277-.7637569 2.8693923-1.6282873 4.1882873-2.639558.6700553-.4932596 1.3047514-1.0360221 1.9155801-1.6079558zm22.6899448-34.0656795c2.1074033 0 4.2139226-.802652 5.8183425-2.4061879 3.2070718-3.2079558 3.2070718-8.4269613 0-11.6349171s-8.4269613-3.2088398-11.6358011 0c-1.5540331 1.5540331-2.4097237 3.6198895-2.4097237 5.8174586 0 2.196685.8556906 4.2634254 2.4097237 5.8174585 1.6035359 1.6035359 3.7109392 2.4061879 5.8174586 2.4061879zm-3.6101658-11.8346962c.9953592-.9944751 2.3027625-1.4921547 3.6101658-1.4921547s2.6148066.4976796 3.6110497 1.4921547c1.9898343 1.9916022 1.9898343 5.2304973 0 7.2212155-1.9907182 1.9907182-5.2304972 1.9907182-7.2212155 0-.9644199-.9644199-1.4956906-2.2461878-1.4956906-3.6101657s.5312707-2.6457459 1.4956906-3.6110498z" fill="#10d078"/></g></svg>