<svg height="44" viewBox="0 0 211 44" width="211" xmlns="http://www.w3.org/2000/svg" xmlns:xlink="http://www.w3.org/1999/xlink"><mask id="a" fill="#fff"><path d="m0 44h215.9v-43.478h-215.9z" fill="#fff" fill-rule="evenodd"/></mask><mask id="b" fill="#fff"><path d="m21.82785.528c-12.0021.07876543-21.70685 9.7120494-21.70685 21.5839012 0 11.9207408 9.78395 21.5839013 21.85425 21.5839013 12.06865 0 21.8537-9.6631605 21.8537-21.5839013 0-11.8718518-9.70585-21.50513577-21.70685-21.5839012" fill="#fff" fill-rule="evenodd"/></mask><mask id="c" fill="#fff"><path d="m21.82785.528c-12.0021.07876543-21.70685 9.7120494-21.70685 21.5839012 0 11.9207408 9.78395 21.5839013 21.85425 21.5839013 12.06865 0 21.8537-9.6631605 21.8537-21.5839013 0-11.8718518-9.70585-21.50513577-21.70685-21.5839012" fill="#fff" fill-rule="evenodd"/></mask><mask id="d" fill="#fff"><path d="m21.82785.528c-12.0021.07876543-21.70685 9.7120494-21.70685 21.5839012 0 11.9207408 9.78395 21.5839013 21.85425 21.5839013 12.06865 0 21.8537-9.6631605 21.8537-21.5839013 0-11.8718518-9.70585-21.50513577-21.70685-21.5839012" fill="#fff" fill-rule="evenodd"/></mask><mask id="e" fill="#fff"><path d="m21.82785.528c-12.0021.07876543-21.70685 9.7120494-21.70685 21.5839012 0 11.9207408 9.78395 21.5839013 21.85425 21.5839013 12.06865 0 21.8537-9.6631605 21.8537-21.5839013 0-11.8718518-9.70585-21.50513577-21.70685-21.5839012" fill="#fff" fill-rule="evenodd"/></mask><mask id="f" fill="#fff"><path d="m21.82785.528c-12.0021.07876543-21.70685 9.7120494-21.70685 21.5839012 0 11.9207408 9.78395 21.5839013 21.85425 21.5839013 12.06865 0 21.8537-9.6631605 21.8537-21.5839013 0-11.8718518-9.70585-21.50513577-21.70685-21.5839012" fill="#fff" fill-rule="evenodd"/></mask><mask id="g" fill="#fff"><path d="m21.82785.528c-12.0021.07876543-21.70685 9.7120494-21.70685 21.5839012 0 11.9207408 9.78395 21.5839013 21.85425 21.5839013 12.06865 0 21.8537-9.6631605 21.8537-21.5839013 0-11.8718518-9.70585-21.50513577-21.70685-21.5839012" fill="#fff" fill-rule="evenodd"/></mask><mask id="h" fill="#fff"><path d="m21.82785.528c-12.0021.07876543-21.70685 9.7120494-21.70685 21.5839012 0 11.9207408 9.78395 21.5839013 21.85425 21.5839013 12.06865 0 21.8537-9.6631605 21.8537-21.5839013 0-11.8718518-9.70585-21.50513577-21.70685-21.5839012" fill="#fff" fill-rule="evenodd"/></mask><mask id="i" fill="#fff"><path d="m21.82785.528c-12.0021.07876543-21.70685 9.7120494-21.70685 21.5839012 0 11.9207408 9.78395 21.5839013 21.85425 21.5839013 12.06865 0 21.8537-9.6631605 21.8537-21.5839013 0-11.8718518-9.70585-21.50513577-21.70685-21.5839012" fill="#fff" fill-rule="evenodd"/></mask><mask id="j" fill="#fff"><path d="m21.82785.528c-12.0021.07876543-21.70685 9.7120494-21.70685 21.5839012 0 11.9207408 9.78395 21.5839013 21.85425 21.5839013 12.06865 0 21.8537-9.6631605 21.8537-21.5839013 0-11.8718518-9.70585-21.50513577-21.70685-21.5839012" fill="#fff" fill-rule="evenodd"/></mask><mask id="k" fill="#fff"><path d="m21.82785.528c-12.0021.07876543-21.70685 9.7120494-21.70685 21.5839012 0 11.9207408 9.78395 21.5839013 21.85425 21.5839013 12.06865 0 21.8537-9.6631605 21.8537-21.5839013 0-11.8718518-9.70585-21.50513577-21.70685-21.5839012" fill="#fff" fill-rule="evenodd"/></mask><mask id="l" fill="#fff"><path d="m21.82785.528c-12.0021.07876543-21.70685 9.7120494-21.70685 21.5839012 0 11.9207408 9.78395 21.5839013 21.85425 21.5839013 12.06865 0 21.8537-9.6631605 21.8537-21.5839013 0-11.8718518-9.70585-21.50513577-21.70685-21.5839012" fill="#fff" fill-rule="evenodd"/></mask><mask id="m" fill="#fff"><path d="m21.82785.528c-12.0021.07876543-21.70685 9.7120494-21.70685 21.5839012 0 11.9207408 9.78395 21.5839013 21.85425 21.5839013 12.06865 0 21.8537-9.6631605 21.8537-21.5839013 0-11.8718518-9.70585-21.50513577-21.70685-21.5839012" fill="#fff" fill-rule="evenodd"/></mask><mask id="n" fill="#fff"><path d="m21.82785.528c-12.0021.07876543-21.70685 9.7120494-21.70685 21.5839012 0 11.9207408 9.78395 21.5839013 21.85425 21.5839013 12.06865 0 21.8537-9.6631605 21.8537-21.5839013 0-11.8718518-9.70585-21.50513577-21.70685-21.5839012" fill="#fff" fill-rule="evenodd"/></mask><mask id="o" fill="#fff"><path d="m21.82785.528c-12.0021.07876543-21.70685 9.7120494-21.70685 21.5839012 0 11.9207408 9.78395 21.5839013 21.85425 21.5839013 12.06865 0 21.8537-9.6631605 21.8537-21.5839013 0-11.8718518-9.70585-21.50513577-21.70685-21.5839012" fill="#fff" fill-rule="evenodd"/></mask><mask id="p" fill="#fff"><path d="m21.82785.528c-12.0021.07876543-21.70685 9.7120494-21.70685 21.5839012 0 11.9207408 9.78395 21.5839013 21.85425 21.5839013 12.06865 0 21.8537-9.6631605 21.8537-21.5839013 0-11.8718518-9.70585-21.50513577-21.70685-21.5839012" fill="#fff" fill-rule="evenodd"/></mask><mask id="q" fill="#fff"><path d="m21.82785.528c-12.0021.07876543-21.70685 9.7120494-21.70685 21.5839012 0 11.9207408 9.78395 21.5839013 21.85425 21.5839013 12.06865 0 21.8537-9.6631605 21.8537-21.5839013 0-11.8718518-9.70585-21.50513577-21.70685-21.5839012" fill="#fff" fill-rule="evenodd"/></mask><mask id="r" fill="#fff"><path d="m21.82785.528c-12.0021.07876543-21.70685 9.7120494-21.70685 21.5839012 0 11.9207408 9.78395 21.5839013 21.85425 21.5839013 12.06865 0 21.8537-9.6631605 21.8537-21.5839013 0-11.8718518-9.70585-21.50513577-21.70685-21.5839012" fill="#fff" fill-rule="evenodd"/></mask><mask id="s" fill="#fff"><path d="m21.82785.528c-12.0021.07876543-21.70685 9.7120494-21.70685 21.5839012 0 11.9207408 9.78395 21.5839013 21.85425 21.5839013 12.06865 0 21.8537-9.6631605 21.8537-21.5839013 0-11.8718518-9.70585-21.50513577-21.70685-21.5839012" fill="#fff" fill-rule="evenodd"/></mask><mask id="t" fill="#fff"><path d="m21.82785.528c-12.0021.07876543-21.70685 9.7120494-21.70685 21.5839012 0 11.9207408 9.78395 21.5839013 21.85425 21.5839013 12.06865 0 21.8537-9.6631605 21.8537-21.5839013 0-11.8718518-9.70585-21.50513577-21.70685-21.5839012" fill="#fff" fill-rule="evenodd"/></mask><mask id="u" fill="#fff"><path d="m21.82785.528c-12.0021.07876543-21.70685 9.7120494-21.70685 21.5839012 0 11.9207408 9.78395 21.5839013 21.85425 21.5839013 12.06865 0 21.8537-9.6631605 21.8537-21.5839013 0-11.8718518-9.70585-21.50513577-21.70685-21.5839012" fill="#fff" fill-rule="evenodd"/></mask><mask id="v" fill="#fff"><path d="m21.82785.528c-12.0021.07876543-21.70685 9.7120494-21.70685 21.5839012 0 11.9207408 9.78395 21.5839013 21.85425 21.5839013 12.06865 0 21.8537-9.6631605 21.8537-21.5839013 0-11.8718518-9.70585-21.50513577-21.70685-21.5839012" fill="#fff" fill-rule="evenodd"/></mask><mask id="w" fill="#fff"><path d="m21.82785.528c-12.0021.07876543-21.70685 9.7120494-21.70685 21.5839012 0 11.9207408 9.78395 21.5839013 21.85425 21.5839013 12.06865 0 21.8537-9.6631605 21.8537-21.5839013 0-11.8718518-9.70585-21.50513577-21.70685-21.5839012" fill="#fff" fill-rule="evenodd"/></mask><mask id="x" fill="#fff"><path d="m21.82785.528c-12.0021.07876543-21.70685 9.7120494-21.70685 21.5839012 0 11.9207408 9.78395 21.5839013 21.85425 21.5839013 12.06865 0 21.8537-9.6631605 21.8537-21.5839013 0-11.8718518-9.70585-21.50513577-21.70685-21.5839012" fill="#fff" fill-rule="evenodd"/></mask><mask id="y" fill="#fff"><path d="m21.82785.528c-12.0021.07876543-21.70685 9.7120494-21.70685 21.5839012 0 11.9207408 9.78395 21.5839013 21.85425 21.5839013 12.06865 0 21.8537-9.6631605 21.8537-21.5839013 0-11.8718518-9.70585-21.50513577-21.70685-21.5839012" fill="#fff" fill-rule="evenodd"/></mask><mask id="z" fill="#fff"><path d="m21.82785.528c-12.0021.07876543-21.70685 9.7120494-21.70685 21.5839012 0 11.9207408 9.78395 21.5839013 21.85425 21.5839013 12.06865 0 21.8537-9.6631605 21.8537-21.5839013 0-11.8718518-9.70585-21.50513577-21.70685-21.5839012" fill="#fff" fill-rule="evenodd"/></mask><mask id="A" fill="#fff"><path d="m21.82785.528c-12.0021.07876543-21.70685 9.7120494-21.70685 21.5839012 0 11.9207408 9.78395 21.5839013 21.85425 21.5839013 12.06865 0 21.8537-9.6631605 21.8537-21.5839013 0-11.8718518-9.70585-21.50513577-21.70685-21.5839012" fill="#fff" fill-rule="evenodd"/></mask><mask id="B" fill="#fff"><path d="m21.82785.528c-12.0021.07876543-21.70685 9.7120494-21.70685 21.5839012 0 11.9207408 9.78395 21.5839013 21.85425 21.5839013 12.06865 0 21.8537-9.6631605 21.8537-21.5839013 0-11.8718518-9.70585-21.50513577-21.70685-21.5839012" fill="#fff" fill-rule="evenodd"/></mask><mask id="C" fill="#fff"><path d="m21.82785.528c-12.0021.07876543-21.70685 9.7120494-21.70685 21.5839012 0 11.9207408 9.78395 21.5839013 21.85425 21.5839013 12.06865 0 21.8537-9.6631605 21.8537-21.5839013 0-11.8718518-9.70585-21.50513577-21.70685-21.5839012" fill="#fff" fill-rule="evenodd"/></mask><g fill="none" fill-rule="evenodd" transform="translate(-5)"><g fill="#2281c4"><path d="m73.903 1h-9.903v42h22v-8.4h-12.097z"/><path d="m90 43h9v-31h-9z"/><path d="m90 9h9v-8h-9z"/><path d="m116.29144 2.72005854h-9.085706v8.94970736h-3.600731v6.4320487h3.600731v18.1226342c0 4.7541463 2.685198 7.2154634 7.60002 7.2154634 1.999919 0 3.886356-.2237561 5.829259-.5033171v-6.2646341c-.972 0-1.314639-.0563415-2.343655.1116097-1.199512 0-1.999918-.3911707-1.999918-2.1812195v-16.5005366h4.343573v-6.4320487h-4.343573z"/><path d="m139.492964 22.9122488h-6.285928v-2.0696098c0-2.1812195.628812-4.1950244 3.199979-4.1950244 2.343107 0 3.085949 2.0696098 3.085949 3.1883903zm-3.142964-12.137561c-7.02932.0558049-12.229766 2.6845366-12.229766 10.7392195v12.7530244c0 7.159122 5.715228 9.7883903 12.229766 9.7320488 7.886193-.1116098 12.343797-3.8033171 11.886579-11.858h-9.029239c-.171594 2.6292683.171594 5.5939024-3.19998 5.4259512-2.000467-.1116097-2.800324-1.5662927-2.800324-3.3v-5.4817561h15.372182v-8.9491707c0-6.7684878-5.885726-9.1176586-12.229218-9.0613171z"/></g><path d="m163.094966 35.4413024v-10.3475122c4.286011.1674147 7.143351.0558049 7.143351 4.9220976 0 5.6491707-2.113949 5.3138049-7.143351 5.4254146zm0-26.84804874c3.543716 0 6.457523-.16795122 6.457523 3.97126834 0 4.9779024-2.056934 4.6983414-6.457523 4.9779024zm11.658518 12.24917074v-.1116098c3.485604-1.8458536 4.857259-5.1458536 4.857259-8.8375609 0-8.4458537-5.943289-10.85082931-13.543858-10.85082931h-13.029624v41.95024391h14.17267c8.171817 0 13.08664-3.6359024 13.08664-12.1380976 0-5.2016585-.972-7.4392195-5.543087-10.0121463z" fill="#f6a600"/><path d="m185.726 42.992h9.087v-31.323h-9.087z" fill="#f6a600" mask="url(#a)"/><path d="m185.726 8.593h9.087v-7.55h-9.087z" fill="#f6a600" mask="url(#a)"/><path d="m215.900004 18.1018146v-6.4320487h-4.343574v-8.94970736h-9.085705v8.94970736h-3.600183v6.4320487h3.600183v18.1226342c0 4.7541463 2.685198 7.2154634 7.60002 7.2154634 2.000467 0 3.886356-.2237561 5.829259-.5033171v-6.2646341c-.971452 0-1.314091-.0563415-2.343107.1116097-1.20006 0-2.000467-.3911707-2.000467-2.1812195v-16.5005366z" fill="#f6a600" mask="url(#a)"/><path d="m5.35120812 30.1933366v12.6789756h12.95451778c-5.903269-2.2960488-10.60812184-6.9010244-12.95451778-12.6789756" fill="#2281c4" mask="url(#a)"/><path d="m18.3056162.81212195h-12.95451772v12.67897565c2.34639594-5.77795126 7.05124872-10.38239028 12.95451772-12.67897565" fill="#2281c4" mask="url(#a)"/><path d="m48.3240792 13.4910439v-12.67897561h-12.9539696c5.9032691 2.29658537 10.6081219 6.90102439 12.9539696 12.67897561" fill="#f6a600" mask="url(#a)"/><path d="m48.3240792 30.1933366c-2.3458477 5.7779512-7.0507005 10.3829268-12.9545178 12.6789756h12.9545178z" fill="#f6a600" mask="url(#a)"/><path d="m1.54484 5.22937284c-.14465 1.67580247-1.56475 3.18375309-3.21695 3.2782716-1.65165.09397531-3.1075-1.34607407-3.1075-3.12508642 0-1.77901234 1.4597-3.22069135 3.2615-3.22069135 1.8007 0 3.20705 1.39224691 3.06295 3.06750617" fill="#2281c4" mask="url(#b)" transform="translate(5)"/><path d="m10.204645 3.94750617c-.08415 2.01476543-2.96065 4.28755556-5.26185 3.1511605-2.3012-1.7045926.5753-5.11323457 2.63505-5.39733334 1.70555-.1982716 2.92435.78167902 2.6268 2.24617284" fill="#2281c4" mask="url(#c)" transform="translate(5)"/><path d="m20.36837 2.91437531c-1.0439 3.04795062-5.071 3.61614815-6.79635 1.91155555-2.3012-2.27279012 1.72535-3.40864197 3.39515-4.11807407 1.9041-.12928395 3.4474.86261728 3.4012 2.20651852" fill="#2281c4" mask="url(#d)" transform="translate(5)"/><path d="m30.844715 3.60637037c-.59015 3.4922963-6.3426 2.35590123-6.9179-.48508642 0-1.13585185 0-2.27224691 3.0844-2.36187654 1.89145.14666666 3.5596 1.42212345 3.8335 2.84696296" fill="#f6a600" mask="url(#e)" transform="translate(5)"/><path d="m39.734915 5.01958519c.2134 1.61930864-.8228 2.71767901-2.43265 2.39066666-1.6104-.32646913-3.27965-1.87244444-3.57995-3.35051852-.29975-1.47753086.9075-2.47377777 2.6081-2.28637037 1.6995.18849383 3.1911 1.62745679 3.4045 3.24622223" fill="#f6a600" mask="url(#f)" transform="translate(5)"/><path d="m48.722905 5.38266667c0 1.77901234-1.46025 3.22123456-3.2615 3.22123456s-3.00025-1.63125925-3.11905-3.32661728c-.1177-1.69535802 1.3178-3.11585185 3.11905-3.11585185s3.2615 1.44222222 3.2615 3.22123457" fill="#f6a600" mask="url(#g)" transform="translate(5)"/><path d="m.60005 13.2523111c.3157 1.8007408-.8349 3.5053333-2.56025 3.5053333-4.0271 0-3.4518-5.6819753.1738-6.4093333 1.5785-.1222222 2.6004 1.1124938 2.38645 2.904" fill="#2281c4" mask="url(#h)" transform="translate(5)"/><path d="m8.63632 11.7767901c-.24145 2.1397037-2.54265 4.9806914-4.8444 3.8442963-2.87595-2.2722469 0-5.1132345 2.42275-6.57392591 1.6181-.34330864 2.7533.78982716 2.42165 2.72962961" fill="#2281c4" mask="url(#i)" transform="translate(5)"/><path d="m20.114325 10.5893333c-.21505 3.8953581-5.3922 5.0317531-7.69285 3.3271605-2.3012-2.2727901.5753-6.2496296 3.73175-6.48864195 2.2-.20859259 4.0183 1.13367901 3.9611 3.16148145" fill="#2281c4" mask="url(#j)" transform="translate(5)"/><path d="m32.301885 11.3967062c.3124 1.972395-1.19845 3.5650864-3.57995 3.3869136-2.38095-.1781729-4.5408-2.140247-4.6332-4.1664198-.0924-2.02671605 1.6808-3.34128395 3.84395-3.10607407 2.16205.23520987 4.0568 1.91318518 4.3692 3.88558027" fill="#f6a600" mask="url(#k)" transform="translate(5)"/><path d="m40.94827 12.9743506c.2596 1.8197531-.69465 3.2060247-2.20715 2.981679-1.51195-.2248889-3.1064-2.1272098-3.43915-4.0556049-.3322-1.92839507.76615-3.05990124 2.35345-2.72419754 1.5862.3357037 3.0327 1.97837034 3.29285 3.79812344" fill="#f6a600" mask="url(#l)" transform="translate(5)"/><path d="m48.722905 13.7127901c0 1.7790124-1.24905 3.1788642-2.68125 3.0892346-1.43275-.0890864-2.6543-1.6893827-2.85285-3.4738272-.19745-1.7839012.8514-3.036 2.4684-2.9387654 1.6159.0977778 3.0657 1.5443457 3.0657 3.323358" fill="#f6a600" mask="url(#m)" transform="translate(5)"/><path d="m7.7506 22.0373185c.06875 1.5383704-1.08185 3.8106173-2.80775 3.8106173-4.0271-.5681975-3.4518-6.8178272-.0462-7.7488889 1.54275-.155358 2.85505 1.5845432 2.85395 3.9382716" fill="#2281c4" mask="url(#n)" transform="translate(5)"/><path d="m19.95213 22.0338963c-.0528 2.6780247-2.35345 4.9502716-4.65465 4.9502716-5.75245-.5681975-5.75245-9.0906173.011-9.6707654 2.4893-.1124445 4.6442 1.9914074 4.64365 4.7204938" fill="#2281c4" mask="url(#o)" transform="translate(5)"/><path d="m33.14784 22.0362864c.0011 2.4678025-1.84195 4.5548148-4.26415 4.6781235-2.4222.1233086-4.5331-1.9609877-4.5331-4.6802963-.00055-2.7193087 2.10925-4.8014321 4.5309-4.6770371 2.42165.1243951 4.26525 2.2114075 4.26635 4.6792099" fill="#f6a600" mask="url(#p)" transform="translate(5)"/><path d="m41.628235 22.0407951c.13145 1.5345679-1.01915 3.807358-2.7445 3.807358-4.02765-.5681975-3.4518-6.8178272.05885-7.6902222 1.4971.1504691 2.6851 1.8724444 2.68565 3.8828642" fill="#f6a600" mask="url(#q)" transform="translate(5)"/><path d="m.59631 30.8331901c.2134 1.7925926-.80795 3.0278519-2.3848 2.9050864-1.5774-.1227654-2.99805-1.5834567-3.0338-3.3543209-.0352-1.7708642 1.17865-3.1658272 2.58005-3.0647902 1.40085.1010371 2.6246 1.7219753 2.83855 3.5140247" fill="#2281c4" mask="url(#r)" transform="translate(5)"/><path d="m8.62983 32.3057778c.3311 1.9425185-.80465 3.0772839-2.4222 2.7339753-1.6181-.3433087-3.08935-1.9990124-3.3616-3.8307161-.2717-1.8311605.69575-3.2272098 2.2528-2.9979753 1.5565.2292346 3.1999 2.1521976 3.531 4.0947161" fill="#2281c4" mask="url(#s)" transform="translate(5)"/><path d="m20.113225 33.4913877c.36135 4.2880987-5.3911 3.7199012-7.11645 2.0153086-2.3012-2.2727901-1.1506-6.2496296 2.45135-6.1529383 2.44365.1591605 4.6079 2.1060247 4.6651 4.1376297" fill="#2281c4" mask="url(#t)" transform="translate(5)"/><path d="m32.30777 32.6851012c-.31185 1.9756544-2.20715 3.6558025-4.37085 3.8915556-2.16425.2352099-3.938-1.0826173-3.84615-3.1125926.0924-2.0305185 2.2528-3.9953086 4.63485-4.1734815 2.38205-.1770864 3.894 1.4188642 3.58215 3.3945185" fill="#f6a600" mask="url(#u)" transform="translate(5)"/><path d="m40.95311 31.1106074c-.34375 2.6916049-2.64495 4.9643951-4.9456 3.2598025-1.72645-1.1363951-.5753-5.6814321 2.7379-6.2458272 1.51195-.2232592 2.46675 1.1651852 2.2077 2.9860247" fill="#f6a600" mask="url(#v)" transform="translate(5)"/><path d="m48.722905 30.3729827c0 1.7790124-1.44925 3.2261235-3.06405 3.3239013-3.32365.1053827-3.89895-5.5760494.38445-6.4136791 1.43165-.0890864 2.6796 1.3107655 2.6796 3.0897778" fill="#f6a600" mask="url(#w)" transform="translate(5)"/><path d="m1.542145 38.8582469c.1452 1.6752593-1.2595 3.0658766-3.0602 3.0658766-1.8018 0-3.2615-1.4422223-3.2615-3.2212346 0-1.7790124 1.45585-3.2185185 3.10585-3.124 1.65055.0956049 3.0701 1.6040988 3.21585 3.279358" fill="#2281c4" mask="url(#x)" transform="translate(5)"/><path d="m10.19876 40.1441333c.49665 3.3168395-4.1052 2.7491852-5.25635.4758519-1.15005-1.1358519-1.15005-5.1132346 1.6258-3.8160494 1.63625.3340741 3.33245 1.8746173 3.63055 3.3401975" fill="#2281c4" mask="url(#y)" transform="translate(5)"/><path d="m20.367325 41.1796543c-1.0428 3.4178766-6.79525 2.849679-7.37055-.5595062 0-1.7040493 1.72535-2.8404444 3.3671-2.2499753 2.1241.1988149 3.95725 1.4644939 4.00345 2.8094815" fill="#2281c4" mask="url(#z)" transform="translate(5)"/><path d="m30.85005 40.4860296c-1.17095 2.9751605-5.1975 4.1115556-6.3481 1.8387655-1.1506-1.7045926 0-3.4091852 3.19275-4.0344198 2.0933-.2254321 3.4298.7697284 3.15535 2.1956543" fill="#f6a600" mask="url(#A)" transform="translate(5)"/><path d="m39.73926 39.069121c-.2805 2.6872592-4.30705 4.9600494-6.0335 2.1190617-.5753-2.2722469 1.72645-3.9768395 3.60305-4.5097284 1.60985-.3275555 2.6444.771358 2.43045 2.3906667" fill="#f6a600" mask="url(#B)" transform="translate(5)"/><path d="m48.722905 38.7031062c0 1.7790123-1.46025 3.2212345-3.2615 3.2212345s-3.23565-1.4194074-3.11685-3.1142222c.1199-1.6948148 1.3156-3.3282469 3.11685-3.3282469s3.2615 1.4422222 3.2615 3.2212346" fill="#f6a600" mask="url(#C)" transform="translate(5)"/></g></svg>